<svg width="250" height="250" version="1.1" xmlns="http://www.w3.org/2000/svg" desc="Created with imagetracer.js version 1.2.6" ><path fill="rgb(0,0,0)" stroke="rgb(0,0,0)" stroke-width="1" opacity="0" d="M 0 0 L 250 0 L 250 250 L 0 250 L 0 0 Z M 124 7 L 36 65 L 33 68 L 33 147 L 55 135 L 56 134 L 56 84 L 125 38 L 181 74 Q 183 73 182 76 L 157 91 L 158 123 L 216 86 L 218 84 L 218 68 L 138 14 L 127 7 L 124 7 Z M 125 57 L 99 74 L 97 77 L 125 95 L 153 76 L 125 57 Z M 78 83 L 70 89 L 67 92 L 67 108 L 168 170 L 181 159 L 180 158 L 180 146 L 78 83 Z M 216 103 L 196 116 L 194 117 L 194 167 L 126 212 L 70 176 Q 67 177 68 175 L 93 159 L 93 127 L 35 164 L 32 167 L 32 183 L 124 243 L 127 243 L 217 183 L 217 104 L 216 103 Z M 125 157 L 99 174 L 97 177 L 125 195 L 151 178 L 152 176 L 125 157 Z " /><path fill="rgb(0,156,222)" stroke="rgb(0,156,222)" stroke-width="1" opacity="0.592156862745098" d="M 123.5 7 L 125 7.5 L 104.5 21 L 105.5 19 L 123.5 7 Z " /><path fill="rgb(0,156,222)" stroke="rgb(0,156,222)" stroke-width="1" opacity="0.592156862745098" d="M 102.5 21 L 101.5 23 L 102.5 21 Z " /><path fill="rgb(0,156,222)" stroke="rgb(0,156,222)" stroke-width="1" opacity="0.592156862745098" d="M 99.5 23 L 98.5 25 L 99.5 23 Z " /><path fill="rgb(0,156,222)" stroke="rgb(0,156,222)" stroke-width="1" opacity="0.592156862745098" d="M 96.5 25 L 95.5 27 L 96.5 25 Z " /><path fill="rgb(0,156,222)" stroke="rgb(0,156,222)" stroke-width="1" opacity="0.592156862745098" d="M 93.5 27 L 92.5 29 L 63.5 48 L 64.5 46 L 93.5 27 Z " /><path fill="rgb(0,156,222)" stroke="rgb(0,156,222)" stroke-width="1" opacity="0.592156862745098" d="M 124.5 37 L 123.5 39 L 124.5 37 Z " /><path fill="rgb(0,156,222)" stroke="rgb(0,156,222)" stroke-width="1" opacity="0.592156862745098" d="M 121.5 39 L 120.5 41 L 121.5 39 Z " /><path fill="rgb(0,156,222)" stroke="rgb(0,156,222)" stroke-width="1" opacity="0.592156862745098" d="M 118.5 41 L 117.5 43 L 97.5 56 L 98.5 54 L 118.5 41 Z " /><path fill="rgb(0,156,222)" stroke="rgb(0,156,222)" stroke-width="1" opacity="0.592156862745098" d="M 61.5 48 L 60.5 50 L 61.5 48 Z " /><path fill="rgb(0,156,222)" stroke="rgb(0,156,222)" stroke-width="1" opacity="0.592156862745098" d="M 58.5 50 L 57.5 52 L 58.5 50 Z " /><path fill="rgb(0,156,222)" stroke="rgb(0,156,222)" stroke-width="1" opacity="0.592156862745098" d="M 55.5 52 L 54.5 54 L 34.5 67 L 35.5 65 L 55.5 52 Z " /><path fill="rgb(0,156,222)" stroke="rgb(0,156,222)" stroke-width="1" opacity="0.592156862745098" d="M 95.5 56 L 94.5 58 L 95.5 56 Z " /><path fill="rgb(0,156,222)" stroke="rgb(0,156,222)" stroke-width="1" opacity="0.592156862745098" d="M 92.5 58 L 91.5 60 L 92.5 58 Z " /><path fill="rgb(0,156,222)" stroke="rgb(0,156,222)" stroke-width="1" opacity="0.592156862745098" d="M 89.5 60 L 88.5 62 L 68.5 75 L 69.5 73 L 89.5 60 Z " /><path fill="rgb(0,156,222)" stroke="rgb(0,156,222)" stroke-width="1" opacity="0.592156862745098" d="M 66.5 75 L 65.5 77 L 66.5 75 Z " /><path fill="rgb(0,156,222)" stroke="rgb(0,156,222)" stroke-width="1" opacity="0.592156862745098" d="M 63.5 77 L 62.5 79 L 56.5 83 L 58.5 80 L 63.5 77 Z " /><path fill="rgb(0,156,222)" stroke="rgb(0,156,222)" stroke-width="1" opacity="0.592156862745098" d="M 77.5 83 L 80 84.5 L 78.5 84 L 67.5 92 L 69.5 89 L 77.5 83 Z " /><path fill="rgb(0,156,222)" stroke="rgb(0,156,222)" stroke-width="1" opacity="0.592156862745098" d="M 81.5 85 L 93 92.5 L 91.5 92 L 82.5 87 L 81.5 85 Z " /><path fill="rgb(0,156,222)" stroke="rgb(0,156,222)" stroke-width="1" opacity="0.592156862745098" d="M 94.5 93 L 108 101.5 L 106.5 101 L 95.5 95 L 94.5 93 Z " /><path fill="rgb(0,156,222)" stroke="rgb(0,156,222)" stroke-width="1" opacity="0.592156862745098" d="M 67.5 94 L 68 107.5 L 70 109.5 L 67 107.5 L 67.5 94 Z " /><path fill="rgb(0,156,222)" stroke="rgb(0,156,222)" stroke-width="1" opacity="0.592156862745098" d="M 109.5 102 L 110.5 104 L 109.5 102 Z " /><path fill="rgb(0,156,222)" stroke="rgb(0,156,222)" stroke-width="1" opacity="0.592156862745098" d="M 114.5 105 L 115.5 107 L 114.5 105 Z " /><path fill="rgb(0,156,222)" stroke="rgb(0,156,222)" stroke-width="1" opacity="0.592156862745098" d="M 119.5 108 L 120.5 110 L 119.5 108 Z " /><path fill="rgb(0,156,222)" stroke="rgb(0,156,222)" stroke-width="1" opacity="0.592156862745098" d="M 71.5 110 L 75 112.5 L 73.5 112 L 71.5 110 Z " /><path fill="rgb(0,156,222)" stroke="rgb(0,156,222)" stroke-width="1" opacity="0.592156862745098" d="M 122.5 110 L 126 112.5 L 124.5 112 L 122.5 110 Z " /><path fill="rgb(0,156,222)" stroke="rgb(0,156,222)" stroke-width="1" opacity="0.592156862745098" d="M 76.5 113 L 88 120.5 L 86.5 120 L 77.5 115 L 76.5 113 Z " /><path fill="rgb(0,156,222)" stroke="rgb(0,156,222)" stroke-width="1" opacity="0.592156862745098" d="M 89.5 121 L 90.5 123 L 89.5 121 Z " /><path fill="rgb(0,156,222)" stroke="rgb(0,156,222)" stroke-width="1" opacity="0.592156862745098" d="M 94.5 124 L 95.5 126 L 94.5 124 Z " /><path fill="rgb(0,156,222)" stroke="rgb(0,156,222)" stroke-width="1" opacity="0.592156862745098" d="M 97.5 126 L 101 128.5 L 99.5 128 L 97.5 126 Z " /><path fill="rgb(0,156,222)" stroke="rgb(0,156,222)" stroke-width="1" opacity="0.592156862745098" d="M 102.5 129 L 103.5 131 L 102.5 129 Z " /><path fill="rgb(0,156,222)" stroke="rgb(0,156,222)" stroke-width="1" opacity="0.592156862745098" d="M 125.5 157 L 152 175.5 L 150.5 178 L 144.5 182 L 146.5 179 L 151 177 L 149.5 174 L 127.5 160 L 125.5 157 Z " /><path fill="rgb(0,156,222)" stroke="rgb(0,156,222)" stroke-width="1" opacity="0.592156862745098" d="M 176.5 162 L 175.5 164 L 176.5 162 Z " /><path fill="rgb(0,156,222)" stroke="rgb(0,156,222)" stroke-width="1" opacity="0.592156862745098" d="M 170.5 167 L 169.5 169 L 170.5 167 Z " /><path fill="rgb(0,156,222)" stroke="rgb(0,156,222)" stroke-width="1" opacity="0.592156862745098" d="M 193.5 167 L 191.5 170 L 183.5 175 L 184.5 173 L 193.5 167 Z " /><path fill="rgb(0,156,222)" stroke="rgb(0,156,222)" stroke-width="1" opacity="0.592156862745098" d="M 181.5 175 L 180.5 177 L 181.5 175 Z " /><path fill="rgb(0,156,222)" stroke="rgb(0,156,222)" stroke-width="1" opacity="0.592156862745098" d="M 178.5 177 L 177.5 179 L 178.5 177 Z " /><path fill="rgb(0,156,222)" stroke="rgb(0,156,222)" stroke-width="1" opacity="0.592156862745098" d="M 175.5 179 L 174.5 181 L 154.5 194 L 155.5 192 L 175.5 179 Z " /><path fill="rgb(0,156,222)" stroke="rgb(0,156,222)" stroke-width="1" opacity="0.592156862745098" d="M 142.5 182 L 141.5 184 L 142.5 182 Z " /><path fill="rgb(0,156,222)" stroke="rgb(0,156,222)" stroke-width="1" opacity="0.592156862745098" d="M 215.5 183 L 214.5 185 L 188.5 202 L 189.5 200 L 215.5 183 Z " /><path fill="rgb(0,156,222)" stroke="rgb(0,156,222)" stroke-width="1" opacity="0.592156862745098" d="M 139.5 184 L 138.5 186 L 139.5 184 Z " /><path fill="rgb(0,156,222)" stroke="rgb(0,156,222)" stroke-width="1" opacity="0.592156862745098" d="M 136.5 186 L 134.5 189 L 125.5 195 L 127.5 192 L 136.5 186 Z " /><path fill="rgb(0,156,222)" stroke="rgb(0,156,222)" stroke-width="1" opacity="0.592156862745098" d="M 152.5 194 L 151.5 196 L 152.5 194 Z " /><path fill="rgb(0,156,222)" stroke="rgb(0,156,222)" stroke-width="1" opacity="0.592156862745098" d="M 149.5 196 L 148.5 198 L 128.5 211 L 129.5 209 L 149.5 196 Z " /><path fill="rgb(0,156,222)" stroke="rgb(0,156,222)" stroke-width="1" opacity="0.592156862745098" d="M 186.5 202 L 185.5 204 L 186.5 202 Z " /><path fill="rgb(0,156,222)" stroke="rgb(0,156,222)" stroke-width="1" opacity="0.592156862745098" d="M 183.5 204 L 182.5 206 L 183.5 204 Z " /><path fill="rgb(0,156,222)" stroke="rgb(0,156,222)" stroke-width="1" opacity="0.592156862745098" d="M 180.5 206 L 179.5 208 L 150.5 227 L 151.5 225 L 180.5 206 Z " /><path fill="rgb(0,156,222)" stroke="rgb(0,156,222)" stroke-width="1" opacity="0.592156862745098" d="M 126.5 211 L 125.5 213 L 126.5 211 Z " /><path fill="rgb(0,156,222)" stroke="rgb(0,156,222)" stroke-width="1" opacity="0.592156862745098" d="M 148.5 227 L 147.5 229 L 148.5 227 Z " /><path fill="rgb(0,156,222)" stroke="rgb(0,156,222)" stroke-width="1" opacity="0.592156862745098" d="M 145.5 229 L 144.5 231 L 145.5 229 Z " /><path fill="rgb(0,156,222)" stroke="rgb(0,156,222)" stroke-width="1" opacity="0.592156862745098" d="M 142.5 231 L 141.5 233 L 125.5 243 L 125.5 242 L 142.5 231 Z " /><path fill="rgb(233,84,34)" stroke="rgb(233,84,34)" stroke-width="1" opacity="0.9098039215686274" d="M 126.5 7 L 127.5 9 L 126.5 7 Z " /><path fill="rgb(233,84,34)" stroke="rgb(233,84,34)" stroke-width="1" opacity="0.9098039215686274" d="M 129.5 9 L 130.5 11 L 129.5 9 Z " /><path fill="rgb(233,84,34)" stroke="rgb(233,84,34)" stroke-width="1" opacity="0.9098039215686274" d="M 132.5 11 L 133.5 13 L 132.5 11 Z " /><path fill="rgb(233,84,34)" stroke="rgb(233,84,34)" stroke-width="1" opacity="0.9098039215686274" d="M 135.5 13 L 145 19.5 L 143.5 19 L 136.5 15 L 135.5 13 Z " /><path fill="rgb(233,84,34)" stroke="rgb(233,84,34)" stroke-width="1" opacity="0.9098039215686274" d="M 146.5 20 L 147.5 22 L 146.5 20 Z " /><path fill="rgb(233,84,34)" stroke="rgb(233,84,34)" stroke-width="1" opacity="0.9098039215686274" d="M 149.5 22 L 150.5 24 L 149.5 22 Z " /><path fill="rgb(233,84,34)" stroke="rgb(233,84,34)" stroke-width="1" opacity="0.9098039215686274" d="M 152.5 24 L 153.5 26 L 152.5 24 Z " /><path fill="rgb(233,84,34)" stroke="rgb(233,84,34)" stroke-width="1" opacity="0.9098039215686274" d="M 155.5 26 L 156.5 28 L 155.5 26 Z " /><path fill="rgb(233,84,34)" stroke="rgb(233,84,34)" stroke-width="1" opacity="0.9098039215686274" d="M 158.5 28 L 159.5 30 L 158.5 28 Z " /><path fill="rgb(233,84,34)" stroke="rgb(233,84,34)" stroke-width="1" opacity="0.9098039215686274" d="M 161.5 30 L 162.5 32 L 161.5 30 Z " /><path fill="rgb(233,84,34)" stroke="rgb(233,84,34)" stroke-width="1" opacity="0.9098039215686274" d="M 164.5 32 L 165.5 34 L 164.5 32 Z " /><path fill="rgb(233,84,34)" stroke="rgb(233,84,34)" stroke-width="1" opacity="0.9098039215686274" d="M 167.5 34 L 177 40.5 L 175.5 40 L 168.5 36 L 167.5 34 Z " /><path fill="rgb(233,84,34)" stroke="rgb(233,84,34)" stroke-width="1" opacity="0.9098039215686274" d="M 125.5 37 L 126.5 39 L 125.5 37 Z " /><path fill="rgb(233,84,34)" stroke="rgb(233,84,34)" stroke-width="1" opacity="0.9098039215686274" d="M 128.5 39 L 129.5 41 L 128.5 39 Z " /><path fill="rgb(233,84,34)" stroke="rgb(233,84,34)" stroke-width="1" opacity="0.9098039215686274" d="M 131.5 41 L 138 45.5 L 136.5 45 Q 131.9 43.8 131.5 41 Z " /><path fill="rgb(233,84,34)" stroke="rgb(233,84,34)" stroke-width="1" opacity="0.9098039215686274" d="M 178.5 41 L 179.5 43 L 178.5 41 Z " /><path fill="rgb(233,84,34)" stroke="rgb(233,84,34)" stroke-width="1" opacity="0.9098039215686274" d="M 181.5 43 L 182.5 45 L 181.5 43 Z " /><path fill="rgb(233,84,34)" stroke="rgb(233,84,34)" stroke-width="1" opacity="0.9098039215686274" d="M 184.5 45 L 185.5 47 L 184.5 45 Z " /><path fill="rgb(233,84,34)" stroke="rgb(233,84,34)" stroke-width="1" opacity="0.9098039215686274" d="M 139.5 46 L 140.5 48 L 139.5 46 Z " /><path fill="rgb(233,84,34)" stroke="rgb(233,84,34)" stroke-width="1" opacity="0.9098039215686274" d="M 187.5 47 L 188.5 49 L 187.5 47 Z " /><path fill="rgb(233,84,34)" stroke="rgb(233,84,34)" stroke-width="1" opacity="0.9098039215686274" d="M 142.5 48 L 143.5 50 L 142.5 48 Z " /><path fill="rgb(233,84,34)" stroke="rgb(233,84,34)" stroke-width="1" opacity="0.9098039215686274" d="M 190.5 49 L 191.5 51 L 190.5 49 Z " /><path fill="rgb(233,84,34)" stroke="rgb(233,84,34)" stroke-width="1" opacity="0.9098039215686274" d="M 145.5 50 L 146.5 52 L 145.5 50 Z " /><path fill="rgb(233,84,34)" stroke="rgb(233,84,34)" stroke-width="1" opacity="0.9098039215686274" d="M 193.5 51 L 194.5 53 L 193.5 51 Z " /><path fill="rgb(233,84,34)" stroke="rgb(233,84,34)" stroke-width="1" opacity="0.9098039215686274" d="M 148.5 52 L 149.5 54 L 148.5 52 Z " /><path fill="rgb(233,84,34)" stroke="rgb(233,84,34)" stroke-width="1" opacity="0.9098039215686274" d="M 196.5 53 L 197.5 55 L 196.5 53 Z " /><path fill="rgb(233,84,34)" stroke="rgb(233,84,34)" stroke-width="1" opacity="0.9098039215686274" d="M 151.5 54 L 158 58.5 L 156.5 58 Q 151.9 56.8 151.5 54 Z " /><path fill="rgb(233,84,34)" stroke="rgb(233,84,34)" stroke-width="1" opacity="0.9098039215686274" d="M 199.5 55 L 218 67.5 L 218 83.5 L 215.5 86 L 157.5 123 L 157 91 L 182 75.5 L 182.5 74 L 184.5 75 L 206 62 L 204.5 59 Q 199.9 57.8 199.5 55 Z " /><path fill="rgb(233,84,34)" stroke="rgb(233,84,34)" stroke-width="1" opacity="0.9098039215686274" d="M 124.5 57 L 126 57.5 L 125 58.5 L 125 93.5 L 127 93.5 L 124.5 95 L 97 77 L 98.5 74 L 124.5 57 Z " /><path fill="rgb(233,84,34)" stroke="rgb(233,84,34)" stroke-width="1" opacity="0.9098039215686274" d="M 127.5 58 L 128.5 60 L 127.5 58 Z " /><path fill="rgb(233,84,34)" stroke="rgb(233,84,34)" stroke-width="1" opacity="0.9098039215686274" d="M 159.5 59 L 160.5 61 L 159.5 59 Z " /><path fill="rgb(233,84,34)" stroke="rgb(233,84,34)" stroke-width="1" opacity="0.9098039215686274" d="M 130.5 60 L 153 75.5 L 140.5 85 L 142.5 82 L 152 75.5 L 132.5 63 L 130.5 60 Z " /><path fill="rgb(233,84,34)" stroke="rgb(233,84,34)" stroke-width="1" opacity="0.9098039215686274" d="M 162.5 61 L 163.5 63 L 162.5 61 Z " /><path fill="rgb(233,84,34)" stroke="rgb(233,84,34)" stroke-width="1" opacity="0.9098039215686274" d="M 165.5 63 L 166.5 65 L 165.5 63 Z " /><path fill="rgb(233,84,34)" stroke="rgb(233,84,34)" stroke-width="1" opacity="0.9098039215686274" d="M 168.5 65 L 169.5 67 L 168.5 65 Z " /><path fill="rgb(233,84,34)" stroke="rgb(233,84,34)" stroke-width="1" opacity="0.9098039215686274" d="M 171.5 67 L 178 71.5 L 176.5 71 Q 171.9 69.8 171.5 67 Z " /><path fill="rgb(233,84,34)" stroke="rgb(233,84,34)" stroke-width="1" opacity="0.9098039215686274" d="M 179.5 72 L 180.5 74 L 179.5 72 Z " /><path fill="rgb(233,84,34)" stroke="rgb(233,84,34)" stroke-width="1" opacity="0.9098039215686274" d="M 138.5 85 L 137.5 87 L 138.5 85 Z " /><path fill="rgb(233,84,34)" stroke="rgb(233,84,34)" stroke-width="1" opacity="0.9098039215686274" d="M 135.5 87 L 134.5 89 L 135.5 87 Z " /><path fill="rgb(233,84,34)" stroke="rgb(233,84,34)" stroke-width="1" opacity="0.9098039215686274" d="M 132.5 89 L 131.5 91 L 132.5 89 Z " /><path fill="rgb(233,84,34)" stroke="rgb(233,84,34)" stroke-width="1" opacity="0.9098039215686274" d="M 129.5 91 L 128.5 93 L 129.5 91 Z " /><path fill="rgb(233,84,34)" stroke="rgb(233,84,34)" stroke-width="1" opacity="0.9098039215686274" d="M 92.5 127 L 93 159 L 68 174.5 L 67.5 176 L 64.5 175 L 44 188 L 45 190.5 L 43.5 190 L 32 182.5 L 32 166.5 L 34.5 164 L 92.5 127 Z " /><path fill="rgb(233,84,34)" stroke="rgb(233,84,34)" stroke-width="1" opacity="0.9098039215686274" d="M 69.5 176 L 76 180.5 L 74.5 180 Q 69.9 178.8 69.5 176 Z " /><path fill="rgb(233,84,34)" stroke="rgb(233,84,34)" stroke-width="1" opacity="0.9098039215686274" d="M 77.5 181 L 78.5 183 L 77.5 181 Z " /><path fill="rgb(233,84,34)" stroke="rgb(233,84,34)" stroke-width="1" opacity="0.9098039215686274" d="M 80.5 183 L 81.5 185 L 80.5 183 Z " /><path fill="rgb(233,84,34)" stroke="rgb(233,84,34)" stroke-width="1" opacity="0.9098039215686274" d="M 83.5 185 L 84.5 187 L 83.5 185 Z " /><path fill="rgb(233,84,34)" stroke="rgb(233,84,34)" stroke-width="1" opacity="0.9098039215686274" d="M 86.5 187 L 87.5 189 L 86.5 187 Z " /><path fill="rgb(233,84,34)" stroke="rgb(233,84,34)" stroke-width="1" opacity="0.9098039215686274" d="M 89.5 189 L 96 193.5 L 94.5 193 Q 89.9 191.8 89.5 189 Z " /><path fill="rgb(233,84,34)" stroke="rgb(233,84,34)" stroke-width="1" opacity="0.9098039215686274" d="M 46.5 191 L 47.5 193 L 46.5 191 Z " /><path fill="rgb(233,84,34)" stroke="rgb(233,84,34)" stroke-width="1" opacity="0.9098039215686274" d="M 49.5 193 L 50.5 195 L 49.5 193 Z " /><path fill="rgb(233,84,34)" stroke="rgb(233,84,34)" stroke-width="1" opacity="0.9098039215686274" d="M 97.5 194 L 98.5 196 L 97.5 194 Z " /><path fill="rgb(233,84,34)" stroke="rgb(233,84,34)" stroke-width="1" opacity="0.9098039215686274" d="M 52.5 195 L 53.5 197 L 52.5 195 Z " /><path fill="rgb(233,84,34)" stroke="rgb(233,84,34)" stroke-width="1" opacity="0.9098039215686274" d="M 100.5 196 L 101.5 198 L 100.5 196 Z " /><path fill="rgb(233,84,34)" stroke="rgb(233,84,34)" stroke-width="1" opacity="0.9098039215686274" d="M 55.5 197 L 56.5 199 L 55.5 197 Z " /><path fill="rgb(233,84,34)" stroke="rgb(233,84,34)" stroke-width="1" opacity="0.9098039215686274" d="M 103.5 198 L 104.5 200 L 103.5 198 Z " /><path fill="rgb(233,84,34)" stroke="rgb(233,84,34)" stroke-width="1" opacity="0.9098039215686274" d="M 58.5 199 L 59.5 201 L 58.5 199 Z " /><path fill="rgb(233,84,34)" stroke="rgb(233,84,34)" stroke-width="1" opacity="0.9098039215686274" d="M 106.5 200 L 107.5 202 L 106.5 200 Z " /><path fill="rgb(233,84,34)" stroke="rgb(233,84,34)" stroke-width="1" opacity="0.9098039215686274" d="M 61.5 201 L 62.5 203 L 61.5 201 Z " /><path fill="rgb(233,84,34)" stroke="rgb(233,84,34)" stroke-width="1" opacity="0.9098039215686274" d="M 109.5 202 L 116 206.5 L 114.5 206 Q 109.9 204.8 109.5 202 Z " /><path fill="rgb(233,84,34)" stroke="rgb(233,84,34)" stroke-width="1" opacity="0.9098039215686274" d="M 64.5 203 L 65.5 205 L 64.5 203 Z " /><path fill="rgb(233,84,34)" stroke="rgb(233,84,34)" stroke-width="1" opacity="0.9098039215686274" d="M 67.5 205 L 77 211.5 L 75.5 211 L 68.5 207 L 67.5 205 Z " /><path fill="rgb(233,84,34)" stroke="rgb(233,84,34)" stroke-width="1" opacity="0.9098039215686274" d="M 117.5 207 L 118.5 209 L 117.5 207 Z " /><path fill="rgb(233,84,34)" stroke="rgb(233,84,34)" stroke-width="1" opacity="0.9098039215686274" d="M 120.5 209 L 121.5 211 L 120.5 209 Z " /><path fill="rgb(233,84,34)" stroke="rgb(233,84,34)" stroke-width="1" opacity="0.9098039215686274" d="M 123.5 211 L 124.5 213 L 123.5 211 Z " /><path fill="rgb(233,84,34)" stroke="rgb(233,84,34)" stroke-width="1" opacity="0.9098039215686274" d="M 78.5 212 L 79.5 214 L 78.5 212 Z " /><path fill="rgb(233,84,34)" stroke="rgb(233,84,34)" stroke-width="1" opacity="0.9098039215686274" d="M 81.5 214 L 82.5 216 L 81.5 214 Z " /><path fill="rgb(233,84,34)" stroke="rgb(233,84,34)" stroke-width="1" opacity="0.9098039215686274" d="M 84.5 216 L 85.5 218 L 84.5 216 Z " /><path fill="rgb(233,84,34)" stroke="rgb(233,84,34)" stroke-width="1" opacity="0.9098039215686274" d="M 87.5 218 L 88.5 220 L 87.5 218 Z " /><path fill="rgb(233,84,34)" stroke="rgb(233,84,34)" stroke-width="1" opacity="0.9098039215686274" d="M 90.5 220 L 91.5 222 L 90.5 220 Z " /><path fill="rgb(233,84,34)" stroke="rgb(233,84,34)" stroke-width="1" opacity="0.9098039215686274" d="M 93.5 222 L 94.5 224 L 93.5 222 Z " /><path fill="rgb(233,84,34)" stroke="rgb(233,84,34)" stroke-width="1" opacity="0.9098039215686274" d="M 96.5 224 L 97.5 226 L 96.5 224 Z " /><path fill="rgb(233,84,34)" stroke="rgb(233,84,34)" stroke-width="1" opacity="0.9098039215686274" d="M 99.5 226 L 109 232.5 L 107.5 232 L 100.5 228 L 99.5 226 Z " /><path fill="rgb(233,84,34)" stroke="rgb(233,84,34)" stroke-width="1" opacity="0.9098039215686274" d="M 110.5 233 L 111.5 235 L 110.5 233 Z " /><path fill="rgb(233,84,34)" stroke="rgb(233,84,34)" stroke-width="1" opacity="0.9098039215686274" d="M 113.5 235 L 114.5 237 L 113.5 235 Z " /><path fill="rgb(233,84,34)" stroke="rgb(233,84,34)" stroke-width="1" opacity="0.9098039215686274" d="M 116.5 237 L 117.5 239 L 116.5 237 Z " /><path fill="rgb(233,84,34)" stroke="rgb(233,84,34)" stroke-width="1" opacity="0.9098039215686274" d="M 119.5 239 L 120.5 241 L 119.5 239 Z " /><path fill="rgb(233,84,34)" stroke="rgb(233,84,34)" stroke-width="1" opacity="0.9098039215686274" d="M 122.5 241 L 123.5 243 L 122.5 241 Z " /><path fill="rgb(47,55,82)" stroke="rgb(47,55,82)" stroke-width="1" opacity="0.7450980392156863" d="M 33.5 68 L 34.5 146 L 37.5 144 L 36.5 146 L 33 147 L 33.5 68 Z " /><path fill="rgb(47,55,82)" stroke="rgb(47,55,82)" stroke-width="1" opacity="0.7450980392156863" d="M 55.5 83 L 56 133.5 L 55 133.5 L 55.5 83 Z " /><path fill="rgb(47,55,82)" stroke="rgb(47,55,82)" stroke-width="1" opacity="0.7450980392156863" d="M 215.5 103 L 217 103.5 L 217 181.5 L 216 181.5 L 215.5 104 L 214 104.5 L 215.5 103 Z " /><path fill="rgb(47,55,82)" stroke="rgb(47,55,82)" stroke-width="1" opacity="0.7450980392156863" d="M 210.5 106 L 209.5 108 L 210.5 106 Z " /><path fill="rgb(47,55,82)" stroke="rgb(47,55,82)" stroke-width="1" opacity="0.7450980392156863" d="M 207.5 108 L 206.5 110 L 207.5 108 Z " /><path fill="rgb(47,55,82)" stroke="rgb(47,55,82)" stroke-width="1" opacity="0.7450980392156863" d="M 202.5 111 L 201.5 113 L 202.5 111 Z " /><path fill="rgb(47,55,82)" stroke="rgb(47,55,82)" stroke-width="1" opacity="0.7450980392156863" d="M 199.5 113 L 198.5 115 L 199.5 113 Z " /><path fill="rgb(47,55,82)" stroke="rgb(47,55,82)" stroke-width="1" opacity="0.7450980392156863" d="M 194.5 116 L 195 166.5 L 194 166.5 L 194.5 116 Z " /><path fill="rgb(47,55,82)" stroke="rgb(47,55,82)" stroke-width="1" opacity="0.7450980392156863" d="M 153.5 129 L 154.5 131 L 153.5 129 Z " /><path fill="rgb(47,55,82)" stroke="rgb(47,55,82)" stroke-width="1" opacity="0.7450980392156863" d="M 156.5 131 L 160 133.5 L 158.5 133 L 156.5 131 Z " /><path fill="rgb(47,55,82)" stroke="rgb(47,55,82)" stroke-width="1" opacity="0.7450980392156863" d="M 53.5 134 L 52.5 136 L 50.5 137 L 51.5 135 L 53.5 134 Z " /><path fill="rgb(47,55,82)" stroke="rgb(47,55,82)" stroke-width="1" opacity="0.7450980392156863" d="M 161.5 134 L 162.5 136 L 161.5 134 Z " /><path fill="rgb(47,55,82)" stroke="rgb(47,55,82)" stroke-width="1" opacity="0.7450980392156863" d="M 48.5 137 L 47.5 139 L 48.5 137 Z " /><path fill="rgb(47,55,82)" stroke="rgb(47,55,82)" stroke-width="1" opacity="0.7450980392156863" d="M 166.5 137 L 167.5 139 L 166.5 137 Z " /><path fill="rgb(47,55,82)" stroke="rgb(47,55,82)" stroke-width="1" opacity="0.7450980392156863" d="M 45.5 139 L 44.5 141 L 42.5 142 L 43.5 140 L 45.5 139 Z " /><path fill="rgb(47,55,82)" stroke="rgb(47,55,82)" stroke-width="1" opacity="0.7450980392156863" d="M 171.5 140 L 172.5 142 L 171.5 140 Z " /><path fill="rgb(47,55,82)" stroke="rgb(47,55,82)" stroke-width="1" opacity="0.7450980392156863" d="M 40.5 142 L 39.5 144 L 40.5 142 Z " /><path fill="rgb(47,55,82)" stroke="rgb(47,55,82)" stroke-width="1" opacity="0.7450980392156863" d="M 174.5 142 L 178 144.5 L 176.5 144 L 174.5 142 Z " /><path fill="rgb(47,55,82)" stroke="rgb(47,55,82)" stroke-width="1" opacity="0.7450980392156863" d="M 179.5 145 L 180 153.5 L 179 153.5 L 179.5 145 Z " /><path fill="rgb(47,55,82)" stroke="rgb(47,55,82)" stroke-width="1" opacity="0.7450980392156863" d="M 137.5 150 L 138.5 152 L 137.5 150 Z " /><path fill="rgb(47,55,82)" stroke="rgb(47,55,82)" stroke-width="1" opacity="0.7450980392156863" d="M 140.5 152 L 144 154.5 L 142.5 154 L 140.5 152 Z " /><path fill="rgb(47,55,82)" stroke="rgb(47,55,82)" stroke-width="1" opacity="0.7450980392156863" d="M 145.5 155 L 146.5 157 L 145.5 155 Z " /><path fill="rgb(47,55,82)" stroke="rgb(47,55,82)" stroke-width="1" opacity="0.7450980392156863" d="M 124.5 157 L 123.5 159 L 111.5 167 L 113.5 164 L 124.5 157 Z " /><path fill="rgb(47,55,82)" stroke="rgb(47,55,82)" stroke-width="1" opacity="0.7450980392156863" d="M 150.5 158 L 151.5 160 L 150.5 158 Z " /><path fill="rgb(47,55,82)" stroke="rgb(47,55,82)" stroke-width="1" opacity="0.7450980392156863" d="M 179.5 159 L 177.5 162 L 179.5 159 Z " /><path fill="rgb(47,55,82)" stroke="rgb(47,55,82)" stroke-width="1" opacity="0.7450980392156863" d="M 155.5 161 L 156.5 163 L 155.5 161 Z " /><path fill="rgb(47,55,82)" stroke="rgb(47,55,82)" stroke-width="1" opacity="0.7450980392156863" d="M 175.5 162 L 171.5 167 L 175.5 162 Z " /><path fill="rgb(47,55,82)" stroke="rgb(47,55,82)" stroke-width="1" opacity="0.7450980392156863" d="M 160.5 164 L 161.5 166 L 160.5 164 Z " /><path fill="rgb(47,55,82)" stroke="rgb(47,55,82)" stroke-width="1" opacity="0.7450980392156863" d="M 163.5 166 L 167 168.5 L 165.5 168 L 163.5 166 Z " /><path fill="rgb(47,55,82)" stroke="rgb(47,55,82)" stroke-width="1" opacity="0.7450980392156863" d="M 109.5 167 L 108.5 169 L 109.5 167 Z " /><path fill="rgb(47,55,82)" stroke="rgb(47,55,82)" stroke-width="1" opacity="0.7450980392156863" d="M 169.5 167 L 168.5 169 L 169.5 167 Z " /><path fill="rgb(47,55,82)" stroke="rgb(47,55,82)" stroke-width="1" opacity="0.7450980392156863" d="M 106.5 169 L 105.5 171 L 106.5 169 Z " /><path fill="rgb(47,55,82)" stroke="rgb(47,55,82)" stroke-width="1" opacity="0.7450980392156863" d="M 103.5 171 L 102.5 173 L 103.5 171 Z " /><path fill="rgb(47,55,82)" stroke="rgb(47,55,82)" stroke-width="1" opacity="0.7450980392156863" d="M 100.5 173 L 99.5 175 L 100.5 173 Z " /><path fill="rgb(47,55,82)" stroke="rgb(47,55,82)" stroke-width="1" opacity="0.7450980392156863" d="M 99.5 177 L 100.5 179 L 99.5 177 Z " /><path fill="rgb(47,55,82)" stroke="rgb(47,55,82)" stroke-width="1" opacity="0.7450980392156863" d="M 102.5 179 L 103.5 181 L 102.5 179 Z " /><path fill="rgb(47,55,82)" stroke="rgb(47,55,82)" stroke-width="1" opacity="0.7450980392156863" d="M 105.5 181 L 106.5 183 L 105.5 181 Z " /><path fill="rgb(47,55,82)" stroke="rgb(47,55,82)" stroke-width="1" opacity="0.7450980392156863" d="M 108.5 183 L 109.5 185 L 108.5 183 Z " /><path fill="rgb(47,55,82)" stroke="rgb(47,55,82)" stroke-width="1" opacity="0.7450980392156863" d="M 111.5 185 L 112.5 187 L 111.5 185 Z " /><path fill="rgb(47,55,82)" stroke="rgb(47,55,82)" stroke-width="1" opacity="0.7450980392156863" d="M 114.5 187 L 115.5 189 L 114.5 187 Z " /><path fill="rgb(47,55,82)" stroke="rgb(47,55,82)" stroke-width="1" opacity="0.7450980392156863" d="M 117.5 189 L 118.5 191 L 117.5 189 Z " /><path fill="rgb(47,55,82)" stroke="rgb(47,55,82)" stroke-width="1" opacity="0.7450980392156863" d="M 120.5 191 L 125 194.5 L 123.5 194 L 120.5 191 Z " /><path fill="rgb(1,120,164)" stroke="rgb(1,120,164)" stroke-width="1" opacity="0.8666666666666667" d="M 99.5 98 L 99.5 100 Q 101.8 100.8 101 98.5 L 103.5 100 L 140 121.5 L 137 122 L 137.5 124 L 139 123.5 L 136 124.5 L 137 126.5 L 135 125.5 L 134.5 124 L 134 126.5 L 134.5 128 Q 133.3 125.8 132 128.5 L 132.5 130 L 131 129.5 L 130 131.5 L 130.5 133 L 129 132.5 L 127 135.5 L 127.5 137 L 125 135.5 L 126 137.5 L 123 138.5 L 123.5 140 L 122 139.5 L 123 141.5 L 120.5 140 L 85 119 L 84 116.5 L 84.5 114 Q 85.8 116.3 87 113.5 L 87.5 112 L 88.5 114 L 89.5 110 L 90.5 113 L 92 108.5 L 91.5 107 L 93 107.5 L 92 105.5 L 94 106.5 L 94.5 108 L 95 105.5 L 93.5 103 Q 95.3 106.8 97 103.5 L 96.5 102 L 95 102.5 L 99.5 98 Z M 99 100 L 97 102 L 98 104 L 99 104 L 99 100 Z " /><path fill="rgb(1,120,164)" stroke="rgb(1,120,164)" stroke-width="1" opacity="0.8666666666666667" d="M 141.5 122 L 142.5 124 L 141.5 122 Z " /><path fill="rgb(1,120,164)" stroke="rgb(1,120,164)" stroke-width="1" opacity="0.8666666666666667" d="M 124.5 158 L 125 193.5 L 124 193.5 L 124.5 158 Z " /><path fill="rgb(17,82,114)" stroke="rgb(17,82,114)" stroke-width="1" opacity="0.9333333333333333" d="M 136.5 121 L 140.5 122 L 171 140.5 L 167 143.5 L 163 148.5 L 163.5 150 Q 161.7 147.2 160 151.5 L 154.5 158 Q 152.3 157.3 153 159.5 L 150.5 158 L 122 140.5 L 121 138.5 L 124 137.5 L 123.5 136 L 125 136.5 L 126 134.5 L 125.5 133 L 127 133.5 L 128 131.5 L 127.5 130 L 131 130.5 L 130 128.5 L 133 127.5 L 132.5 126 L 134 126.5 L 135.5 123 L 137 123.5 L 136.5 121 Z " /><path fill="rgb(17,82,114)" stroke="rgb(17,82,114)" stroke-width="1" opacity="0.9333333333333333" d="M 166.5 147 L 165.5 149 L 166.5 147 Z " /><path fill="rgb(17,82,114)" stroke="rgb(17,82,114)" stroke-width="1" opacity="0.9333333333333333" d="M 157.5 157 L 156.5 159 L 157.5 157 Z " /><path fill="rgb(47,55,82)" stroke="rgb(47,55,82)" stroke-width="1" opacity="1" d="M 34 69 L 55 82.5 L 55 132.5 L 52.5 135 L 34.5 146 L 34 69 Z " /><path fill="rgb(47,55,82)" stroke="rgb(47,55,82)" stroke-width="1" opacity="1" d="M 215.5 104 L 216 181 L 195 167.5 L 195 117.5 L 197.5 115 L 215.5 104 Z " /><path fill="rgb(47,55,82)" stroke="rgb(47,55,82)" stroke-width="1" opacity="1" d="M 167.5 140 L 168.5 142 L 171.5 141 L 179 145 L 180 158.5 L 167.5 169 L 155 160.5 L 154.5 159 L 153 159.5 L 151 156.5 L 153.5 156 L 155 155.5 L 154.5 152 L 158 152.5 L 157 150.5 L 160 149.5 L 159 148.5 Q 162.1 146.8 160.5 145 Q 161.7 147.3 163 144.5 L 162.5 143 L 165 144.5 L 163 141.5 L 165.5 143 L 167 141.5 L 167.5 140 Z " /><path fill="rgb(47,55,82)" stroke="rgb(47,55,82)" stroke-width="1" opacity="1" d="M 122.5 159 L 124 159.5 L 124 193 L 98 175.5 L 122.5 159 Z " /><path fill="rgb(239,128,30)" stroke="rgb(239,128,30)" stroke-width="1" opacity="0.9921568627450981" d="M 125.5 7 L 206 60.5 Q 206.8 62.8 204.5 62 L 183.5 75 L 125 36.5 L 125.5 7 Z " /><path fill="rgb(239,128,30)" stroke="rgb(239,128,30)" stroke-width="1" opacity="0.9921568627450981" d="M 125 58 L 152 75.5 L 125.5 94 L 125 58 Z " /><path fill="rgb(239,128,30)" stroke="rgb(239,128,30)" stroke-width="1" opacity="0.9921568627450981" d="M 64.5 175 L 76.5 181 L 125 213.5 L 124.5 243 L 44 189.5 Q 43.3 187.3 45.5 188 L 64.5 175 Z " /><path fill="rgb(0,157,224)" stroke="rgb(0,157,224)" stroke-width="1" opacity="1" d="M 123.5 8 L 125 8.5 L 125 36.5 L 55.5 82 L 34 67.5 L 123.5 8 Z " /><path fill="rgb(0,157,224)" stroke="rgb(0,157,224)" stroke-width="1" opacity="1" d="M 77.5 84 L 101 98.5 L 102 100.5 L 100.5 104 L 100.5 100 Q 97.5 99.1 99 103.5 L 96.5 108 L 95.5 105 L 94 108.5 L 94.5 110 L 91 109.5 L 92 113.5 L 90 112.5 L 89.5 110 L 89 113.5 Q 91.3 114.8 88.5 116 L 87.5 115 L 84.5 118 L 83.5 117 L 68 107.5 L 68 94.5 L 67 92.5 L 77.5 84 Z " /><path fill="rgb(0,157,224)" stroke="rgb(0,157,224)" stroke-width="1" opacity="1" d="M 125.5 158 L 151 175.5 Q 151.8 177.8 149.5 177 L 125.5 194 L 125.5 158 Z " /><path fill="rgb(0,157,224)" stroke="rgb(0,157,224)" stroke-width="1" opacity="1" d="M 193.5 168 L 216 182.5 L 125 242 L 125 213.5 L 127.5 211 L 193.5 168 Z " /></svg>