<?xml version="1.0" encoding="UTF-8"?>
<svg version="1.1" xmlns="http://www.w3.org/2000/svg" width="1135" height="944">
<path d="M0 0 C374.55 0 749.1 0 1135 0 C1135 311.52 1135 623.04 1135 944 C760.45 944 385.9 944 0 944 C0 632.48 0 320.96 0 0 Z " fill="#FEFEFE" transform="translate(0,0)"/>
<path d="M0 0 C12.73049145 4.7532413 25.01678156 28.95523672 32.64624023 39.94140625 C33.98917156 41.83934591 35.37820396 43.69815352 36.77124023 45.55957031 C37.70971115 46.85834847 38.64723592 48.1578109 39.58374023 49.45800781 C40.03064209 50.03566895 40.47754395 50.61333008 40.93798828 51.20849609 C44.64880048 56.48249815 43.92301192 60.56215136 42.89624023 66.70800781 C42.70486178 68.49051485 42.52648592 70.27446548 42.36108398 72.05957031 C41.87280273 76.94238281 41.38452148 81.82519531 40.89624023 86.70800781 C41.75217773 86.96710938 42.60811523 87.22621094 43.48999023 87.49316406 C68.67009407 96.47368275 89.37170298 119.18738922 100.89624023 142.70800781 C106.30583382 154.45343325 109.50185303 166.50989015 112.13842773 179.13769531 C113.10648711 183.69855235 114.17157056 188.23413133 115.24780273 192.77050781 C116.48603196 198.37983538 117.04587883 203.71670844 117.02905273 209.45800781 C117.03000946 210.19317627 117.03096619 210.92834473 117.0319519 211.68579102 C117.03262979 213.23893316 117.03080289 214.7920782 117.02661133 216.34521484 C117.02131926 218.67324537 117.02653753 221.00107747 117.03295898 223.32910156 C117.03662305 232.50392543 116.7030392 241.56306097 115.89624023 250.70800781 C116.41395996 249.48561401 116.41395996 249.48561401 116.94213867 248.23852539 C117.76538086 246.29475911 118.58862305 244.35099284 119.41186523 242.40722656 C120.14663086 240.57611328 120.14663086 240.57611328 120.89624023 238.70800781 C121.21560547 237.92466064 121.5349707 237.14131348 121.86401367 236.33422852 C124.76376817 228.86880095 126.29582266 221.39794363 127.64624023 213.52050781 C127.86666992 212.28236328 128.08709961 211.04421875 128.31420898 209.76855469 C128.85033726 206.7499194 129.3745392 203.72916993 129.89624023 200.70800781 C135.17624023 200.70800781 140.45624023 200.70800781 145.89624023 200.70800781 C146.56697932 214.23457945 145.27516396 226.98860367 143.27124023 240.33300781 C143.15335144 241.15350616 143.03546265 241.97400452 142.91400146 242.81936646 C141.14840613 254.96263794 138.11910908 266.18967966 133.89624023 277.70800781 C130.63921507 276.28582466 128.5362505 274.56268815 126.07592773 272.01269531 C125.3759668 271.29726563 124.67600586 270.58183594 123.95483398 269.84472656 C123.23424805 269.09835937 122.51366211 268.35199219 121.77124023 267.58300781 C120.33578146 266.09673633 118.89590031 264.61471903 117.45092773 263.13769531 C116.81654785 262.4801123 116.18216797 261.8225293 115.52856445 261.14501953 C114.00850178 259.48774959 114.00850178 259.48774959 111.89624023 259.70800781 C110.43306194 261.68241708 109.08910959 263.64039653 107.77124023 265.70800781 C107.39870117 266.28035156 107.02616211 266.85269531 106.64233398 267.44238281 C105.72073615 268.86022563 104.80768202 270.28361506 103.89624023 271.70800781 C105.26837036 274.78987432 106.83002922 276.88293576 109.22509766 279.24804688 C109.90307907 279.92264954 110.58106049 280.5972522 111.27958679 281.29229736 C112.37953728 282.37205841 112.37953728 282.37205841 113.50170898 283.47363281 C114.25913895 284.22586121 115.01656891 284.9780896 115.79695129 285.75311279 C118.2211833 288.15954006 120.65197007 290.5592002 123.08374023 292.95800781 C125.49683115 295.34333986 127.90840144 297.73015833 130.31697083 300.12005615 C131.81454587 301.60553156 133.31478468 303.08832819 134.81816101 304.56793213 C138.13706908 307.85559587 141.35109412 311.1743873 144.40063477 314.71459961 C148.09037858 318.99666998 152.05960292 322.94559439 156.09545898 326.89941406 C157.64978201 328.43623366 159.20380978 329.97335193 160.75756836 331.51074219 C163.17692683 333.89909901 165.59854009 336.2850265 168.02539062 338.66577148 C170.38891096 340.98684337 172.74277837 343.31736232 175.09545898 345.64941406 C176.17992561 346.70594933 176.17992561 346.70594933 177.28630066 347.78382874 C181.84911709 352.32339265 186.1721435 356.82525287 187.39233398 363.36816406 C187.2447596 369.41871398 186.71462305 373.87629931 182.24389648 378.36816406 C177.89945091 382.25336592 174.6890754 383.86731898 168.77124023 384.14550781 C167.88178711 384.20609375 166.99233398 384.26667969 166.07592773 384.32910156 C155.68283132 382.29900042 147.90021867 372.10450203 140.78442383 364.87744141 C138.77603853 362.83788059 136.75716718 360.80919783 134.73608398 358.78222656 C123.28177734 347.2581386 123.28177734 347.2581386 118.22802734 341.26806641 C115.92817121 338.57400945 113.49035763 336.12114028 110.89624023 333.70800781 C110.23624023 333.70800781 109.57624023 333.70800781 108.89624023 333.70800781 C107.29180813 335.92812937 105.80180068 338.14982412 104.33374023 340.45800781 C93.94979269 356.3985261 81.98500456 370.92606905 68.89624023 384.70800781 C67.71868164 385.949375 67.71868164 385.949375 66.51733398 387.21582031 C61.87991982 391.97767314 56.97084748 396.23777192 51.76733398 400.37207031 C49.4870347 402.22733422 47.30247084 404.12659178 45.11499023 406.08691406 C40.9495613 409.74790303 36.55029726 412.91864745 31.95874023 416.02050781 C31.13390137 416.5802832 30.3090625 417.14005859 29.45922852 417.71679688 C22.12766087 422.64192653 14.64188158 427.23572399 6.94067383 431.55810547 C5.60829524 432.30750876 4.28022829 433.06464631 2.95727539 433.83056641 C-10.70627944 441.7293195 -25.34090122 447.22059758 -40.10375977 452.70800781 C-40.89089355 453.00223633 -41.67802734 453.29646484 -42.48901367 453.59960938 C-58.85668237 459.63754888 -75.97506349 462.6852967 -93.10375977 465.70800781 C-93.10375977 319.51800781 -93.10375977 173.32800781 -93.10375977 22.70800781 C-79.73875977 21.71800781 -79.73875977 21.71800781 -66.10375977 20.70800781 C-59.21478919 19.54529275 -59.21478919 19.54529275 -52.36157227 18.19628906 C-47.01681524 17.39521637 -47.01681524 17.39521637 -44.10375977 18.70800781 C-42.05271135 21.11356342 -40.53953218 23.77963918 -38.97875977 26.52050781 C-38.51300537 27.31134766 -38.04725098 28.1021875 -37.56738281 28.91699219 C-36.05700239 31.50174089 -34.57694486 34.10189464 -33.10375977 36.70800781 C-32.58281738 37.62501465 -32.061875 38.54202148 -31.52514648 39.48681641 C-29.97804859 42.22134418 -28.44311012 44.96212774 -26.91625977 47.70800781 C-26.43463379 48.57401611 -25.95300781 49.44002441 -25.45678711 50.33227539 C-25.0167334 51.13689209 -24.57667969 51.94150879 -24.12329102 52.77050781 C-23.73246338 53.48335938 -23.34163574 54.19621094 -22.93896484 54.93066406 C-22.10375977 56.70800781 -22.10375977 56.70800781 -22.10375977 58.70800781 C-16.82375977 58.70800781 -11.54375977 58.70800781 -6.10375977 58.70800781 C-12.34428144 46.47708556 -18.85325541 34.48906963 -25.95019531 22.73095703 C-26.47782471 21.85455566 -27.0054541 20.9781543 -27.54907227 20.07519531 C-28.01845215 19.30288574 -28.48783203 18.53057617 -28.97143555 17.73486328 C-30.10375977 15.70800781 -30.10375977 15.70800781 -31.10375977 12.70800781 C-30.50950195 12.45631836 -29.91524414 12.20462891 -29.30297852 11.9453125 C-26.56878021 10.78551065 -23.83626772 9.62178624 -21.10375977 8.45800781 C-20.16918945 8.06226563 -19.23461914 7.66652344 -18.27172852 7.25878906 C-13.97625244 5.42645311 -9.7783833 3.56490719 -5.66625977 1.34863281 C-2.10375977 -0.29199219 -2.10375977 -0.29199219 0 0 Z " fill="#2C3440" transform="translate(696.103759765625,206.2919921875)"/>
<path d="M0 0 C2.05549145 0.00546607 4.11077402 -0.00003727 6.16625977 -0.00634766 C7.46241211 -0.00505859 8.75856445 -0.00376953 10.09399414 -0.00244141 C11.26921631 -0.00131348 12.44443848 -0.00018555 13.65527344 0.00097656 C16.33227539 0.13037109 16.33227539 0.13037109 17.33227539 1.13037109 C17.4293218 3.37061752 17.45414195 5.61399163 17.45252991 7.8563385 C17.45381154 8.9234273 17.45381154 8.9234273 17.45511907 10.01207346 C17.45677596 12.41359157 17.45124913 14.81504098 17.44580078 17.21655273 C17.44551893 18.93096414 17.44567661 20.64537566 17.44624329 22.35978699 C17.44653134 27.02901083 17.44063343 31.69820921 17.43366933 36.36742711 C17.427437 41.24148637 17.42683209 46.11554614 17.42564392 50.98960876 C17.42253025 60.22606539 17.41431637 69.46251024 17.40429443 78.69896168 C17.39313441 89.21147975 17.38762313 99.72399837 17.382599 110.23652089 C17.37213379 131.86781087 17.35453365 153.49909024 17.33227539 175.13037109 C16.61959377 175.13183765 15.90691216 175.13330421 15.17263412 175.13481522 C-2.16187715 175.17185354 -19.49617435 175.23082851 -36.83052444 175.31427383 C-45.21327286 175.3540973 -53.59592694 175.38647292 -61.97875977 175.40136719 C-69.28454446 175.41436664 -76.59012189 175.44128736 -83.89578986 175.48498416 C-87.7647782 175.50763769 -91.63351055 175.52327947 -95.50257111 175.52225494 C-99.14378292 175.5215106 -102.78442802 175.53936925 -106.42549324 175.57153893 C-108.39992975 175.58412879 -110.3744612 175.57695628 -112.34892273 175.56922913 C-113.5239888 175.58314194 -114.69905487 175.59705475 -115.909729 175.61138916 C-116.93107563 175.61507633 -117.95242226 175.6187635 -119.00471878 175.62256241 C-122.40001024 176.27001067 -123.59785777 177.40367554 -125.66772461 180.13037109 C-126.00025186 183.85467635 -126.14740831 187.63293688 -124.66772461 191.13037109 C-121.54435145 192.17149548 -119.34572271 192.26774985 -116.06794739 192.28858948 C-114.90267014 192.2983783 -113.73739288 192.30816711 -112.5368042 192.31825256 C-111.25718811 192.32400803 -109.97757202 192.32976349 -108.65917969 192.33569336 C-107.29914554 192.34527276 -105.93911436 192.35528288 -104.5790863 192.36569214 C-100.8851859 192.39274057 -97.19127272 192.41375046 -93.49732804 192.43369412 C-89.63757385 192.45555405 -85.77785903 192.48294271 -81.9181366 192.50975037 C-74.60840239 192.55967716 -67.29864633 192.60461604 -59.98886937 192.64777273 C-51.66728767 192.69714522 -43.34574548 192.75206331 -35.02420199 192.80745232 C-17.90541129 192.92127217 -0.78658439 193.02737909 16.33227539 193.13037109 C16.33227539 202.37037109 16.33227539 211.61037109 16.33227539 221.13037109 C12.20832275 221.13447998 8.08437012 221.13858887 3.83544922 221.14282227 C-9.77527694 221.16000347 -23.38580183 221.20422538 -36.99640942 221.26246166 C-45.25024051 221.29711504 -53.50390453 221.32246763 -61.7578125 221.32592773 C-68.95193491 221.32896717 -76.1457598 221.3494545 -83.33976728 221.39089566 C-87.14904339 221.41222967 -90.9578965 221.42482447 -94.76723289 221.41652489 C-98.35355619 221.40898688 -101.93902226 221.42479546 -105.52518845 221.45843124 C-107.46723459 221.47059227 -109.40938624 221.4580713 -111.35142517 221.44480896 C-118.22369898 221.3009473 -118.22369898 221.3009473 -123.96577454 224.52241516 C-125.83587869 227.38803931 -126.21073959 228.48624792 -125.66772461 231.81787109 C-125.56459961 232.58486328 -125.46147461 233.35185547 -125.35522461 234.14208984 C-124.76308998 236.50380819 -124.76308998 236.50380819 -121.66772461 238.13037109 C-119.03974239 238.44270072 -119.03974239 238.44270072 -116.02998352 238.40884399 C-114.85629211 238.42000748 -113.68260071 238.43117096 -112.4733429 238.44267273 C-111.18437607 238.44483292 -109.89540924 238.4469931 -108.56738281 238.44921875 C-107.19749356 238.45851606 -105.82760999 238.46868443 -104.45773315 238.47966003 C-100.73696714 238.50699651 -97.01623906 238.52212018 -93.29539895 238.53508806 C-89.4075969 238.55070269 -85.51987252 238.5774982 -81.63212585 238.6031189 C-74.26927533 238.64993629 -66.90641024 238.68666603 -59.54348677 238.71979177 C-51.16142477 238.75799228 -42.77944071 238.80740784 -34.39744437 238.85777593 C-17.15425504 238.96113983 0.08896659 239.04890508 17.33227539 239.13037109 C17.33227539 248.70037109 17.33227539 258.27037109 17.33227539 268.13037109 C13.03909302 268.15224487 13.03909302 268.15224487 8.65917969 268.17456055 C-0.78454777 268.2248391 -10.22810918 268.29142205 -19.67167377 268.36608601 C-25.3987774 268.41086311 -31.12580867 268.45010299 -36.85302734 268.47680664 C-42.37743514 268.50276642 -47.9015656 268.54311666 -53.42580223 268.59355736 C-55.53614039 268.61027575 -57.64652657 268.62175895 -59.75692177 268.627985 C-62.70706055 268.63757209 -65.65648179 268.66556643 -68.60644531 268.69799805 C-69.48397964 268.69656296 -70.36151398 268.69512787 -71.26564026 268.69364929 C-75.63429911 268.61639866 -75.63429911 268.61639866 -79.38858318 270.5227232 C-81.05561694 272.61788113 -81.10074624 273.91219619 -81.10522461 276.56787109 C-81.13422852 277.710625 -81.13422852 277.710625 -81.16381836 278.87646484 C-80.73704317 281.77915671 -80.73704317 281.77915671 -76.66772461 285.13037109 C-45.97772461 285.46037109 -15.28772461 285.79037109 16.33227539 286.13037109 C16.33227539 349.82037109 16.33227539 413.51037109 16.33227539 479.13037109 C-18.24491398 479.13037109 -18.24491398 479.13037109 -29.00610352 475.07275391 C-34.60823158 473.08924498 -40.34072072 471.48133263 -46.03546143 469.7855835 C-51.55385995 468.13815147 -57.06124858 466.45464128 -62.56793213 464.76855469 C-64.78337391 464.09522215 -67.0024462 463.43479971 -69.22192383 462.77490234 C-70.6922122 462.33113547 -72.16242936 461.88713257 -73.63256836 461.44287109 C-74.32379288 461.24048828 -75.0150174 461.03810547 -75.72718811 460.82958984 C-77.39293306 460.32144626 -79.03370338 459.73277524 -80.66772461 459.13037109 C-80.99772461 458.47037109 -81.32772461 457.81037109 -81.66772461 457.13037109 C-81.01483963 457.12672546 -80.36195465 457.12307983 -79.68928528 457.11932373 C-72.89194179 457.07750279 -66.09527378 457.00815953 -59.29833984 456.92285156 C-56.76195024 456.89463161 -54.22547253 456.87342224 -51.68896484 456.859375 C-48.04210261 456.83796066 -44.39630096 456.79131489 -40.74975586 456.73974609 C-39.61625198 456.73851746 -38.48274811 456.73728882 -37.31489563 456.73602295 C-31.14710014 456.65137253 -31.14710014 456.65137253 -25.53759766 454.34228516 C-21.87667813 450.01170272 -21.41425444 446.93021581 -21.39306641 441.25390625 C-21.38795547 440.57045639 -21.38284454 439.88700653 -21.37757874 439.18284607 C-21.36370316 436.92828562 -21.36463814 434.67403162 -21.36694336 432.41943359 C-21.36305487 430.84768562 -21.35871988 429.27593869 -21.35395813 427.70419312 C-21.34649998 424.41067091 -21.34678391 421.11725591 -21.35205078 417.82373047 C-21.35784025 413.61153661 -21.34092539 409.3997832 -21.31770611 405.18766212 C-21.30294339 401.94134981 -21.30210059 398.69514289 -21.30521584 395.44880295 C-21.30470374 393.89632674 -21.29948708 392.34384446 -21.28940392 390.79140091 C-21.27700923 388.61585502 -21.28384877 386.44115822 -21.29541016 384.265625 C-21.29478073 383.02970612 -21.29415131 381.79378723 -21.29350281 380.52041626 C-21.77751487 376.13578999 -22.82049764 372.61773952 -26.35064697 369.77529907 C-29.79576301 368.81639649 -33.19276087 368.82158578 -36.7409668 368.81152344 C-37.55109726 368.80147781 -38.36122772 368.79143219 -39.19590759 368.78108215 C-41.86879784 368.75023643 -44.54158785 368.7332112 -47.21459961 368.71630859 C-49.06977196 368.69759806 -50.9249358 368.67802473 -52.78009033 368.65762329 C-57.6593524 368.60628398 -62.53864207 368.56666785 -67.41802979 368.52947998 C-72.39846636 368.48945165 -77.37878795 368.43835395 -82.35913086 368.38818359 C-92.12858136 368.29140299 -101.89809676 368.20700498 -111.66772461 368.13037109 C-111.81412063 363.65155365 -111.90216732 359.17335953 -111.98022461 354.69287109 C-112.02211914 353.4328125 -112.06401367 352.17275391 -112.10717773 350.87451172 C-112.21118025 342.90791904 -111.39345587 337.61111103 -106.66772461 331.13037109 C-106.09022461 330.24349609 -105.51272461 329.35662109 -104.91772461 328.44287109 C-97.98586422 321.31845903 -90.56760534 318.24335266 -80.79272461 317.75537109 C-71.80772856 317.97586179 -64.23649101 322.21242717 -57.66772461 328.13037109 C-55.16772461 331.00537109 -55.16772461 331.00537109 -53.66772461 333.13037109 C-48.26282942 331.61024432 -44.68279833 327.85651891 -40.66772461 324.13037109 C-43.46977884 315.91197492 -50.06690167 310.65584528 -57.60522461 306.75537109 C-59.61040596 305.84507439 -61.63096009 304.96761817 -63.66772461 304.13037109 C-64.49143555 303.79005859 -65.31514648 303.44974609 -66.16381836 303.09912109 C-78.73084599 298.64185021 -91.25995834 300.99330956 -103.16381836 306.22802734 C-115.29433373 312.42993728 -123.49937857 322.4793892 -127.74365234 335.40771484 C-128.66155176 339.10550357 -128.98041671 342.35632504 -129.08178711 346.15771484 C-129.12045898 347.44355469 -129.15913086 348.72939453 -129.19897461 350.05419922 C-129.2304196 351.39208528 -129.2616672 352.72997598 -129.29272461 354.06787109 C-129.33096803 355.43312866 -129.37002331 356.79836374 -129.40991211 358.16357422 C-129.50382398 361.48570649 -129.58950248 364.8078385 -129.66772461 368.13037109 C-130.59584961 368.54287109 -131.52397461 368.95537109 -132.48022461 369.38037109 C-135.7140092 371.15578224 -136.8589967 372.00831536 -138.66772461 375.13037109 C-139.13919881 378.15665852 -139.13919881 378.15665852 -139.10009766 381.55126953 C-139.12978889 383.50283966 -139.12978889 383.50283966 -139.16007996 385.49383545 C-139.16684927 386.90913753 -139.17329619 388.32444118 -139.17944336 389.73974609 C-139.19629296 391.19136067 -139.21444359 392.64296069 -139.23384094 394.09454346 C-139.28131702 397.90850269 -139.31114156 401.72240286 -139.33728027 405.53656006 C-139.36709807 409.4312303 -139.41362415 413.32569709 -139.45874023 417.22021484 C-139.54474601 424.8568326 -139.61210309 432.49346518 -139.66772461 440.13037109 C-145.08250203 438.99117225 -150.36326072 437.69810699 -155.63647461 436.00146484 C-156.86624023 435.60636719 -158.09600586 435.21126953 -159.36303711 434.80419922 C-160.29937988 434.49977905 -160.29937988 434.49977905 -161.25463867 434.18920898 C-163.19009239 433.56060642 -165.12793981 432.93983123 -167.06616211 432.31982422 C-176.53666245 429.26143325 -176.53666245 429.26143325 -177.66772461 428.13037109 C-177.76012661 426.42994754 -177.78146985 424.72563701 -177.77566338 423.02271461 C-177.77435413 421.90875427 -177.77304489 420.79479392 -177.77169597 419.6470772 C-177.76517076 418.40774003 -177.75864555 417.16840286 -177.75192261 415.89151001 C-177.74758074 413.8847444 -177.74323975 411.87797878 -177.73892761 409.8712131 C-177.733253 407.68243309 -177.72510003 405.49367437 -177.71626472 403.30490494 C-177.69746559 398.62257003 -177.68559038 393.9402332 -177.67494202 389.25787354 C-177.66322362 384.21460656 -177.6511591 379.17134228 -177.63697314 374.12808156 C-177.60209686 361.58964272 -177.58602416 349.05127165 -177.58132935 336.51278687 C-177.58095951 335.60572316 -177.58058968 334.69865945 -177.58020864 333.76410897 C-177.57723226 326.28867858 -177.57505604 318.813248 -177.57330784 311.33781722 C-177.57172056 304.59532823 -177.56945121 297.85283995 -177.56616211 291.11035156 C-177.56570181 290.14904026 -177.56524151 289.18772896 -177.56476726 288.19728701 C-177.55624748 272.68285999 -177.51192844 257.16872461 -177.45498477 241.65440889 C-177.3973481 225.70177806 -177.38210501 209.74948804 -177.40438855 193.79676759 C-177.41673575 183.97465693 -177.39656423 174.15375758 -177.33309241 164.33183937 C-177.29253316 157.57311902 -177.2933422 150.81514686 -177.32489245 144.05638273 C-177.3418362 140.1718248 -177.34217408 136.28942024 -177.29254723 132.40509415 C-177.05373462 112.5916233 -179.75525808 97.35481078 -188.79250634 79.65614069 C-189.82986991 76.66244019 -189.64679533 75.11563105 -188.66772461 72.13037109 C-185.71431443 68.72890082 -182.14547431 65.98367556 -178.66772461 63.13037109 C-177.71510742 62.34404297 -176.76249023 61.55771484 -175.78100586 60.74755859 C-162.51582826 50.18297413 -148.05074204 41.2572503 -132.66772461 34.13037109 C-127.61546208 38.12062741 -122.65588108 42.14420199 -117.99584961 46.58740234 C-117.3804834 47.17368408 -116.76511719 47.75996582 -116.13110352 48.36401367 C-114.92192849 49.5258173 -113.72078961 50.69605328 -112.52856445 51.87524414 C-111.68865967 52.68215698 -111.68865967 52.68215698 -110.83178711 53.50537109 C-110.34145996 53.98748047 -109.85113281 54.46958984 -109.34594727 54.96630859 C-107.0718513 56.54368561 -105.42929311 56.90901148 -102.66772461 57.13037109 C-99.76358368 56.42730511 -99.76358368 56.42730511 -96.76538086 55.18115234 C-95.63382568 54.74665771 -94.50227051 54.31216309 -93.33642578 53.86450195 C-92.14637939 53.39536377 -90.95633301 52.92622559 -89.73022461 52.44287109 C-78.52922001 48.15560797 -67.57093097 43.97651093 -55.66772461 42.13037109 C-55.56226318 41.43588867 -55.45680176 40.74140625 -55.34814453 40.02587891 C-54.85633762 36.80978728 -54.35582036 33.59510596 -53.85522461 30.38037109 C-53.68958008 29.28853516 -53.52393555 28.19669922 -53.35327148 27.07177734 C-52.18738454 19.63649837 -50.61804444 12.39907255 -48.66772461 5.13037109 C-45.08601798 4.47530299 -41.50211125 3.83309837 -37.91772461 3.19287109 C-36.9212793 3.01046875 -35.92483398 2.82806641 -34.89819336 2.64013672 C-23.24548062 0.57271994 -11.82896405 -0.03758439 0 0 Z " fill="#C0CED5" transform="translate(563.667724609375,92.86962890625)"/>
<path d="M0 0 C0.33 0 0.66 0 1 0 C1 101.64 1 203.28 1 308 C4.3 308.66 7.6 309.32 11 310 C13.47130412 310.70608689 15.93092978 311.45474939 18.375 312.25 C19.76656692 312.69643671 21.1585125 313.14169437 22.55078125 313.5859375 C23.27475098 313.81764648 23.9987207 314.04935547 24.74462891 314.28808594 C28.6707853 315.52738796 32.61697324 316.69913176 36.5625 317.875 C50.2519364 321.96586656 63.93589286 326.07885409 77.5625 330.375 C84.57149908 332.57844956 91.60821732 334.68379364 98.64846802 336.7850647 C109.22698674 339.94243412 119.77879731 343.16414511 130.28881836 346.54418945 C137.04966608 348.71359739 143.83948626 350.77092099 150.64575195 352.79272461 C157.33709517 354.78573399 163.9969646 356.8704547 170.6472168 358.99633789 C171.37851807 359.22957764 172.10981934 359.46281738 172.86328125 359.703125 C173.49532471 359.90583008 174.12736816 360.10853516 174.77856445 360.31738281 C189.60749506 364.87411322 193.22993776 363.30766459 214 364 C214 394.03 214 424.06 214 455 C203.87104995 456.35052667 194.49039051 457.35519786 184.375 457.3125 C182.44406494 457.31056641 182.44406494 457.31056641 180.47412109 457.30859375 C169.45688144 457.19901036 158.82054643 456.00645894 148 454 C145 442 142 430 139 418 C138.40276123 417.8548999 137.80552246 417.7097998 137.19018555 417.56030273 C125.50817545 414.6931338 114.09879666 411.63982317 102.94213867 407.09741211 C98.01543271 405.08857173 98.01543271 405.08857173 93 406 C90.3817562 408.29118216 90.3817562 408.29118216 87.75 411.125 C86.77544749 412.13215714 85.79887463 413.13736319 84.8203125 414.140625 C84.34239258 414.63111328 83.86447266 415.12160156 83.37207031 415.62695312 C80.94408827 418.05666326 78.33688313 420.26711626 75.7265625 422.49609375 C73.36285001 424.55498359 71.18150266 426.75032538 69 429 C47.70109322 422.80521992 28.12028953 407.67203333 11 394 C11.55582908 391.66489683 12.11803063 389.33179334 12.6875 387 C12.94889771 385.92915161 12.94889771 385.92915161 13.21557617 384.83666992 C14.69982796 378.90031235 16.48586565 373.09204287 18.51245117 367.31835938 C19.78585679 363.50552029 20.44862381 360.81319362 19 357 C17.35359136 354.8713947 17.35359136 354.8713947 15.25 353 C14.52167969 352.30777344 13.79335938 351.61554688 13.04296875 350.90234375 C12.36878906 350.27457031 11.69460938 349.64679688 11 349 C9.33333333 347.33333333 7.66666667 345.66666667 6 344 C5.28585937 343.29746094 4.57171875 342.59492187 3.8359375 341.87109375 C-4.4031007 333.72598595 -4.4031007 333.72598595 -7 330 C-7 329.34 -7 328.68 -7 328 C-8.04454346 328.33322266 -9.08908691 328.66644531 -10.1652832 329.00976562 C-14.0384213 330.24409433 -17.91333746 331.47275596 -21.78881836 332.69970703 C-23.46639318 333.23168829 -25.14348082 333.76520836 -26.82006836 334.30029297 C-29.22904275 335.06882638 -31.63971082 335.83182176 -34.05078125 336.59375 C-34.80087967 336.83436157 -35.55097809 337.07497314 -36.32380676 337.32287598 C-39.32537082 338.26652983 -41.8333449 339 -45 339 C-46.67659616 336.88656594 -48.12102326 334.83032965 -49.5625 332.5625 C-49.99796143 331.89162354 -50.43342285 331.22074707 -50.88208008 330.52954102 C-58.66633655 318.42209489 -65.88864243 306.04064936 -72 293 C-72.53109375 291.87980469 -73.0621875 290.75960938 -73.609375 289.60546875 C-74.32867187 288.00638672 -74.32867187 288.00638672 -75.0625 286.375 C-75.48660156 285.43398438 -75.91070312 284.49296875 -76.34765625 283.5234375 C-77 281 -77 281 -76.22680664 279.02905273 C-74.9913524 276.98569748 -73.78149237 275.61576176 -72.0234375 274.01171875 C-71.43852539 273.47329346 -70.85361328 272.93486816 -70.25097656 272.38012695 C-69.6319043 271.82156006 -69.01283203 271.26299316 -68.375 270.6875 C-67.74561523 270.11153076 -67.11623047 269.53556152 -66.46777344 268.94213867 C-62.509991 265.33114597 -58.5179081 261.75994283 -54.453125 258.26953125 C-53.25939375 257.22662089 -52.12086045 256.12086045 -51 255 C-51.84648462 249.83644382 -53.29936924 244.98324491 -54.875 240 C-56.54361068 234.68679232 -57.96330815 229.35295552 -59.25 223.9375 C-59.42515137 223.21111328 -59.60030273 222.48472656 -59.78076172 221.73632812 C-60.56476635 218.36660834 -61 215.48220953 -61 212 C-62.51509155 212.04737305 -62.51509155 212.04737305 -64.06079102 212.09570312 C-67.97179369 212.00068527 -71.23915125 211.41158902 -75.02734375 210.46875 C-75.97801476 210.23569153 -75.97801476 210.23569153 -76.94789124 209.9979248 C-78.94638676 209.50616789 -80.94188565 209.00330692 -82.9375 208.5 C-84.30255084 208.16201827 -85.66778394 207.82477181 -87.03320312 207.48828125 C-90.35733079 206.66605886 -93.67942186 205.83642087 -97 205 C-100.50872009 194.23992507 -100.1988453 183.14776164 -100.1875 171.9375 C-100.1882251 171.20854523 -100.1889502 170.47959045 -100.18969727 169.72854614 C-100.18852096 159.03929844 -99.80562715 148.55969448 -98 138 C-91.51133502 134.83155833 -84.77639497 133.41832517 -77.75 131.875 C-75.41119979 131.35271891 -73.0726458 130.82933368 -70.734375 130.3046875 C-69.70538086 130.07765137 -68.67638672 129.85061523 -67.61621094 129.61669922 C-64.91200952 129.02074303 -64.91200952 129.02074303 -62 128 C-61.09792164 125.78248633 -61.09792164 125.78248633 -60.5703125 123.03125 C-60.3345752 121.99218506 -60.09883789 120.95312012 -59.85595703 119.88256836 C-59.61474121 118.7663208 -59.37352539 117.65007324 -59.125 116.5 C-58.60765121 114.21925887 -58.08679787 111.93930995 -57.5625 109.66015625 C-57.30339844 108.5323877 -57.04429687 107.40461914 -56.77734375 106.24267578 C-55.14001189 99.41257472 -53.08428411 92.70475465 -51 86 C-55.22353338 81.68847635 -59.44666334 77.40330935 -64 73.4375 C-64.63808594 72.87933594 -65.27617187 72.32117188 -65.93359375 71.74609375 C-67.43870089 70.47429244 -68.9776813 69.24225933 -70.53515625 68.03515625 C-71.36917969 67.36355469 -72.20320313 66.69195312 -73.0625 66 C-73.83722656 65.401875 -74.61195313 64.80375 -75.41015625 64.1875 C-77 62 -77 62 -77.046875 58.94921875 C-75.91603358 53.62386796 -73.47430185 48.72007803 -71.1875 43.8125 C-70.4591394 42.23650024 -70.4591394 42.23650024 -69.71606445 40.62866211 C-63.30024485 27.03769974 -55.38914852 14.44289113 -47 2 C-35.79153025 2.80060498 -24.69923402 5.87788792 -14.11328125 9.58203125 C-11.37394097 10.12382314 -9.64559561 9.89602034 -7 9 C-5.16373134 7.22086149 -5.16373134 7.22086149 -3.75 5 C-2.99976563 3.9171875 -2.99976563 3.9171875 -2.234375 2.8125 C-1.82703125 2.214375 -1.4196875 1.61625 -1 1 C-0.67 0.67 -0.34 0.34 0 0 Z " fill="#BFCED5" transform="translate(366,227)"/>
<path d="M0 0 C1.74023438 -0.01836914 1.74023438 -0.01836914 3.515625 -0.03710938 C14.58733468 -0.05568607 24.8125811 1.32514122 35.1875 5.25 C36.39998413 5.70681152 36.39998413 5.70681152 37.63696289 6.17285156 C51.06282847 11.43271425 61.78192526 18.97498059 71.875 29.1875 C72.60203125 29.90421875 73.3290625 30.6209375 74.078125 31.359375 C90.24537997 48.29043729 97.325313 70.21666533 97.3125 93.1875 C97.31290283 93.92426971 97.31330566 94.66103943 97.3137207 95.4201355 C97.27801038 106.73676801 96.49083256 116.74585935 91.875 127.1875 C91.58560547 127.85974609 91.29621094 128.53199219 90.99804688 129.22460938 C80.48680964 153.25985885 62.09398973 171.53095488 38.05859375 181.9453125 C13.0545353 191.70149727 -14.19521112 192.65204219 -39.125 182.25 C-40.46782586 181.58123043 -41.80112994 180.89305091 -43.125 180.1875 C-43.95515625 179.78144531 -44.7853125 179.37539063 -45.640625 178.95703125 C-63.43512111 169.88183824 -75.22200074 156.54199889 -86.125 140.1875 C-86.34549128 137.37741479 -86.44982142 134.66390084 -86.46313477 131.8515625 C-86.47467087 131.00072586 -86.48620697 130.14988922 -86.49809265 129.27326965 C-86.53245046 126.45299447 -86.55091752 123.63293877 -86.56640625 120.8125 C-86.57676061 119.36437424 -86.57676061 119.36437424 -86.58732414 117.88699341 C-86.62319018 112.77150302 -86.64670861 107.65612325 -86.66040039 102.54052734 C-86.67689807 97.27574384 -86.73523953 92.0123155 -86.80354404 86.74798584 C-86.84851212 82.68480444 -86.86190877 78.62194155 -86.86701775 74.55853271 C-86.87487648 72.61936124 -86.89441461 70.68019818 -86.92624092 68.74127197 C-87.09972724 57.41942377 -86.97143658 49.12984498 -79.125 40.1875 C-78.34253906 39.20394531 -77.56007813 38.22039062 -76.75390625 37.20703125 C-74.55406736 34.85748688 -72.34972231 32.51352315 -70.125 30.1875 C-69.52300781 29.51074219 -68.92101562 28.83398438 -68.30078125 28.13671875 C-51.0592453 9.4739716 -24.8396647 0.01352923 0 0 Z " fill="#2B333F" transform="translate(689.125,304.8125)"/>
<path d="M0 0 C12.73049145 4.7532413 25.01678156 28.95523672 32.64624023 39.94140625 C33.98917156 41.83934591 35.37820396 43.69815352 36.77124023 45.55957031 C37.70971115 46.85834847 38.64723592 48.1578109 39.58374023 49.45800781 C40.03064209 50.03566895 40.47754395 50.61333008 40.93798828 51.20849609 C44.64880048 56.48249815 43.92301192 60.56215136 42.89624023 66.70800781 C42.70486178 68.49051485 42.52648592 70.27446548 42.36108398 72.05957031 C41.87280273 76.94238281 41.38452148 81.82519531 40.89624023 86.70800781 C41.75217773 86.96710938 42.60811523 87.22621094 43.48999023 87.49316406 C68.67009407 96.47368275 89.37170298 119.18738922 100.89624023 142.70800781 C108.66401766 159.57357252 112.52038756 176.4248473 111.70874023 195.02050781 C111.65468018 196.3036084 111.60062012 197.58670898 111.54492188 198.90869141 C110.12917538 227.88270748 98.29278484 251.56074087 78.89624023 272.70800781 C78.0087207 273.71927734 78.0087207 273.71927734 77.10327148 274.75097656 C63.20692852 289.79046342 44.01611303 298.56717226 24.89624023 304.70800781 C23.91268555 305.03800781 22.92913086 305.36800781 21.91577148 305.70800781 C3.03792993 311.79574586 -23.3292718 311.20842193 -42.10375977 304.70800781 C-43.04396973 304.38654785 -43.04396973 304.38654785 -44.00317383 304.05859375 C-58.74558624 298.90961697 -71.98444449 291.52320177 -84.10375977 281.70800781 C-84.86172852 281.1034375 -85.61969727 280.49886719 -86.40063477 279.87597656 C-88.01884023 278.54581167 -89.57123272 277.13604438 -91.10375977 275.70800781 C-91.10375977 275.04800781 -91.10375977 274.38800781 -91.10375977 273.70800781 C-91.76375977 273.70800781 -92.42375977 273.70800781 -93.10375977 273.70800781 C-93.10375977 262.15800781 -93.10375977 250.60800781 -93.10375977 238.70800781 C-90.49205081 241.31971676 -88.58199284 243.76279797 -86.47875977 246.77050781 C-73.34924375 264.88923991 -56.53347188 277.10494753 -35.10375977 283.70800781 C-34.14727539 284.02898437 -33.19079102 284.34996094 -32.20532227 284.68066406 C-16.54465983 289.19412576 2.34906163 288.14751179 17.89624023 283.70800781 C19.76795898 283.18013672 19.76795898 283.18013672 21.67749023 282.64160156 C46.16291154 275.30622792 66.37611632 258.88227196 78.89624023 236.70800781 C81.26559511 232.19100634 83.2659188 227.53949921 84.89624023 222.70800781 C85.40815918 221.23666382 85.40815918 221.23666382 85.93041992 219.7355957 C88.65954534 211.20556258 89.52487257 203.2504147 89.41772461 194.37670898 C89.3962797 192.27437654 89.41765443 190.17547212 89.44311523 188.07324219 C89.47036111 175.58060032 87.15621237 163.71522049 81.20874023 152.58300781 C80.86625244 151.92469971 80.52376465 151.2663916 80.17089844 150.58813477 C66.60674842 125.14423155 45.81469121 109.90732913 18.61499023 101.61816406 C-7.18590694 95.30344868 -33.48900228 100.08754232 -56.32641602 112.99707031 C-70.66427119 121.82967308 -81.85870334 132.67487473 -90.45922852 147.06738281 C-91.00192383 147.93878906 -91.54461914 148.81019531 -92.10375977 149.70800781 C-92.43375977 149.70800781 -92.76375977 149.70800781 -93.10375977 149.70800781 C-93.10375977 107.79800781 -93.10375977 65.88800781 -93.10375977 22.70800781 C-79.73875977 21.71800781 -79.73875977 21.71800781 -66.10375977 20.70800781 C-59.21478919 19.54529275 -59.21478919 19.54529275 -52.36157227 18.19628906 C-47.01681524 17.39521637 -47.01681524 17.39521637 -44.10375977 18.70800781 C-42.05271135 21.11356342 -40.53953218 23.77963918 -38.97875977 26.52050781 C-38.51300537 27.31134766 -38.04725098 28.1021875 -37.56738281 28.91699219 C-36.05700239 31.50174089 -34.57694486 34.10189464 -33.10375977 36.70800781 C-32.58281738 37.62501465 -32.061875 38.54202148 -31.52514648 39.48681641 C-29.97804859 42.22134418 -28.44311012 44.96212774 -26.91625977 47.70800781 C-26.43463379 48.57401611 -25.95300781 49.44002441 -25.45678711 50.33227539 C-25.0167334 51.13689209 -24.57667969 51.94150879 -24.12329102 52.77050781 C-23.73246338 53.48335938 -23.34163574 54.19621094 -22.93896484 54.93066406 C-22.10375977 56.70800781 -22.10375977 56.70800781 -22.10375977 58.70800781 C-16.82375977 58.70800781 -11.54375977 58.70800781 -6.10375977 58.70800781 C-12.34428144 46.47708556 -18.85325541 34.48906963 -25.95019531 22.73095703 C-26.47782471 21.85455566 -27.0054541 20.9781543 -27.54907227 20.07519531 C-28.01845215 19.30288574 -28.48783203 18.53057617 -28.97143555 17.73486328 C-30.10375977 15.70800781 -30.10375977 15.70800781 -31.10375977 12.70800781 C-30.50950195 12.45631836 -29.91524414 12.20462891 -29.30297852 11.9453125 C-26.56878021 10.78551065 -23.83626772 9.62178624 -21.10375977 8.45800781 C-20.16918945 8.06226563 -19.23461914 7.66652344 -18.27172852 7.25878906 C-13.97625244 5.42645311 -9.7783833 3.56490719 -5.66625977 1.34863281 C-2.10375977 -0.29199219 -2.10375977 -0.29199219 0 0 Z " fill="#517089" transform="translate(696.103759765625,206.2919921875)"/>
<path d="M0 0 C8.25 0 16.5 0 25 0 C33.37078652 10.32397004 33.37078652 10.32397004 35.6796875 15.31640625 C38.90582489 21.94725316 42.63247238 28.1396571 46.51760864 34.39520264 C47.98123016 36.76405351 49.41803271 39.1486202 50.85481262 41.53381348 C55.31289286 48.93199773 59.89824632 56.24581138 64.59814453 63.49291992 C68 68.78905903 68 68.78905903 68 71 C68.66 71 69.32 71 70 71 C70.39239868 69.94341187 70.39239868 69.94341187 70.79272461 68.86547852 C72.08772408 65.79178613 73.62721936 63.02834092 75.31640625 60.15234375 C75.64492584 59.59138504 75.97344543 59.03042633 76.31192017 58.45246887 C77.39163315 56.61187365 78.476764 54.77454787 79.5625 52.9375 C80.32010879 51.65073995 81.07767653 50.36395573 81.83520508 49.07714844 C87.22759132 39.93297453 92.68603654 30.82891197 98.1875 21.75 C98.71405685 20.87950516 98.71405685 20.87950516 99.25125122 19.99142456 C100.26275405 18.32095061 101.27781429 16.65263236 102.29296875 14.984375 C102.8655542 14.04303711 103.43813965 13.10169922 104.02807617 12.13183594 C104.67881104 11.09833008 105.3295459 10.06482422 106 9 C106.52095481 7.88386511 106.52095481 7.88386511 107.05243397 6.74518204 C108.47520494 4.0417707 109.75818722 2.08955516 112 0 C116.33454096 -1.11831408 120.43500742 -0.85565978 124.875 -0.5625 C126.0403125 -0.52189453 127.205625 -0.48128906 128.40625 -0.43945312 C131.27511602 -0.3336343 134.13539942 -0.18599238 137 0 C137.02332961 15.23763064 137.04097948 30.47526046 137.05181217 45.71290493 C137.056975 52.78753187 137.06401744 59.86214774 137.07543945 66.93676758 C137.08644681 73.75778878 137.09227618 80.57879844 137.09487724 87.39982796 C137.09673205 90.00866948 137.1003537 92.61751033 137.10573006 95.22634697 C137.11293643 98.86632552 137.11399111 102.50625575 137.11352539 106.14624023 C137.11712067 107.23668137 137.12071594 108.3271225 137.12442017 109.4506073 C137.1230455 110.43643799 137.12167084 111.42226868 137.12025452 112.43797302 C137.12163721 113.73078768 137.12163721 113.73078768 137.12304783 115.04971981 C137 117 137 117 136 118 C127.42 118 118.84 118 110 118 C109.67 94.9 109.34 71.8 109 48 C95.25840889 70.60505514 95.25840889 70.60505514 81.67773438 93.3046875 C81.08412109 94.29984375 80.49050781 95.295 79.87890625 96.3203125 C79.3691626 97.17898926 78.85941895 98.03766602 78.33422852 98.92236328 C77 101 77 101 75 103 C72.20703125 103.546875 72.20703125 103.546875 68.8125 103.75 C67.70519531 103.84796875 66.59789062 103.9459375 65.45703125 104.046875 C59.82945887 102.34270619 57.9407137 97.86040713 55 93 C54.38165283 92.01999023 53.76330566 91.03998047 53.1262207 90.03027344 C51.14066277 86.86931159 49.19184068 83.68798253 47.25 80.5 C46.610625 79.45585938 45.97125 78.41171875 45.3125 77.3359375 C43.20503642 73.8926407 41.10265789 70.44623351 39 67 C35.37 61.06 31.74 55.12 28 49 C27.67 71.44 27.34 93.88 27 117 C18.09 117 9.18 117 0 117 C0 78.39 0 39.78 0 0 Z " fill="#303741" transform="translate(188,726)"/>
<path d="M0 0 C26 0 26 0 32.9375 6.1875 C34.52246094 8.265625 34.52246094 8.265625 35.546875 10.0625 C37.91579239 13.96110479 40.67419553 17.27538342 43.6875 20.6875 C44.60354199 21.76414362 45.51637328 22.84352826 46.42578125 23.92578125 C46.86100098 24.44350098 47.2962207 24.9612207 47.74462891 25.49462891 C49.64277823 27.77078385 51.50827589 30.07304695 53.375 32.375 C57.53665165 37.49129575 61.85182987 42.46239308 66.18505859 47.43286133 C70.2562152 52.11343305 74.22198616 56.86208508 78.12109375 61.6875 C79.73687692 63.67615621 81.38867789 65.62291783 83.0625 67.5625 C85 70 85 70 85 72 C85.66 72 86.32 72 87 72 C87 48.24 87 24.48 87 0 C95.91 0 104.82 0 114 0 C114 38.94 114 77.88 114 118 C90 118 90 118 83.5625 112.6875 C81.98505581 110.49802795 80.46126233 108.26866271 79 106 C77.54235771 104.1907785 76.063612 102.39832068 74.5625 100.625 C73.84191406 99.73039063 73.12132812 98.83578125 72.37890625 97.9140625 C69.64094847 94.56017662 66.82780112 91.27810205 64 88 C59.6803791 82.98709824 55.44901915 77.91461491 51.27734375 72.77734375 C47.89350846 68.65057378 44.43119372 64.59214078 40.96875 60.53125 C36.9305692 55.7279402 32.97372174 50.85677102 29 46 C28.67 69.76 28.34 93.52 28 118 C18.76 118 9.52 118 0 118 C0 79.06 0 40.12 0 0 Z " fill="#303741" transform="translate(679,726)"/>
<path d="M0 0 C9.9 0 19.8 0 30 0 C38.85975481 19.44734561 47.6752308 38.91283145 56.3984375 58.421875 C58.03327981 62.07435196 59.67215433 65.72499274 61.3125 69.375 C66.67898945 81.31867827 72.02521819 93.27102917 77.3125 105.25 C77.78703613 106.32217773 78.26157227 107.39435547 78.75048828 108.49902344 C79.17958496 109.47387695 79.60868164 110.44873047 80.05078125 111.453125 C80.42887939 112.31067383 80.80697754 113.16822266 81.1965332 114.05175781 C82 116 82 116 82 117 C72.43 117 62.86 117 53 117 C51.35 113.24625 49.7 109.4925 48 105.625 C47.47792969 104.44244629 46.95585938 103.25989258 46.41796875 102.04150391 C45.80888672 100.64810791 45.80888672 100.64810791 45.1875 99.2265625 C44.76855469 98.27346191 44.34960938 97.32036133 43.91796875 96.33837891 C43 94 43 94 43 92 C24.52 92.33 6.04 92.66 -13 93 C-16.3 100.92 -19.6 108.84 -23 117 C-32.24 117 -41.48 117 -51 117 C-50.21966612 113.0983306 -49.46554274 110.46778961 -47.875 106.94140625 C-47.42479492 105.93601807 -46.97458984 104.93062988 -46.51074219 103.89477539 C-46.01219727 102.79512451 -45.51365234 101.69547363 -45 100.5625 C-44.18868953 98.75516326 -43.37738762 96.94782266 -42.56634521 95.1403656 C-41.67812766 93.16310339 -40.78753169 91.18692596 -39.89648438 89.2109375 C-36.8571906 82.46767753 -33.84201209 75.71360526 -30.82287598 68.96130371 C-29.74547514 66.55238304 -28.66727711 64.14382064 -27.58886719 61.73535156 C-21.789044 48.78008387 -16.01921954 35.81160867 -10.26464844 22.83618164 C-9.94798218 22.12262512 -9.63131592 21.4090686 -9.30505371 20.67388916 C-8.72690269 19.37106199 -8.14913467 18.06806472 -7.57189941 16.76483154 C-5.08399061 11.15939991 -2.53814083 5.58390983 0 0 Z " fill="#2F3540" transform="translate(869,726)"/>
<path d="M0 0 C9.9 0 19.8 0 30 0 C31.588125 3.58875 33.17625 7.1775 34.8125 10.875 C40.27761253 23.19195355 45.81689787 35.47477989 51.375 47.75 C51.78162872 48.64811401 52.18825745 49.54622803 52.60720825 50.47155762 C55.02638524 55.81423864 57.44650399 61.15649271 59.86682129 66.49865723 C82 115.35473446 82 115.35473446 82 117 C72.43 117 62.86 117 53 117 C51.35 113.24625 49.7 109.4925 48 105.625 C47.47792969 104.44244629 46.95585938 103.25989258 46.41796875 102.04150391 C45.80888672 100.64810791 45.80888672 100.64810791 45.1875 99.2265625 C44.76855469 98.27346191 44.34960938 97.32036133 43.91796875 96.33837891 C43 94 43 94 43 92 C24.52 92.33 6.04 92.66 -13 93 C-18.33666331 104.87200084 -18.33666331 104.87200084 -23 117 C-32.24 117 -41.48 117 -51 117 C-49.87507418 110.2504451 -49.87507418 110.2504451 -48.41210938 107.06640625 C-47.92295547 105.98755913 -47.92295547 105.98755913 -47.42391968 104.88691711 C-47.06746368 104.11985947 -46.71100769 103.35280182 -46.34375 102.5625 C-45.96964996 101.74206711 -45.59554993 100.92163422 -45.21011353 100.07633972 C-43.97975085 97.38127535 -42.73975315 94.69075578 -41.5 92 C-40.19799294 89.15273648 -38.89858286 86.30429615 -37.59915161 83.45585632 C-36.71106207 81.50976043 -35.82211742 79.56405455 -34.93234253 77.61872864 C-30.60967809 68.16544955 -26.36031422 58.68015805 -22.125 49.1875 C-21.42718517 47.62528003 -20.7292693 46.06310519 -20.03125 44.50097656 C-18.67840485 41.47328113 -17.32589753 38.44543518 -15.97363281 35.41748047 C-13.10725297 29.00043677 -10.23528418 22.58589805 -7.36126709 16.17227173 C-6.52188758 14.29885113 -5.68305196 12.42518767 -4.84423828 10.55151367 C-4.34907715 9.44654541 -3.85391602 8.34157715 -3.34375 7.203125 C-2.91255859 6.24051758 -2.48136719 5.27791016 -2.03710938 4.28613281 C-1.38359439 2.84556917 -0.70743275 1.41486549 0 0 Z " fill="#2E3540" transform="translate(574,726)"/>
<path d="M0 0 C1.74023438 -0.01836914 1.74023438 -0.01836914 3.515625 -0.03710938 C14.58733468 -0.05568607 24.8125811 1.32514122 35.1875 5.25 C36.39998413 5.70681152 36.39998413 5.70681152 37.63696289 6.17285156 C51.06282847 11.43271425 61.78192526 18.97498059 71.875 29.1875 C72.60203125 29.90421875 73.3290625 30.6209375 74.078125 31.359375 C90.24537997 48.29043729 97.325313 70.21666533 97.3125 93.1875 C97.31290283 93.92426971 97.31330566 94.66103943 97.3137207 95.4201355 C97.27801038 106.73676801 96.49083256 116.74585935 91.875 127.1875 C91.58560547 127.85974609 91.29621094 128.53199219 90.99804688 129.22460938 C80.48680964 153.25985885 62.09398973 171.53095488 38.05859375 181.9453125 C13.0545353 191.70149727 -14.19521112 192.65204219 -39.125 182.25 C-40.46782586 181.58123043 -41.80112994 180.89305091 -43.125 180.1875 C-43.95515625 179.78144531 -44.7853125 179.37539063 -45.640625 178.95703125 C-63.43512111 169.88183824 -75.22200074 156.54199889 -86.125 140.1875 C-86.34549128 137.37741479 -86.44982142 134.66390084 -86.46313477 131.8515625 C-86.47467087 131.00072586 -86.48620697 130.14988922 -86.49809265 129.27326965 C-86.53245046 126.45299447 -86.55091752 123.63293877 -86.56640625 120.8125 C-86.57676061 119.36437424 -86.57676061 119.36437424 -86.58732414 117.88699341 C-86.62319018 112.77150302 -86.64670861 107.65612325 -86.66040039 102.54052734 C-86.67689807 97.27574384 -86.73523953 92.0123155 -86.80354404 86.74798584 C-86.84851212 82.68480444 -86.86190877 78.62194155 -86.86701775 74.55853271 C-86.87487648 72.61936124 -86.89441461 70.68019818 -86.92624092 68.74127197 C-87.09972724 57.41942377 -86.97143658 49.12984498 -79.125 40.1875 C-78.34253906 39.20394531 -77.56007813 38.22039062 -76.75390625 37.20703125 C-74.55406736 34.85748688 -72.34972231 32.51352315 -70.125 30.1875 C-69.52300781 29.51074219 -68.92101562 28.83398438 -68.30078125 28.13671875 C-51.0592453 9.4739716 -24.8396647 0.01352923 0 0 Z M-65.75 42.875 C-70.42350983 48.3992433 -73.75463497 54.82207261 -77.125 61.1875 C-77.55039062 61.98285156 -77.97578125 62.77820313 -78.4140625 63.59765625 C-86.96078152 81.049926 -86.50681029 103.61052871 -80.73046875 121.81640625 C-73.14595595 143.40163524 -57.70764101 159.20422927 -37.44140625 169.55859375 C-17.10287476 179.28070029 5.80818875 179.98188557 27.05859375 172.94921875 C49.80824613 164.85400388 66.90007334 149.69745389 77.875 128.1875 C86.24696055 110.09589745 88.36172832 87.2776367 81.875 68.1875 C77.7392368 57.39372599 72.39270238 47.99945883 64.875 39.1875 C64.33617187 38.548125 63.79734375 37.90875 63.2421875 37.25 C53.29582627 26.45394962 40.55541302 19.88735058 26.875 15.1875 C25.86695313 14.8265625 24.85890625 14.465625 23.8203125 14.09375 C-9.42954672 4.36208389 -42.99013754 18.71850962 -65.75 42.875 Z " fill="#2B3441" transform="translate(689.125,304.8125)"/>
<path d="M0 0 C12.73049145 4.7532413 25.01678156 28.95523672 32.64624023 39.94140625 C33.98917156 41.83934591 35.37820396 43.69815352 36.77124023 45.55957031 C44.65441395 56.32305678 44.65441395 56.32305678 44.14624023 61.64550781 C43.74621794 63.33703065 43.32681001 65.02400157 42.89624023 66.70800781 C42.50153598 69.51353161 42.20623325 72.32952877 41.89624023 75.14550781 C41.46922293 78.77892269 41.05922166 82.21906355 39.89624023 85.70800781 C35.04177678 84.84241415 30.50094459 83.30882063 25.83374023 81.74316406 C-3.49446992 73.30573157 -36.91386524 78.16548968 -63.50952148 92.52368164 C-70.84396138 96.62706861 -77.48616489 101.54521932 -84.10375977 106.70800781 C-86.76386458 108.71680773 -89.4325269 110.71403625 -92.10375977 112.70800781 C-92.30792571 108.83379081 -92.43167513 104.96096189 -92.54125977 101.08300781 C-92.59991211 99.98859375 -92.65856445 98.89417969 -92.71899414 97.76660156 C-92.88718172 89.83775833 -92.88718172 89.83775833 -90.73193359 86.72973633 C-88.94010032 85.1525768 -87.15648198 83.92208137 -85.10375977 82.70800781 C-83.59749023 81.70833984 -83.59749023 81.70833984 -82.06079102 80.68847656 C-58.20785589 67.0878589 -33.84868371 58.30431183 -6.10375977 58.70800781 C-12.33141315 46.47221116 -18.85422531 34.48746271 -25.95019531 22.73095703 C-26.47782471 21.85455566 -27.0054541 20.9781543 -27.54907227 20.07519531 C-28.01845215 19.30288574 -28.48783203 18.53057617 -28.97143555 17.73486328 C-30.10375977 15.70800781 -30.10375977 15.70800781 -31.10375977 12.70800781 C-30.50950195 12.45631836 -29.91524414 12.20462891 -29.30297852 11.9453125 C-26.56878021 10.78551065 -23.83626772 9.62178624 -21.10375977 8.45800781 C-20.16918945 8.06226563 -19.23461914 7.66652344 -18.27172852 7.25878906 C-13.97625244 5.42645311 -9.7783833 3.56490719 -5.66625977 1.34863281 C-2.10375977 -0.29199219 -2.10375977 -0.29199219 0 0 Z " fill="#2C3541" transform="translate(696.103759765625,206.2919921875)"/>
<path d="M0 0 C9.88567076 -1.76824774 20.30638183 -3.23932466 30 0 C37.42672247 6.21411926 41.22286915 15.63523894 45.19921875 24.26611328 C47.81860639 29.85475057 51.20379825 34.95935809 54.5625 40.125 C55.63318925 41.81074954 56.69771296 43.50044298 57.75390625 45.1953125 C58.19033447 45.88641113 58.6267627 46.57750977 59.07641602 47.28955078 C60 49 60 49 60 51 C60.66 51 61.32 51 62 51 C62.25724854 50.29834717 62.51449707 49.59669434 62.77954102 48.8737793 C64.11843619 45.72112174 65.73941103 42.9411971 67.52734375 40.01953125 C67.87127167 39.45306381 68.21519958 38.88659637 68.56954956 38.30296326 C70.45785612 35.19898221 72.37324576 32.11297025 74.30541992 29.03613281 C77.75331596 23.51880566 81.06813165 18.1736902 83.5859375 12.15234375 C87.77465914 2.60720757 87.77465914 2.60720757 92 0 C101.17333508 -2.09491938 110.74145175 -1.10389294 120 0 C115.75301343 8.00653265 111.16377531 15.74487436 106.375 23.4375 C104.95002866 25.73717316 103.52752629 28.03836789 102.10546875 30.33984375 C101.57814903 31.19266434 101.57814903 31.19266434 101.04017639 32.06271362 C97.44501266 37.88427364 93.9214457 43.74760876 90.42138672 49.62670898 C89.99744629 50.33770752 89.57350586 51.04870605 89.13671875 51.78125 C88.46032349 52.95228271 88.46032349 52.95228271 87.77026367 54.14697266 C86.33632904 56.45795874 84.84099086 58.60998006 83.23950195 60.80224609 C74.63655017 73.00631971 73.45956612 82.93799703 73.8125 97.625 C73.81948038 99.61457205 73.82145994 101.60416812 73.81835938 103.59375 C73.82150118 108.39806201 73.89143686 113.19696178 74 118 C69.52084672 118.02886338 65.04171709 118.04675187 60.5625 118.0625 C59.28310547 118.07087891 58.00371094 118.07925781 56.68554688 118.08789062 C55.47060547 118.09111328 54.25566406 118.09433594 53.00390625 118.09765625 C51.87799072 118.10289307 50.7520752 118.10812988 49.59204102 118.11352539 C47 118 47 118 46 117 C45.98830735 114.04846933 46.03309987 111.11382399 46.10546875 108.1640625 C47.1616579 80.58280292 47.1616579 80.58280292 34.67285156 57.02685547 C31.65261089 53.36748038 29.42125754 49.22812822 27.0625 45.125 C26.07263244 43.45617959 25.0791183 41.78951697 24.08203125 40.125 C23.5813916 39.28839844 23.08075195 38.45179688 22.56494141 37.58984375 C19.83662499 33.07471418 17.04021895 28.60203681 14.25 24.125 C9.30532712 16.18464404 4.56688313 8.16308333 0 0 Z " fill="#303741" transform="translate(406,726)"/>
<path d="M0 0 C5.04683531 4.2292415 9.79016664 8.64269815 14.4375 13.3046875 C15.12126709 13.98749786 15.80503418 14.67030823 16.50952148 15.37380981 C17.94605274 16.8096647 19.38133852 18.24676662 20.81542969 19.68505859 C22.99042669 21.86540315 25.17069918 24.04036871 27.3515625 26.21484375 C28.75552897 27.61947126 30.15918508 29.02440906 31.5625 30.4296875 C32.20437256 31.06953583 32.84624512 31.70938416 33.50756836 32.36862183 C36.60264519 35.47949708 39.58798332 38.63588549 42.45239258 41.96118164 C46.16354288 46.25417887 50.14742213 50.22197004 54.19921875 54.19140625 C55.75354178 55.72822585 57.30756954 57.26534412 58.86132812 58.80273438 C61.2806866 61.1910912 63.70229986 63.57701869 66.12915039 65.95776367 C68.49267073 68.27883556 70.84653813 70.60935451 73.19921875 72.94140625 C74.28368538 73.99794151 74.28368538 73.99794151 75.39006042 75.07582092 C79.95287686 79.61538483 84.27590326 84.11724506 85.49609375 90.66015625 C85.34851936 96.71070617 84.81838282 101.1682915 80.34765625 105.66015625 C76.00321067 109.54535811 72.79283517 111.15931117 66.875 111.4375 C65.98554687 111.49808594 65.09609375 111.55867187 64.1796875 111.62109375 C53.78659109 109.59099261 46.00397843 99.39649422 38.88818359 92.16943359 C36.87979829 90.12987277 34.86092694 88.10119002 32.83984375 86.07421875 C21.27559465 74.43853027 21.27559465 74.43853027 16.39892578 68.56005859 C14.13621409 66.03672043 11.51705644 63.93913376 8.93774414 61.74853516 C7.10936723 60.09868818 5.57055202 58.4129922 3.99609375 56.5234375 C0.90919238 52.94444531 -2.35454767 49.57825358 -5.71484375 46.2578125 C-6.21932037 45.75888489 -6.723797 45.25995728 -7.24356079 44.74591064 C-9.34440401 42.67261906 -11.44909743 40.60332103 -13.55786133 38.53808594 C-15.11449651 37.01146331 -16.66500464 35.47882953 -18.21484375 33.9453125 C-19.13386475 33.04312988 -20.05288574 32.14094727 -20.99975586 31.21142578 C-23 29 -23 29 -23 27 C-23.66 27 -24.32 27 -25 27 C-23.56210782 23.50797613 -21.85404918 21.88097523 -18.8125 19.6875 C-11.29769944 14.0243463 -5.61500281 7.52649313 0 0 Z " fill="#527088" transform="translate(798,479)"/>
<path d="M0 0 C2.77213971 1.95566097 5.41239052 4.00104195 8.03515625 6.15234375 C9.31519531 7.18681641 9.31519531 7.18681641 10.62109375 8.2421875 C25.24807116 20.68636982 36.0768383 38.83795303 38.03515625 58.15234375 C38.76294206 70.04866652 38.79651153 81.73122448 35.03515625 93.15234375 C34.70644531 94.20164062 34.37773438 95.2509375 34.0390625 96.33203125 C27.39584171 115.50312516 14.23106924 130.70973477 -2.96484375 141.15234375 C-3.87363281 141.70535156 -4.78242187 142.25835937 -5.71875 142.828125 C-26.48041837 154.25737914 -50.26126277 156.34873594 -72.96484375 150.15234375 C-77.11859557 148.7511978 -81.02962867 147.07878795 -84.96484375 145.15234375 C-85.89941406 144.71019531 -86.83398438 144.26804687 -87.796875 143.8125 C-94.85175626 140.25052499 -100.33009797 135.65366203 -105.96484375 130.15234375 C-106.85171875 129.30671875 -107.73859375 128.46109375 -108.65234375 127.58984375 C-109.79703125 126.38328125 -109.79703125 126.38328125 -110.96484375 125.15234375 C-111.48304688 124.64058594 -112.00125 124.12882813 -112.53515625 123.6015625 C-126.67835296 108.79243052 -131.77435233 88.47615629 -131.484375 68.50561523 C-130.637463 46.0492142 -120.50596038 25.7041666 -104.2890625 10.203125 C-92.52555839 -0.17643745 -78.06929402 -6.9390485 -62.96484375 -10.84765625 C-62.36349609 -11.02200195 -61.76214844 -11.19634766 -61.14257812 -11.37597656 C-41.01507252 -15.73543181 -17.26312655 -10.75818032 0 0 Z M-103.15234375 22.27734375 C-117.62108468 38.86233931 -123.04200889 57.80384999 -122.16015625 79.46435547 C-121.09541863 94.11780691 -114.32747229 107.11131744 -104.96484375 118.15234375 C-103.82208984 119.61027344 -103.82208984 119.61027344 -102.65625 121.09765625 C-99.95206084 124.33290723 -96.90774176 126.7424115 -93.46484375 129.15234375 C-92.8517334 129.58240723 -92.23862305 130.0124707 -91.60693359 130.45556641 C-73.89079757 142.56227566 -54.33004821 146.72579917 -33.27734375 142.96484375 C-11.71744498 138.06075776 5.81489153 126.68055087 18.03515625 108.15234375 C28.80963932 90.10296365 32.05890503 70.74101386 26.93579102 50.32543945 C21.88197148 32.22273761 10.07184081 16.61503951 -6.28125 7.25390625 C-39.20245765 -10.25543411 -77.03960556 -4.78638945 -103.15234375 22.27734375 Z " fill="#537086" transform="translate(735.96484375,328.84765625)"/>
<path d="M0 0 C9.24 0 18.48 0 28 0 C28 39.27 28 78.54 28 119 C18.76 119 9.52 119 0 119 C0 79.73 0 40.46 0 0 Z " fill="#333944" transform="translate(359,725)"/>
<path d="M0 0 C3.31484084 -0.01073923 6.41073656 0.20738395 9.6796875 0.73828125 C10.78626744 3.71655693 11.88949284 6.6960651 12.9921875 9.67578125 C13.4552832 10.92198242 13.4552832 10.92198242 13.92773438 12.19335938 C14.54937128 13.8750508 15.15358736 15.56327858 15.74072266 17.25732422 C16.62039273 19.74809066 16.62039273 19.74809066 17.89599609 21.98876953 C19.09483676 24.42831515 19.68940958 26.01066614 19.6796875 28.73828125 C17.38770535 33.02227159 14.07412489 36.315128 10.6796875 39.73828125 C9.65770913 40.80309457 8.63673746 41.86887487 7.61669922 42.93554688 C4.89123308 45.75830446 2.12159903 48.5329341 -0.66821289 51.29199219 C-2.3894776 52.99487517 -4.1024791 54.70575054 -5.81445312 56.41796875 C-11.48102364 62.06657761 -17.19540442 67.58255336 -23.3203125 72.73828125 C-24.43515639 73.69761395 -25.54974843 74.65723943 -26.6640625 75.6171875 C-37.86520613 85.16539061 -46.89181594 91.88815448 -61.3203125 95.73828125 C-62.34753418 96.01406006 -62.34753418 96.01406006 -63.39550781 96.29541016 C-70.99655268 98.31915726 -78.44553748 100.17579732 -86.3203125 100.73828125 C-83.51987671 96.88768204 -80.36484726 93.94845794 -76.78125 90.87109375 C-67.881245 83.15775608 -59.56705402 75.08487028 -51.72802734 66.29882812 C-50.24195218 64.65141354 -48.73232092 63.02867324 -47.21484375 61.41015625 C-41.58533745 55.40482635 -36.20496728 49.37640185 -31.3203125 42.73828125 C-30.48203167 41.6182943 -29.64346615 40.49852042 -28.8046875 39.37890625 C-24.07848846 33.0362684 -19.48035905 26.61758443 -15.0703125 20.05078125 C-14.65201172 19.43565674 -14.23371094 18.82053223 -13.80273438 18.18676758 C-11.81830898 15.2160449 -10.14313483 12.36705184 -8.59765625 9.12890625 C-4.74028513 1.05401634 -4.74028513 1.05401634 0 0 Z " fill="#507089" transform="translate(697.3203125,569.26171875)"/>
<path d="M0 0 C2 0.6875 2 0.6875 4 2.6875 C3.76929018 7.43841325 1.19169899 11.05152574 -1.3125 14.9375 C-1.7561792 15.63423828 -2.1998584 16.33097656 -2.65698242 17.04882812 C-13.84009301 34.43830284 -26.25224672 50.76693835 -40.375 65.875 C-43.02341415 68.71258659 -45.6049478 71.60250241 -48.1875 74.5 C-51.59541824 78.25731049 -55.09405237 81.66477703 -58.98046875 84.91796875 C-62.21085204 87.74845933 -65.14708078 90.86537698 -68.1171875 93.96484375 C-70 95.6875 -70 95.6875 -72 95.6875 C-71.67 100.6375 -71.34 105.5875 -71 110.6875 C-71.66 110.6875 -72.32 110.6875 -73 110.6875 C-73 83.2975 -73 55.9075 -73 27.6875 C-64.09 27.3575 -55.18 27.0275 -46 26.6875 C-39.46450875 23.39994986 -34.30482112 20.68426009 -28.56103516 16.5078125 C-24.76624336 13.81058013 -20.82443823 11.36181987 -16.88208008 8.88745117 C-13.21314508 6.58457414 -9.57091603 4.24134694 -5.92919922 1.89575195 C-2.32278475 -0.36293512 -2.32278475 -0.36293512 0 0 Z " fill="#507089" transform="translate(676,561.3125)"/>
<path d="M0 0 C3.63 2.31 7.26 4.62 11 7 C28.47534735 18.03706149 46.64119208 24.70941738 67 28 C69.76663709 36.64574091 69.76663709 36.64574091 69 41 C66.98592813 42.85591558 65.31991491 44.06400458 63 45.4375 C62.35297119 45.84436035 61.70594238 46.2512207 61.03930664 46.67041016 C59.55958174 47.59716826 58.07347282 48.51377941 56.58251953 49.42236328 C53.66399681 51.20526117 50.76710059 53.02060904 47.87109375 54.83984375 C42.8067285 58.01967782 37.73088193 61.18033443 32.64624023 64.32763672 C29.73240624 66.16911313 26.86803572 68.08797619 24 70 C16.08 70 8.16 70 0 70 C0 46.9 0 23.8 0 0 Z " fill="#507189" transform="translate(603,504)"/>
<path d="M0 0 C11.68491983 20.25550233 21.87445895 41.35644013 28 64 C28.28101563 65.00160156 28.56203125 66.00320313 28.8515625 67.03515625 C33.2300307 83.46546873 36 100.98150163 36 118 C30.39 118 24.78 118 19 118 C18.9175 116.185 18.835 114.37 18.75 112.5 C18.17232987 105.09458983 16.57196039 98.15409781 14.56933594 91.03515625 C14.19717017 89.70480726 13.83537823 88.37150094 13.48535156 87.03515625 C7.93477022 65.85558676 -3.79644913 46.35322743 -19.76171875 31.34375 C-21 30 -21 30 -21 28 C-21.5775 27.7525 -22.155 27.505 -22.75 27.25 C-25.42884611 25.76175216 -27.11205049 24.42736366 -29 22 C-29.70703125 19.2421875 -29.70703125 19.2421875 -29 16 C-26.10207126 13.46601208 -22.804821 11.71514327 -19.4375 9.875 C-18.54224609 9.36324219 -17.64699219 8.85148437 -16.72460938 8.32421875 C-14.97087971 7.32465708 -13.21104902 6.3357117 -11.44482422 5.35839844 C-9.26679612 4.14823783 -7.11884252 2.8981554 -4.97265625 1.6328125 C-2 0 -2 0 0 0 Z " fill="#537288" transform="translate(806,274)"/>
<path d="M0 0 C12.73049145 4.7532413 25.01678156 28.95523672 32.64624023 39.94140625 C33.98917156 41.83934591 35.37820396 43.69815352 36.77124023 45.55957031 C44.65216046 56.34519179 44.65216046 56.34519179 44.02124023 62.64550781 C43.46655273 65.04785156 43.46655273 65.04785156 42.89624023 66.70800781 C37.62467629 66.27767606 32.80806123 65.19050507 27.70874023 63.77050781 C22.92712814 62.44838939 18.17421517 61.3049838 13.27124023 60.52050781 C12.21936523 60.34777344 11.16749023 60.17503906 10.08374023 59.99707031 C6.87206256 59.59408324 6.87206256 59.59408324 3.58374023 60.10644531 C-0.36050897 60.45063687 -2.49310643 60.40021877 -6.10375977 58.70800781 C-10.38938553 53.47327558 -12.84706605 46.89104312 -15.62231445 40.78173828 C-18.15781744 35.52102922 -21.1986952 30.57005837 -24.22875977 25.58300781 C-25.33795469 23.74853382 -26.44491161 21.9127038 -27.54907227 20.07519531 C-28.01845215 19.30288574 -28.48783203 18.53057617 -28.97143555 17.73486328 C-30.10375977 15.70800781 -30.10375977 15.70800781 -31.10375977 12.70800781 C-30.21237305 12.33047363 -30.21237305 12.33047363 -29.30297852 11.9453125 C-26.56878021 10.78551065 -23.83626772 9.62178624 -21.10375977 8.45800781 C-20.16918945 8.06226563 -19.23461914 7.66652344 -18.27172852 7.25878906 C-13.97625244 5.42645311 -9.7783833 3.56490719 -5.66625977 1.34863281 C-2.10375977 -0.29199219 -2.10375977 -0.29199219 0 0 Z " fill="#527189" transform="translate(696.103759765625,206.2919921875)"/>
<path d="M0 0 C0.92100998 -0.00860046 1.84201996 -0.01720093 2.79093933 -0.02606201 C3.79930847 -0.03032196 4.80767761 -0.03458191 5.84660339 -0.03897095 C6.91029648 -0.04714844 7.97398956 -0.05532593 9.06991577 -0.06375122 C12.59597712 -0.08859895 16.12199827 -0.10511855 19.64811707 -0.11953735 C20.8514588 -0.12486103 22.05480053 -0.13018471 23.29460716 -0.13566971 C29.66219318 -0.16239687 36.0297596 -0.18177437 42.39738464 -0.19619751 C48.978345 -0.21285637 55.55880567 -0.25764653 62.13957691 -0.30856895 C67.19676296 -0.34219871 72.25382967 -0.35377023 77.31111717 -0.35942459 C79.73723361 -0.36614736 82.16334191 -0.3813958 84.58934975 -0.4053154 C87.98411137 -0.43688042 91.37751522 -0.43701618 94.77238464 -0.42959595 C96.27582932 -0.45420395 96.27582932 -0.45420395 97.80964661 -0.47930908 C102.33575282 -0.43880175 105.51358831 -0.33693443 109.12887573 2.5614624 C111.50358582 5.15390015 111.50358582 5.15390015 112.23014832 7.21640015 C111.97722681 12.04136417 111.1138412 14.64982875 107.50358582 18.15390015 C105.13359819 19.33889396 103.68919626 19.28724893 101.04476929 19.30107117 C100.1068605 19.30822647 99.16895172 19.31538177 98.20262146 19.32275391 C97.17038452 19.32544281 96.13814758 19.32813171 95.07463074 19.3309021 C93.98997025 19.3374733 92.90530975 19.34404449 91.78778076 19.35081482 C88.18653806 19.370579 84.58533709 19.38221684 80.98405457 19.3921814 C79.75648249 19.39625692 78.52891041 19.40033245 77.26413918 19.40453148 C71.4383629 19.42325074 65.61260311 19.43781407 59.78680247 19.44614345 C53.06337376 19.45591503 46.34027434 19.48223199 39.61696166 19.52264434 C33.79279398 19.55644987 27.96873674 19.56828901 22.14447975 19.57234764 C19.66731342 19.57722739 17.19015095 19.58888055 14.71304893 19.60738564 C11.24867221 19.63165907 7.7851597 19.6308333 4.32072449 19.62387085 C2.78147812 19.64308594 2.78147812 19.64308594 1.21113586 19.66268921 C-3.21810008 19.63019044 -5.76786123 19.59950959 -9.60998535 17.24952698 C-12.05763656 14.53044028 -12.45330049 13.53473777 -12.87141418 9.84140015 C-12.49641418 6.15390015 -12.49641418 6.15390015 -10.18391418 3.27890015 C-6.71339019 0.5347649 -4.29115026 0.02986634 0 0 Z " fill="#FBFDFD" transform="translate(449.4964141845703,220.84609985351563)"/>
<path d="M0 0 C10.98405951 1.63292691 21.48144111 6.64987534 30.24658203 13.33398438 C31.10767578 13.99011719 31.96876953 14.64625 32.85595703 15.32226562 C43.99326756 24.55273359 52.124823 38.43720401 53.49658203 52.98535156 C53.65558447 55.87621474 53.72712413 58.75139219 53.74658203 61.64648438 C53.75302734 62.55325928 53.75947266 63.46003418 53.76611328 64.39428711 C53.62883388 71.63379576 52.48184836 78.72316954 48.62158203 84.95898438 C44.89393031 87.11709853 41.43210039 87.18300411 37.24658203 86.33398438 C34.18408203 84.27148438 34.18408203 84.27148438 32.24658203 81.33398438 C31.77627193 77.63869076 31.94796198 75.13652578 33.24658203 71.64648438 C35.93125341 62.75351044 34.43679883 52.92029278 31.24658203 44.33398438 C29.50140281 41.10760262 27.5090529 38.21600717 25.24658203 35.33398438 C24.31652344 34.08101563 24.31652344 34.08101563 23.36767578 32.80273438 C16.56516545 24.88526378 5.29294985 19.9522354 -5.00341797 19.04882812 C-6.05529297 18.99855469 -7.10716797 18.94828125 -8.19091797 18.89648438 C-12.15452203 18.65752528 -13.55526239 18.45973695 -17.00341797 16.27148438 C-18.92870714 13.03974899 -19.34325821 11.07790845 -19.41748047 7.39648438 C-16.51904044 -1.60572935 -7.73127644 -0.73938068 0 0 Z " fill="#516F87" transform="translate(699.75341796875,336.666015625)"/>
<path d="M0 0 C3.89244479 1.50583631 6.89680089 3.86084451 10.17578125 6.41015625 C10.88210693 6.9510791 11.58843262 7.49200195 12.31616211 8.04931641 C23.76584557 16.8857234 34.5624573 26.39251754 44.97998047 36.42431641 C46.12478581 37.51176611 47.29420614 38.57379515 48.48486328 39.61083984 C50.1796875 41.140625 50.1796875 41.140625 52.67578125 44.03515625 C52.38854535 47.83335544 51.01669129 50.53971317 49.05859375 53.7578125 C48.53394531 54.62599609 48.00929688 55.49417969 47.46875 56.38867188 C46.64310547 57.72961914 46.64310547 57.72961914 45.80078125 59.09765625 C45.25808594 59.99548828 44.71539063 60.89332031 44.15625 61.81835938 C42.68381439 64.23941792 41.21200281 66.65403912 39.67578125 69.03515625 C39.20382324 69.78982178 38.73186523 70.5444873 38.24560547 71.32202148 C37.46854248 72.17002319 37.46854248 72.17002319 36.67578125 73.03515625 C35.35578125 73.03515625 34.03578125 73.03515625 32.67578125 73.03515625 C31.06689453 71.2253418 31.06689453 71.2253418 29.49609375 68.671875 C28.90393066 67.73118164 28.31176758 66.79048828 27.70166016 65.82128906 C27.07437012 64.79874023 26.44708008 63.77619141 25.80078125 62.72265625 C14.17802035 44.33491826 1.28609789 27.15825772 -13.32421875 11.03515625 C-11.86079831 7.50573048 -9.98329366 5.59492194 -7.01171875 3.22265625 C-6.25246094 2.59746094 -5.49320313 1.97226563 -4.7109375 1.328125 C-2.32421875 0.03515625 -2.32421875 0.03515625 0 0 Z " fill="#527189" transform="translate(721.32421875,187.96484375)"/>
<path d="M0 0 C15.32928368 0.62314161 30.76505602 1.82132452 42 13 C43.54884983 14.33303071 45.12325864 15.63137787 46.70068359 16.93041992 C52.74367593 21.91866425 58.53059873 27.17246918 64.27734375 32.49609375 C66.61165909 34.64286008 68.97480183 36.74022264 71.375 38.8125 C74.74477065 41.73108797 77.88719309 44.80937291 81 48 C80 51 80 51 77.2265625 52.68359375 C76.03215903 53.2806274 74.83114498 53.86455747 73.625 54.4375 C72.9973877 54.74171875 72.36977539 55.0459375 71.72314453 55.359375 C57.74388121 62.02122926 57.74388121 62.02122926 52.98046875 61.984375 C49.83538116 60.4211362 48.3166683 57.6044472 46.4375 54.75 C41.77940145 47.94926343 36.66712619 41.72825192 31.27880859 35.50097656 C29.38104889 33.27351824 27.57163823 30.97736419 25.75 28.6875 C21.23120891 23.12276811 16.34357427 17.93340319 11.40332031 12.74487305 C7.46365752 8.60220444 3.68572661 4.37078486 0 0 Z " fill="#557389" transform="translate(604,145)"/>
<path d="M0 0 C3.36335594 1.45745424 5.54534005 3.31117854 8.109375 5.9140625 C8.86347656 6.67460938 9.61757813 7.43515625 10.39453125 8.21875 C11.17183594 9.0128125 11.94914063 9.806875 12.75 10.625 C13.54277344 11.42679688 14.33554687 12.22859375 15.15234375 13.0546875 C17.10614493 15.03202846 19.05512103 17.01388909 21 19 C17.22998235 24.82867882 13.28033893 30.38582806 8.875 35.75 C8.31586914 36.43392822 7.75673828 37.11785645 7.18066406 37.82250977 C1.70685294 44.45684894 -4.05056515 50.7916126 -10 57 C-10.77988281 57.82113281 -11.55976562 58.64226563 -12.36328125 59.48828125 C-17.86308489 65.14438482 -23.82166041 70.10413393 -30 75 C-31.66689126 76.33305254 -33.33362577 77.6663012 -35 79 C-41.69023383 69.41066485 -41.69023383 69.41066485 -41 63 C-39.41796875 60.66796875 -39.41796875 60.66796875 -37.1875 58.1875 C-22.47321718 40.98239815 -9.86954889 20.35594458 0 0 Z " fill="#527189" transform="translate(775,534)"/>
<path d="M0 0 C5.28 0 10.56 0 16 0 C16.67073909 13.52657164 15.37892373 26.28059586 13.375 39.625 C13.25711121 40.44549835 13.13922241 41.2659967 13.01776123 42.11135864 C11.2521659 54.25463012 8.22286885 65.48167185 4 77 C0.77510037 75.58379789 -1.35676723 73.87907436 -3.8203125 71.375 C-4.52027344 70.66859375 -5.22023438 69.9621875 -5.94140625 69.234375 C-6.66199219 68.49703125 -7.38257813 67.7596875 -8.125 67 C-8.85332031 66.26265625 -9.58164062 65.5253125 -10.33203125 64.765625 C-11.67953125 63.4006897 -13.02496843 62.03371267 -14.36767578 60.6640625 C-15.57198729 59.43633482 -16.78392404 58.21607596 -18 57 C-17.34 57 -16.68 57 -16 57 C-16.0928125 55.6078125 -16.0928125 55.6078125 -16.1875 54.1875 C-16 51 -16 51 -14.6796875 49.79296875 C-12.10200673 47.04144439 -11.16926056 43.62181387 -9.9375 40.125 C-9.42617137 38.71079638 -8.91446122 37.29673065 -8.40234375 35.8828125 C-8.18054443 35.25777832 -7.95874512 34.63274414 -7.73022461 33.98876953 C-7.19400486 32.52837299 -6.60726073 31.08627423 -5.99291992 29.65698242 C-4.87034133 26.65304271 -4.27927354 23.7612294 -3.7109375 20.60546875 C-3.49179687 19.40341797 -3.27265625 18.20136719 -3.046875 16.96289062 C-2.82515625 15.71701172 -2.6034375 14.47113281 -2.375 13.1875 C-2.14554688 11.92228516 -1.91609375 10.65707031 -1.6796875 9.35351562 C-1.1151002 6.23652321 -0.55692772 3.11837009 0 0 Z " fill="#537188" transform="translate(826,407)"/>
<path d="M0 0 C0.99 0.33 1.98 0.66 3 1 C2.42095515 4.48191328 1.53861281 7.282952 -0.08203125 10.4140625 C-0.51314209 11.24784424 -0.94425293 12.08162598 -1.38842773 12.94067383 C-1.85837158 13.82650146 -2.32831543 14.7123291 -2.8125 15.625 C-3.30242432 16.55143311 -3.79234863 17.47786621 -4.29711914 18.43237305 C-25.71609252 58.35804626 -25.71609252 58.35804626 -35 63 C-36.18169743 60.15126513 -37.34541735 57.29720953 -38.5 54.4375 C-38.83386719 53.63763672 -39.16773438 52.83777344 -39.51171875 52.01367188 C-41.48820633 47.07245292 -42.15265875 43.38122079 -42 38 C-42.82519108 34.76002676 -42.82519108 34.76002676 -44 31.6875 C-46 26.15277778 -46 26.15277778 -46 24 C-45.36723145 23.71914551 -44.73446289 23.43829102 -44.08251953 23.14892578 C-21.91937591 13.89485858 -21.91937591 13.89485858 -1.703125 1.15625 C-1.14109375 0.7746875 -0.5790625 0.393125 0 0 Z " fill="#52728A" transform="translate(762,521)"/>
<path d="M0 0 C4.60017637 3.94300832 7.86955557 6.75982989 11.4375 11.3125 C14.12139805 14.68203251 16.82972858 17.95881099 19.75 21.125 C23.71250875 25.52957362 27.32758725 30.18132738 30.9375 34.875 C31.51790039 35.62539551 32.09830078 36.37579102 32.69628906 37.14892578 C33.23866211 37.86032715 33.78103516 38.57172852 34.33984375 39.3046875 C34.82831787 39.94390137 35.31679199 40.58311523 35.82006836 41.24169922 C37 43 37 43 38 46 C33.16742267 47.48215645 28.53141814 48.48073304 23.5 49.125 C21.62828125 49.37636719 21.62828125 49.37636719 19.71875 49.6328125 C13.16450722 50.14282808 6.57405615 50 0 50 C0 33.5 0 17 0 0 Z " fill="#557289" transform="translate(603,165)"/>
<path d="M0 0 C0.66 0 1.32 0 2 0 C4.24458314 5.44328573 6.48652796 10.88764781 8.72607422 16.33300781 C9.48772592 18.18388941 10.25008767 20.03447899 11.01318359 21.88476562 C12.11223826 24.55000903 13.20870411 27.21630493 14.3046875 29.8828125 C14.6443454 30.70492218 14.9840033 31.52703186 15.33395386 32.37405396 C15.81422531 33.54458817 15.81422531 33.54458817 16.30419922 34.73876953 C16.58399628 35.41827667 16.86379333 36.09778381 17.15206909 36.79788208 C18.19204018 39.49873771 19.08478631 42.25435893 20 45 C7.46 45 -5.08 45 -18 45 C-15.98168095 38.94504286 -13.89745474 33.1046586 -11.42578125 27.24609375 C-11.09708542 26.45977066 -10.76838959 25.67344757 -10.42973328 24.86329651 C-9.39368719 22.38674815 -8.35318065 19.91210389 -7.3125 17.4375 C-6.60321793 15.74426529 -5.89423091 14.05090697 -5.18554688 12.35742188 C-3.46043384 8.23684632 -1.73132184 4.11797046 0 0 Z " fill="#F6F7F7" transform="translate(883,752)"/>
<path d="M0 0 C3.45790785 2.74519933 4.69812593 6.57956912 6.28515625 10.5546875 C6.58691269 11.29324982 6.88866913 12.03181213 7.1995697 12.79275513 C8.16101146 15.15067623 9.11185654 17.51270754 10.0625 19.875 C10.70568881 21.45731247 11.34956167 23.03934707 11.99414062 24.62109375 C13.67189858 28.74375554 15.33897833 32.87056555 17 37 C17.39501709 37.92441895 17.79003418 38.84883789 18.19702148 39.80126953 C19 42 19 42 19 45 C6.79 45 -5.42 45 -18 45 C-16.10925893 38.69752978 -14.26742067 32.84874111 -11.6796875 26.875 C-11.37555939 26.16142334 -11.07143127 25.44784668 -10.75808716 24.71264648 C-9.80203972 22.47292721 -8.83860608 20.23647598 -7.875 18 C-7.22217929 16.47286005 -6.56983188 14.94551769 -5.91796875 13.41796875 C-1.25345553 2.50691106 -1.25345553 2.50691106 0 0 Z " fill="#F6F6F7" transform="translate(588,752)"/>
<path d="M0 0 C3.53219967 1.35275732 4.68424109 2.55793753 6.875 5.625 C8.30494722 9.91484166 8.43808897 13.67787468 7 18 C6.33782471 18.5789502 5.67564941 19.15790039 4.9934082 19.75439453 C2.42582046 22.64682221 2.46563688 24.25251912 2.390625 28.078125 C2.35839844 29.23828125 2.32617188 30.3984375 2.29296875 31.59375 C2.27169922 33.40359375 2.27169922 33.40359375 2.25 35.25 C2.20552734 37.08304688 2.20552734 37.08304688 2.16015625 38.953125 C2.08948587 41.96839445 2.04247603 44.98420161 2 48 C-2.29 48 -6.58 48 -11 48 C-11 39.42 -11 30.84 -11 22 C-12.32 21.34 -13.64 20.68 -15 20 C-17.308329 16.9991723 -17.41448133 13.7528457 -17.32421875 10.03125 C-16.79002404 6.68448796 -15.13123774 4.55748529 -13 2 C-8.73755081 -0.8416328 -5.00032912 -0.50403317 0 0 Z " fill="#C0CDD3" transform="translate(488,484)"/>
<path d="M0 0 C8.91 0 17.82 0 27 0 C27 38.94 27 77.88 27 118 C19.08 118 11.16 118 3 118 C3 117.34 3 116.68 3 116 C10.26 116 17.52 116 25 116 C25 78.05 25 40.1 25 1 C17.08 1 9.16 1 1 1 C1 24.43 1 47.86 1 72 C0.67 72 0.34 72 0 72 C0 48.24 0 24.48 0 0 Z " fill="#3E434A" transform="translate(766,726)"/>
<path d="M0 0 C3.30268988 3.1829032 6.17754303 6.37061686 8.8125 10.125 C9.41707031 10.97320312 10.02164063 11.82140625 10.64453125 12.6953125 C12 15 12 15 12 18 C9.62800607 19.64696937 7.31857284 21.08727428 4.8125 22.5 C3.80219727 23.08587891 3.80219727 23.08587891 2.77148438 23.68359375 C1.4544602 24.44682532 0.13437191 25.20479794 -1.18896484 25.95703125 C-2.76648918 26.86552194 -4.31755536 27.81965245 -5.86328125 28.78125 C-8 30 -8 30 -10 30 C-12.00851701 25.15592956 -12.20256571 22.10053734 -11 17 C-9.37406254 13.86002596 -7.43676263 10.97528338 -5.4375 8.0625 C-4.91736328 7.28326172 -4.39722656 6.50402344 -3.86132812 5.70117188 C-2.58526375 3.79292881 -1.29818767 1.89323022 0 0 Z " fill="#577285" transform="translate(784,245)"/>
<path d="M0 0 C2 1 2 1 2.8515625 3.28515625 C3.10679687 4.20167969 3.36203125 5.11820313 3.625 6.0625 C4.01558594 7.44115234 4.01558594 7.44115234 4.4140625 8.84765625 C4.60742188 9.55792969 4.80078125 10.26820313 5 11 C-5.1537063 17.68718672 -15.35822827 24.11413893 -26 30 C-26 27 -26 27 -24.04394531 24.71923828 C-23.14772461 23.84509277 -22.25150391 22.97094727 -21.328125 22.0703125 C-20.84929871 21.59810272 -20.37047241 21.12589294 -19.87713623 20.63937378 C-18.34167422 19.12733893 -16.79645994 17.62577782 -15.25 16.125 C-13.71952411 14.62974629 -12.19125191 13.1323374 -10.66571045 11.63204956 C-9.27259251 10.2635523 -7.87326975 8.90137999 -6.47363281 7.53955078 C-4.13314214 5.13669015 -2.04496759 2.65607306 0 0 Z " fill="#556E81" transform="translate(722,612)"/>
<path d="M0 0 C7.63093198 1.93832724 14.22595919 4.93275518 21.125 8.6875 C22.08148437 9.19861328 23.03796875 9.70972656 24.0234375 10.23632812 C26.35342393 11.48287087 28.67865844 12.73745417 31 14 C31 17 31 17 29.46875 18.60546875 C28.8190625 19.12753906 28.169375 19.64960938 27.5 20.1875 C26.8503125 20.71730469 26.200625 21.24710938 25.53125 21.79296875 C25.0259375 22.19128906 24.520625 22.58960938 24 23 C20.3468423 21.46213169 18.016051 19.26051042 15.234375 16.46484375 C14.34492187 15.57345703 13.45546875 14.68207031 12.5390625 13.76367188 C11.15847656 12.3647168 11.15847656 12.3647168 9.75 10.9375 C8.8050908 9.99113361 7.85978238 9.04516564 6.9140625 8.09960938 C0 1.14019224 0 1.14019224 0 0 Z " fill="#5C7586" transform="translate(675,164)"/>
<path d="M0 0 C2.5 2.125 2.5 2.125 4 5 C3.94039986 8.4568084 3.84915243 10.88078074 1.72265625 13.68359375 C-1.04250326 15.79665215 -3.53535765 15.4767131 -6.90234375 15.33984375 C-9 15 -9 15 -11.0625 13.5 C-12.40702719 9.91459416 -12.80931637 6.76910197 -12 3 C-8.39055206 -1.48446562 -5.36203018 -1.65735478 0 0 Z " fill="#838688" transform="translate(975,828)"/>
<path d="M0 0 C1.65 0 3.3 0 5 0 C4.51202438 0.37379288 4.02404877 0.74758575 3.52128601 1.13270569 C1.38804973 3.75113507 1.63845763 5.52514432 1.65942383 8.87670898 C1.65965042 10.08483749 1.65987701 11.292966 1.66011047 12.53770447 C1.67559433 13.84397293 1.69107819 15.15024139 1.70703125 16.49609375 C1.71262994 17.84985381 1.71689875 19.20361998 1.71989441 20.55738831 C1.73134503 24.12180365 1.76079886 27.68585184 1.79400635 31.25012207 C1.82461538 34.87047401 1.83840329 38.49088416 1.85351562 42.11132812 C1.88222976 48.48213756 1.92572226 54.85272104 1.97981262 61.22337341 C1.99623535 63.48219927 2 65.74111445 2 68 C1.34 68 0.68 68 0 68 C0 45.56 0 23.12 0 0 Z " fill="#4F6777" transform="translate(604,589)"/>
<path d="M0 0 C3 3 3 3 3.2487793 6.27807617 C3.20645038 7.61696909 3.14722119 8.95539758 3.07421875 10.29296875 C3.04777786 10.99899734 3.02133698 11.70502594 2.99409485 12.43244934 C2.90639949 14.68500008 2.79723333 16.93592574 2.6875 19.1875 C2.62423374 20.71543676 2.56236792 22.24343221 2.50195312 23.77148438 C2.35087087 27.51519731 2.18052823 31.2575961 2 35 C1.34 35 0.68 35 0 35 C0 23.45 0 11.9 0 0 Z " fill="#5F737F" transform="translate(603,445)"/>
<path d="M0 0 C1.65 0 3.3 0 5 0 C5.84454356 3.37817425 6.10844919 5.67465243 5 9 C4.67 8.34 4.34 7.68 4 7 C3.01 6.67 2.02 6.34 1 6 C0.67 6.99 0.34 7.98 0 9 C0 6.03 0 3.06 0 0 Z " fill="#666A6F" transform="translate(968,831)"/>
<path d="M0 0 C2.73704754 2.73704754 3.16182449 5.26044774 4 9 C3.625 11.4375 3.625 11.4375 3 13 C2.34 12.67 1.68 12.34 1 12 C1 14.64 1 17.28 1 20 C0.67 20 0.34 20 0 20 C0 13.4 0 6.8 0 0 Z " fill="#425565" transform="translate(807,387)"/>
<path d="M0 0 C2.64 0 5.28 0 8 0 C7.34 1.65 6.68 3.3 6 5 C4.35 5 2.7 5 1 5 C0.67 3.35 0.34 1.7 0 0 Z " fill="#5D788D" transform="translate(686,534)"/>
<path d="M0 0 C0.99 0.33 1.98 0.66 3 1 C2.2733313 1.58454956 2.2733313 1.58454956 1.53198242 2.1809082 C-0.47673728 4.56608279 -0.42236982 6.01399593 -0.51171875 9.10546875 C-0.54716797 10.08837891 -0.58261719 11.07128906 -0.61914062 12.08398438 C-0.64169922 13.10814453 -0.66425781 14.13230469 -0.6875 15.1875 C-0.73874023 16.74114258 -0.73874023 16.74114258 -0.79101562 18.32617188 C-0.87352642 20.8840066 -0.94266572 23.44149723 -1 26 C-1.33 26 -1.66 26 -2 26 C-2.05785647 22.04172765 -2.09354717 18.0835633 -2.125 14.125 C-2.14175781 12.99707031 -2.15851562 11.86914062 -2.17578125 10.70703125 C-2.18222656 9.63066406 -2.18867187 8.55429687 -2.1953125 7.4453125 C-2.20578613 6.45031738 -2.21625977 5.45532227 -2.22705078 4.43017578 C-2 2 -2 2 0 0 Z " fill="#252D36" transform="translate(606,293)"/>
<path d="M0 0 C0 2.64 0 5.28 0 8 C0.66 8 1.32 8 2 8 C2 7.01 2 6.02 2 5 C2.99 5 3.98 5 5 5 C4.34 6.32 3.68 7.64 3 9 C1.35 8.67 -0.3 8.34 -2 8 C-2.33 5.69 -2.66 3.38 -3 1 C-1 0 -1 0 0 0 Z " fill="#E8ECEE" transform="translate(967,832)"/>
<path d="M0 0 C0.66 0.33 1.32 0.66 2 1 C1.154375 1.7425 0.30875 2.485 -0.5625 3.25 C-3.24666753 5.64518233 -3.24666753 5.64518233 -2.9375 8.0625 C-1.97572189 10.05017475 -0.98750879 12.02498242 0 14 C-2.31 12.02 -4.62 10.04 -7 8 C-4.9957983 3.9915966 -3.50944037 2.58590343 0 0 Z " fill="#586E7D" transform="translate(715,191)"/>
<path d="M0 0 C-0.20625 0.7425 -0.4125 1.485 -0.625 2.25 C-1.04408751 5.32330841 -0.61949011 6.42786866 1 9 C0.01 9.495 0.01 9.495 -1 10 C-1.83878455 8.71186658 -2.67086783 7.41936744 -3.5 6.125 C-3.9640625 5.40570313 -4.428125 4.68640625 -4.90625 3.9453125 C-6 2 -6 2 -6 0 C-3.50907189 -1.24546405 -2.58919267 -0.7767578 0 0 Z " fill="#687B88" transform="translate(671,219)"/>
<path d="M0 0 C0.99 0.33 1.98 0.66 3 1 C2 4 2 4 -0.3125 5.25 C-3.09873015 6.0275526 -4.33438378 5.98726527 -7 5 C-6.030625 4.360625 -5.06125 3.72125 -4.0625 3.0625 C-1.23963731 1.3034741 -1.23963731 1.3034741 0 0 Z " fill="#343E4B" transform="translate(659,653)"/>
<path d="M0 0 C0.99 0.33 1.98 0.66 3 1 C1.68 3.64 0.36 6.28 -1 9 C-1.33 9 -1.66 9 -2 9 C-2.125 5.625 -2.125 5.625 -2 2 C-1.34 1.34 -0.68 0.68 0 0 Z " fill="#D5DFE4" transform="translate(813,450)"/>
<path d="M0 0 C2 1.375 2 1.375 4 3 C4 3.66 4 4.32 4 5 C0.52674819 6.1577506 -2.36067448 6.06866652 -6 6 C-6 5.67 -6 5.34 -6 5 C-4.02 4.34 -2.04 3.68 0 3 C0 2.01 0 1.02 0 0 Z " fill="#566B7A" transform="translate(637,206)"/>
<path d="M0 0 C-0.5625 1.9375 -0.5625 1.9375 -2 4 C-5.625 4.75 -5.625 4.75 -9 5 C-2.87096774 0 -2.87096774 0 0 0 Z " fill="#D6DADD" transform="translate(977,837)"/>
<path d="M0 0 C1.125 1.6875 1.125 1.6875 2 4 C1.125 6.75 1.125 6.75 0 9 C-3.875 7.25 -3.875 7.25 -5 5 C-2.525 5.495 -2.525 5.495 0 6 C0 4.02 0 2.04 0 0 Z " fill="#5E717F" transform="translate(830,475)"/>
<path d="M0 0 C0.99 0.33 1.98 0.66 3 1 C3 2.65 3 4.3 3 6 C2.34 6 1.68 6 1 6 C0.67 6.66 0.34 7.32 0 8 C0 5.36 0 2.72 0 0 Z " fill="#202B37" transform="translate(808,399)"/>
<path d="M0 0 C0.99 0.495 0.99 0.495 2 1 C2.59355614 3.64860427 2.74209269 6.29197322 3 9 C2.01 8.67 1.02 8.34 0 8 C0 5.36 0 2.72 0 0 Z " fill="#38434C" transform="translate(808,391)"/>
<path d="M0 0 C2.31 0.66 4.62 1.32 7 2 C7 2.99 7 3.98 7 5 C4.11424181 4.60196439 3.17810487 4.20990931 1.25 1.9375 C0.8375 1.298125 0.425 0.65875 0 0 Z " fill="#5D6D79" transform="translate(675,164)"/>
<path d="M0 0 C0.66 0.66 1.32 1.32 2 2 C-1.96 3.98 -1.96 3.98 -6 6 C-3.75 1.5 -3.75 1.5 0 0 Z " fill="#697782" transform="translate(701,636)"/>
</svg>
