<?xml version="1.0" encoding="UTF-8"?>
<svg version="1.1" xmlns="http://www.w3.org/2000/svg" width="1135" height="944">
<path d="M0 0 C374.55 0 749.1 0 1135 0 C1135 311.52 1135 623.04 1135 944 C760.45 944 385.9 944 0 944 C0 632.48 0 320.96 0 0 Z " fill="#2A313D" transform="translate(0,0)"/>
<path d="M0 0 C2.12791752 0.00546193 4.25563295 -0.0000341 6.38354492 -0.00634766 C7.7383631 -0.00568849 9.09318114 -0.00441069 10.44799805 -0.00244141 C12.2736731 -0.00074951 12.2736731 -0.00074951 14.13623047 0.00097656 C16.9050293 0.13037109 16.9050293 0.13037109 17.9050293 1.13037109 C18.00207571 3.37061752 18.02689585 5.61399163 18.02528381 7.8563385 C18.02656545 8.9234273 18.02656545 8.9234273 18.02787298 10.01207346 C18.02952986 12.41359157 18.02400304 14.81504098 18.01855469 17.21655273 C18.01827283 18.93096414 18.01843051 20.64537566 18.01899719 22.35978699 C18.01928524 27.02901083 18.01338734 31.69820921 18.00642323 36.36742711 C18.00019091 41.24148637 17.99958599 46.11554614 17.99839783 50.98960876 C17.99528415 60.22606539 17.98707028 69.46251024 17.97704834 78.69896168 C17.96588832 89.21147975 17.96037703 99.72399837 17.9553529 110.23652089 C17.94488769 131.86781087 17.92728756 153.49909024 17.9050293 175.13037109 C17.19234768 175.13183765 16.47966606 175.13330421 15.74538803 175.13481522 C-1.58912324 175.17185354 -18.92342044 175.23082851 -36.25777054 175.31427383 C-44.64051895 175.3540973 -53.02317303 175.38647292 -61.40600586 175.40136719 C-68.71179055 175.41436664 -76.01736798 175.44128736 -83.32303596 175.48498416 C-87.1920243 175.50763769 -91.06075665 175.52327947 -94.9298172 175.52225494 C-98.57102901 175.5215106 -102.21167412 175.53936925 -105.85273933 175.57153893 C-107.82717584 175.58412879 -109.8017073 175.57695628 -111.77616882 175.56922913 C-112.95123489 175.58314194 -114.12630096 175.59705475 -115.3369751 175.61138916 C-116.35832172 175.61507633 -117.37966835 175.6187635 -118.43196487 175.62256241 C-121.79547634 176.26395054 -122.98270682 177.4923652 -125.0949707 180.13037109 C-125.75288264 182.10464935 -125.75288264 182.10464935 -125.6574707 184.13037109 C-125.67938477 184.79037109 -125.70129883 185.45037109 -125.72387695 186.13037109 C-124.74015037 189.25874384 -122.76520471 190.32788633 -120.0949707 192.13037109 C-117.2907024 192.72871668 -117.2907024 192.72871668 -114.25468445 192.64935303 C-113.08665787 192.66326584 -111.91863129 192.67717865 -110.71520996 192.69151306 C-109.44278442 192.6864827 -108.17035889 192.68145233 -106.859375 192.67626953 C-105.49903686 192.68500836 -104.138709 192.69549523 -102.77839661 192.70759583 C-99.0927779 192.73543918 -95.40749487 192.7388609 -91.72178626 192.73787594 C-87.86732971 192.7410065 -84.01302402 192.76662766 -80.15864563 192.78985596 C-72.86312487 192.8304086 -65.56769348 192.85075489 -58.27207738 192.86382985 C-49.96490514 192.87970242 -41.65788492 192.9181191 -33.35080087 192.95842314 C-16.2655461 193.04081208 0.81961052 193.09193445 17.9050293 193.13037109 C17.9050293 202.37037109 17.9050293 211.61037109 17.9050293 221.13037109 C13.75078369 221.1397168 9.59653809 221.1490625 5.31640625 221.15869141 C-8.3940921 221.19242644 -22.10443151 221.24775428 -35.81480694 221.31427383 C-44.12914542 221.35408391 -52.44338899 221.38646636 -60.7578125 221.40136719 C-68.00464387 221.41437356 -75.25126656 221.44131206 -82.49798042 221.48498416 C-86.33514293 221.50762206 -90.17204785 221.5232804 -94.00928307 221.52225494 C-97.6217722 221.52150968 -101.23369141 221.53940551 -104.8460331 221.57153893 C-106.80238517 221.58410655 -108.75883281 221.5769634 -110.71520996 221.56922913 C-111.88323654 221.58314194 -113.05126312 221.59705475 -114.25468445 221.61138916 C-115.77426018 221.61691992 -115.77426018 221.61691992 -117.32453442 221.62256241 C-120.84127681 222.26716569 -122.54404304 223.6753253 -125.0949707 226.13037109 C-125.95798401 228.8748606 -125.7316225 231.33713302 -125.0949707 234.13037109 C-123.22481976 236.56156732 -121.81358725 237.77106282 -119.0949707 239.13037109 C-117.29607668 239.23561915 -115.49330857 239.27697481 -113.69137573 239.28858948 C-112.54430145 239.2983783 -111.39722717 239.30816711 -110.21539307 239.31825256 C-108.31862823 239.32688576 -108.31862823 239.32688576 -106.38354492 239.33569336 C-105.04336239 239.34526983 -103.70318289 239.35527977 -102.36300659 239.36569214 C-98.71863254 239.39277239 -95.07424549 239.41376502 -91.42982626 239.43369412 C-87.62345088 239.45553446 -83.81711569 239.48293268 -80.01077271 239.50975037 C-72.80017034 239.5597037 -65.58954569 239.60463271 -58.37889969 239.64777273 C-50.17100234 239.69712256 -41.96314531 239.75204904 -33.75528693 239.80745232 C-16.86855065 239.92131291 0.01822253 240.0274068 16.9050293 240.13037109 C16.9050293 249.04037109 16.9050293 257.95037109 16.9050293 267.13037109 C14.14426025 267.1397168 11.38349121 267.1490625 8.5390625 267.15869141 C-0.58137461 267.19245492 -9.7015853 267.24800039 -18.82184124 267.31427383 C-24.3516172 267.35378704 -29.88123299 267.38595674 -35.41113281 267.40136719 C-40.7475805 267.41650833 -46.08358799 267.45090894 -51.41983986 267.49868011 C-53.45595283 267.51352012 -55.49212864 267.5214136 -57.52829552 267.52225494 C-60.38001849 267.52461844 -63.2305188 267.5516485 -66.08203125 267.58447266 C-66.92432281 267.57944229 -67.76661438 267.57441193 -68.63442993 267.56922913 C-72.58393866 267.63958827 -74.6469241 267.85967329 -78.09968567 269.94573975 C-80.83673272 272.94252401 -81.02343752 275.12451299 -81.0949707 279.13037109 C-79.99289062 282.52845135 -79.17399194 283.07769027 -76.0949707 285.13037109 C-45.4049707 285.46037109 -14.7149707 285.79037109 16.9050293 286.13037109 C16.9050293 349.82037109 16.9050293 413.51037109 16.9050293 479.13037109 C-19.84200882 479.13037109 -19.84200882 479.13037109 -32.8449707 474.19287109 C-34.28508009 473.68951608 -35.72695281 473.19118194 -37.17041016 472.69750977 C-40.07188039 471.69938084 -42.96339849 470.67830076 -45.84936523 469.63623047 C-52.59845421 467.21643468 -59.44694363 465.10268939 -66.2824707 462.94287109 C-68.58904772 462.20120596 -70.89510265 461.45791354 -73.20043945 460.71240234 C-74.15072021 460.40536377 -75.10100098 460.0983252 -76.08007812 459.78198242 C-77.07744995 459.45943481 -77.07744995 459.45943481 -78.0949707 459.13037109 C-78.0949707 458.80037109 -78.0949707 458.47037109 -78.0949707 458.13037109 C-77.23172684 458.12157173 -77.23172684 458.12157173 -76.3510437 458.1125946 C-70.34837358 458.04854274 -64.34623375 457.96409277 -58.34399414 457.86791992 C-56.1054586 457.83471444 -53.86684021 457.80666894 -51.62817383 457.78393555 C-48.40581032 457.75030964 -45.18420297 457.69798838 -41.9621582 457.64208984 C-40.46650833 457.63250496 -40.46650833 457.63250496 -38.94064331 457.62272644 C-33.64634076 457.51130294 -29.5406434 457.317492 -25.0949707 454.13037109 C-21.49857247 449.63007328 -20.59402238 446.64430188 -20.59326172 440.91918945 C-20.58785873 440.22408768 -20.58245575 439.5289859 -20.57688904 438.81282043 C-20.56445417 436.53150922 -20.58085429 434.251473 -20.59887695 431.97021484 C-20.59872186 430.37650995 -20.59723115 428.78280468 -20.59446716 427.18910217 C-20.59308559 423.85612221 -20.60560161 420.52357384 -20.62841797 417.19067383 C-20.65682533 412.92458107 -20.65405595 408.65920372 -20.64132786 404.39305782 C-20.63436449 401.10472023 -20.64216702 397.81654724 -20.65458488 394.52823067 C-20.65909139 392.95540562 -20.65944319 391.38256286 -20.65551949 389.80973625 C-20.65260011 387.61017655 -20.66914644 385.41159419 -20.69091797 383.2121582 C-20.69902245 381.33735023 -20.69902245 381.33735023 -20.70729065 379.42466736 C-21.13896812 375.75650472 -21.75170803 373.9741999 -24.0949707 371.13037109 C-28.67748565 368.07763086 -32.84646041 367.6875344 -38.21166992 367.69799805 C-39.0025853 367.6878064 -39.79350067 367.67761475 -40.60838318 367.66711426 C-43.20554779 367.63707822 -45.802343 367.62773285 -48.3996582 367.61865234 C-50.20713518 367.60179867 -52.01460048 367.5836475 -53.822052 367.56425476 C-58.56649122 367.51682337 -63.3108831 367.48696966 -68.05548096 367.46081543 C-72.90207261 367.43097526 -77.74850129 367.3844568 -82.5949707 367.33935547 C-92.09488534 367.25340043 -101.59483358 367.18602047 -111.0949707 367.13037109 C-111.16617465 362.94686553 -111.20921404 358.76351753 -111.24731445 354.57958984 C-111.26773804 353.39973511 -111.28816162 352.21988037 -111.3092041 351.00427246 C-111.36796396 342.40273327 -110.92700914 335.88074687 -105.0949707 329.13037109 C-98.01691522 322.19110101 -90.41307171 318.33843686 -80.5324707 317.75537109 C-71.67131064 317.84808876 -63.29719122 321.92815058 -57.0949707 328.13037109 C-55.71791306 329.76109725 -54.36774959 331.4170149 -53.0949707 333.13037109 C-48.69136471 331.79594503 -45.95255563 329.43740103 -42.64575195 326.37255859 C-41.0949707 325.13037109 -41.0949707 325.13037109 -39.0949707 325.13037109 C-43.73919082 314.8642003 -50.82582807 309.25243494 -61.11450195 304.83349609 C-63.75940412 303.85626316 -66.39560499 302.94411829 -69.0949707 302.13037109 C-69.72532227 301.93701172 -70.35567383 301.74365234 -71.00512695 301.54443359 C-82.69150328 299.22900202 -95.69792494 301.39264281 -105.87231445 307.56005859 C-116.99817774 315.42051034 -124.65604971 324.84642382 -128.0949707 338.13037109 C-128.67875972 343.35621326 -128.79091251 348.56479788 -128.8449707 353.81787109 C-128.87320282 355.21308916 -128.90314003 356.60827381 -128.93481445 358.00341797 C-129.00489835 361.37912556 -129.05790116 364.75416698 -129.0949707 368.13037109 C-130.1880957 368.52224609 -131.2812207 368.91412109 -132.4074707 369.31787109 C-136.16002553 370.6631266 -137.33095349 372.60311769 -139.0949707 376.13037109 C-139.56256188 379.17491863 -139.56256188 379.17491863 -139.52734375 382.48120117 C-139.54713791 383.74213089 -139.56693207 385.00306061 -139.58732605 386.30220032 C-139.59409476 387.66809947 -139.60054175 389.03400025 -139.60668945 390.39990234 C-139.62354495 391.80524763 -139.64169637 393.21057791 -139.66108704 394.6158905 C-139.70849921 398.30324619 -139.73836496 401.99054106 -139.76452637 405.67810059 C-139.79437653 409.44551603 -139.84089146 413.21272212 -139.88598633 416.97998047 C-139.97191932 424.36333993 -140.03930864 431.74671478 -140.0949707 439.13037109 C-146.03919265 438.11936767 -151.85450635 437.08089335 -157.6027832 435.22021484 C-159.23473633 434.69524414 -159.23473633 434.69524414 -160.8996582 434.15966797 C-162.54321289 433.61922852 -162.54321289 433.61922852 -164.2199707 433.06787109 C-165.3543457 432.70371094 -166.4887207 432.33955078 -167.6574707 431.96435547 C-175.95087271 429.27446909 -175.95087271 429.27446909 -177.0949707 428.13037109 C-177.18738459 426.42380364 -177.20871542 424.71336189 -177.20290947 423.00430393 C-177.2009456 421.32721327 -177.2009456 421.32721327 -177.19894207 419.61624199 C-177.18915425 417.75037663 -177.18915425 417.75037663 -177.1791687 415.84681702 C-177.17482684 413.83268969 -177.17048586 411.81856237 -177.1661737 409.80443498 C-177.1604991 407.6076365 -177.15234613 405.41085922 -177.14351082 403.21407127 C-177.12471188 398.51465094 -177.1128366 393.81522869 -177.10218811 389.11578369 C-177.09046988 384.05427799 -177.07840538 378.99277496 -177.06421924 373.93127549 C-177.02934631 361.3489874 -177.01327063 348.76676685 -177.00857544 336.18443298 C-177.00820561 335.27427009 -177.00783578 334.36410719 -177.00745474 333.42636359 C-177.0044784 325.92554301 -177.00230217 318.42472224 -177.00055394 310.92390127 C-176.99896665 304.15865835 -176.99669727 297.39341615 -176.9934082 290.62817383 C-176.9929479 289.6636096 -176.9924876 288.69904537 -176.99201335 287.70525192 C-176.98349192 272.13518441 -176.93916636 256.56540734 -176.88223086 240.99545068 C-176.8246088 224.98745435 -176.80934564 208.97979765 -176.83163464 192.97171205 C-176.84398625 183.11428446 -176.82378541 173.25806346 -176.7603385 163.40082746 C-176.71980176 156.61922135 -176.72057243 149.83836118 -176.75213854 143.05671156 C-176.76909422 139.15810354 -176.76937118 135.26164172 -176.71979332 131.36326408 C-176.48535952 111.82485488 -178.91435013 96.93947645 -188.21975243 79.56468862 C-189.27815618 76.62086206 -189.04991879 75.07946997 -188.0949707 72.13037109 C-178.00922099 60.21500692 -162.42867797 50.92175426 -149.0949707 43.13037109 C-147.84662609 42.36498933 -146.59926194 41.59800657 -145.3527832 40.82958984 C-144.10076507 40.07471076 -142.84817394 39.32078111 -141.5949707 38.56787109 C-139.90887695 37.545 -139.90887695 37.545 -138.1887207 36.50146484 C-134.77287723 34.98762512 -133.53712892 34.80243188 -130.0949707 36.13037109 C-128.34887695 37.33740234 -128.34887695 37.33740234 -126.6574707 38.94287109 C-122.77578879 42.51966994 -118.80426061 45.96316736 -114.7824707 49.38037109 C-113.5768753 50.40503974 -112.37238973 51.43101607 -111.16918945 52.45849609 C-110.64929443 52.9009668 -110.12939941 53.3434375 -109.59375 53.79931641 C-108.03139387 55.1868332 -106.55807702 56.63913337 -105.0949707 58.13037109 C-99.7182473 56.43245844 -94.54590913 54.49780238 -89.3449707 52.31787109 C-78.36367358 47.78706606 -66.73716967 44.45881089 -55.0949707 42.13037109 C-53.1149707 30.25037109 -51.1349707 18.37037109 -49.0949707 6.13037109 C-44.34211469 4.54608576 -39.86878316 3.41264806 -34.9699707 2.56787109 C-34.28676758 2.4421875 -33.60356445 2.31650391 -32.8996582 2.18701172 C-21.98795276 0.27144578 -11.05130315 -0.0338957 0 0 Z " fill="#BDCCD3" transform="translate(563.094970703125,92.86962890625)"/>
<path d="M0 0 C0.33 0 0.66 0 1 0 C1 101.97 1 203.94 1 309 C4.3 309.66 7.6 310.32 11 311 C12.71971915 311.45039847 14.43322193 311.92732755 16.13110352 312.45410156 C17.00717758 312.72325378 17.88325165 312.99240601 18.78587341 313.26971436 C19.70344925 313.55711487 20.62102509 313.84451538 21.56640625 314.140625 C23.0587252 314.60145477 23.0587252 314.60145477 24.58119202 315.07159424 C27.72231797 316.04289324 30.86123851 317.02109054 34 318 C35.95936211 318.60777838 37.91883323 319.21520543 39.87841797 319.82226562 C45.08793078 321.43767 50.29564961 323.05879507 55.50314331 324.68069458 C86.45792261 334.31863154 117.45264141 343.82588362 148.4503994 353.32452106 C151.32083868 354.2041183 154.19124421 355.08382559 157.06164551 355.96354675 C160.61585711 357.05283439 164.1702379 358.14156746 167.72473145 359.22993469 C169.31706153 359.71781047 170.90938761 360.20569931 172.50170898 360.69360352 C173.58333518 361.02455584 173.58333518 361.02455584 174.6868124 361.36219406 C177.46794844 362.21471097 180.24026125 363.08008708 183 364 C193.23 364.33 203.46 364.66 214 365 C214 395.03 214 425.06 214 456 C204.4800979 457.58665035 196.13297964 458.35788415 186.625 458.3125 C185.93277344 458.31233887 185.24054688 458.31217773 184.52734375 458.31201172 C172.1747829 458.29210658 160.16487899 457.16493609 148 455 C145.18244131 444.65410268 142.53080125 434.35531604 140.578125 423.80859375 C140.13859187 421.06243327 140.13859187 421.06243327 139 419 C137.11162259 418.26950889 137.11162259 418.26950889 134.79296875 417.73828125 C133.90528809 417.50955322 133.01760742 417.2808252 132.10302734 417.04516602 C131.14090332 416.80338623 130.1787793 416.56160645 129.1875 416.3125 C120.38160838 414.03032211 111.84665425 411.34464248 103.34838867 408.09692383 C102.18206909 407.66416138 102.18206909 407.66416138 100.9921875 407.22265625 C100.31526855 406.96234619 99.63834961 406.70203613 98.94091797 406.43383789 C96.59232789 405.90887631 95.24654566 406.17541099 93 407 C90.84063098 408.83299117 90.84063098 408.83299117 88.75 411.125 C85.25592436 414.74529841 81.67960704 418.11189782 77.8359375 421.35546875 C76.03756554 422.96635087 74.51905163 424.67996043 72.9375 426.5 C70 429 70 429 66.91796875 428.94921875 C61.99243713 428.02089349 57.75517981 425.66267041 53.375 423.3125 C52.46709717 422.83063232 51.55919434 422.34876465 50.6237793 421.85229492 C36.66133977 414.27844904 23.01667226 405.4295646 11 395 C12.73369498 386.32235212 15.51071424 378.08442726 18.34179688 369.7109375 C18.69693359 368.63328125 19.05207031 367.555625 19.41796875 366.4453125 C19.74563232 365.47094238 20.0732959 364.49657227 20.41088867 363.49267578 C21.25621578 360.8920677 21.25621578 360.8920677 20 358 C18.57731289 356.55781348 18.57731289 356.55781348 16.75 355.125 C7.79928405 347.52898701 -0.45331322 338.98314711 -8 330 C-16.12756941 331.66935554 -23.9278443 334.08092981 -31.82421875 336.609375 C-32.80519531 336.91617187 -33.78617187 337.22296875 -34.796875 337.5390625 C-35.67698242 337.81959473 -36.55708984 338.10012695 -37.46386719 338.38916016 C-40.11182513 339.02693362 -42.28827145 339.24665191 -45 339 C-48.25241535 335.82030125 -50.56198237 331.82788482 -53 328 C-53.53415527 327.1649292 -53.53415527 327.1649292 -54.07910156 326.31298828 C-74.0223777 294.78250715 -74.0223777 294.78250715 -77 282 C-75.88439465 277.70921019 -72.06905013 275.04341485 -68.875 272.1875 C-68.29186035 271.65777588 -67.7087207 271.12805176 -67.10791016 270.58227539 C-63.3091436 267.14151604 -59.47568741 263.74005492 -55.5859375 260.40234375 C-55.06257813 259.93957031 -54.53921875 259.47679687 -54 259 C-53.45939941 258.55954346 -52.91879883 258.11908691 -52.36181641 257.6652832 C-50.79198445 256.11309539 -50.79198445 256.11309539 -51.0390625 254.09863281 C-51.23242188 253.39061523 -51.42578125 252.68259766 -51.625 251.953125 C-51.83511719 251.15583984 -52.04523438 250.35855469 -52.26171875 249.53710938 C-52.50535156 248.69986328 -52.74898438 247.86261719 -53 247 C-53.34998047 245.76733398 -53.34998047 245.76733398 -53.70703125 244.50976562 C-54.45652852 241.91858923 -55.22781847 239.33449776 -56 236.75 C-58.31501288 228.8593044 -60.11836731 221.19310381 -61 213 C-61.56452881 212.96261719 -62.12905762 212.92523438 -62.71069336 212.88671875 C-70.17055564 212.27805485 -77.28978435 210.72559118 -84.5625 209 C-85.74908203 208.72671875 -86.93566406 208.4534375 -88.15820312 208.171875 C-96.86352375 206.13647625 -96.86352375 206.13647625 -98 205 C-100.94971768 185.7730081 -101.14792091 165.71115153 -99.1875 146.375 C-99.08260254 145.27454346 -99.08260254 145.27454346 -98.97558594 144.15185547 C-98.73046875 142.1484375 -98.73046875 142.1484375 -98 139 C-94.84404657 136.89603105 -92.72040775 136.33186179 -89.046875 135.52734375 C-87.86996094 135.26759766 -86.69304687 135.00785156 -85.48046875 134.74023438 C-84.24941406 134.47533203 -83.01835937 134.21042969 -81.75 133.9375 C-80.53441406 133.66873047 -79.31882812 133.39996094 -78.06640625 133.12304688 C-72.39442593 131.88288106 -66.76668658 130.69097872 -61 130 C-60.96044189 129.41081787 -60.92088379 128.82163574 -60.88012695 128.21459961 C-60.32632069 121.43990143 -58.95412593 115.11611233 -57.1875 108.5625 C-56.93935547 107.60279297 -56.69121094 106.64308594 -56.43554688 105.65429688 C-54.66185216 98.95216799 -52.47073408 92.47609052 -50 86 C-50.59006836 85.7321167 -51.18013672 85.4642334 -51.78808594 85.18823242 C-54.02184458 83.98826517 -55.56273425 82.73387987 -57.390625 80.98828125 C-58.01453125 80.39861572 -58.6384375 79.8089502 -59.28125 79.20141602 C-59.9309375 78.57807373 -60.580625 77.95473145 -61.25 77.3125 C-65.94025452 72.83073911 -70.58417217 68.50339364 -75.875 64.72265625 C-77.38909627 62.40419634 -77.08733558 60.67801017 -76.56982422 58.02758789 C-75.45943705 54.07653158 -73.78453676 50.40448641 -72.0625 46.6875 C-71.66281006 45.81593262 -71.26312012 44.94436523 -70.85131836 44.04638672 C-65.30780469 32.15005589 -59.11996015 20.68210958 -51.5625 9.9375 C-50.94290405 9.05215576 -50.94290405 9.05215576 -50.31079102 8.14892578 C-48.28584979 5.37064451 -47.34155043 4.11385014 -44 3 C-41.58325195 3.40551758 -41.58325195 3.40551758 -38.73828125 4.14453125 C-37.70123047 4.40943359 -36.66417969 4.67433594 -35.59570312 4.94726562 C-34.51224609 5.23279297 -33.42878906 5.51832031 -32.3125 5.8125 C-31.24837891 6.08642578 -30.18425781 6.36035156 -29.08789062 6.64257812 C-25.25094886 7.6308454 -21.41476439 8.6211833 -17.58740234 9.64599609 C-14.2297695 10.52761788 -11.50499573 11 -8 11 C-5.78278473 8.56811186 -5.78278473 8.56811186 -3.8125 5.5 C-2.55744118 3.65583194 -1.29070786 1.81939597 0 0 Z " fill="#BECDD4" transform="translate(366,226)"/>
<path d="M0 0 C16.96765607 13.83684985 29.28175267 31.95501412 32 54 C33.95502754 78.35484782 27.79011012 99.8341395 12.6171875 119.01171875 C-1.47066265 135.2512502 -22.86236747 147.53619465 -44.59179688 149.19824219 C-69.28868851 150.42698662 -91.26408589 144.38261399 -110.5 128.4375 C-120.76907332 118.86775426 -127.80181736 107.95822034 -133 95 C-133.33644531 94.16726563 -133.67289063 93.33453125 -134.01953125 92.4765625 C-140.97765246 73.48740413 -139.07166192 52.88201665 -130.82543945 34.71289062 C-119.76286753 11.40155025 -101.11076301 -4.18501717 -77 -13 C-52.15785288 -21.77755865 -20.79782164 -15.74216485 0 0 Z " fill="#29323D" transform="translate(742,333)"/>
<path d="M0 0 C2.09123944 -0.00961489 4.18145501 -0.04065854 6.27246094 -0.07226562 C18.90403948 -0.17331602 30.93323524 1.60547901 42.68652344 6.49023438 C43.43764404 6.79469482 44.18876465 7.09915527 44.96264648 7.4128418 C47.1938621 8.33216226 49.41091952 9.27821372 51.62402344 10.24023438 C52.58985352 10.65813232 52.58985352 10.65813232 53.57519531 11.08447266 C63.01671693 15.25822467 70.7613356 20.67951813 78.62402344 27.24023438 C79.48640625 27.93761719 80.34878906 28.635 81.23730469 29.35351562 C104.63376105 49.16773944 117.19346889 78.03064973 119.88720703 108.18652344 C120.51141055 119.5245797 119.57717797 130.26116794 116.62402344 141.24023438 C116.45773437 141.87735352 116.29144531 142.51447266 116.12011719 143.17089844 C108.11759423 173.26927644 88.54185635 198.94129879 61.7800293 214.82592773 C42.46000978 225.90143838 22.20864231 231.41500017 -0.06347656 231.42773438 C-1.17142578 231.43998047 -2.279375 231.45222656 -3.42089844 231.46484375 C-21.02082571 231.49570277 -37.72003992 227.23859381 -53.37597656 219.24023438 C-54.77783203 218.54607422 -54.77783203 218.54607422 -56.20800781 217.83789062 C-62.82133277 214.42242523 -68.98413514 210.37546908 -74.68774414 205.57714844 C-76.42989235 204.14247405 -76.42989235 204.14247405 -78.72631836 202.80175781 C-83.10287215 199.75862134 -85.11348288 197.67112768 -86.09570312 192.31689453 C-86.37267865 187.61474438 -86.16253432 182.94028042 -85.93847656 178.24023438 C-85.89327456 176.59060419 -85.85221996 174.94085484 -85.81542969 173.29101562 C-85.71681438 169.27112046 -85.56187912 165.25700071 -85.37597656 161.24023438 C-82.49060575 164.01113069 -80.45694915 167.02069528 -78.25097656 170.36523438 C-71.49227286 180.30978921 -63.34127654 187.5350111 -53.37597656 194.24023438 C-52.59738281 194.77519531 -51.81878906 195.31015625 -51.01660156 195.86132812 C-46.10135589 199.03644488 -41.00847892 201.34175066 -35.56347656 203.42773438 C-34.94835205 203.66572754 -34.33322754 203.9037207 -33.69946289 204.14892578 C-22.94458265 208.08158795 -12.43093381 209.75991738 -1.00097656 209.61523438 C0.18367187 209.60363281 1.36832031 209.59203125 2.58886719 209.58007812 C30.6215057 209.05696632 54.90357915 196.77435018 74.31542969 176.78710938 C91.4685846 157.86349347 98.53002655 132.78894638 97.75585938 107.70019531 C96.49709955 84.21266945 85.11976943 63.44802471 68.62402344 47.24023438 C67.934375 46.551875 67.24472656 45.86351562 66.53417969 45.15429688 C58.62879617 37.76702517 49.08256251 32.61915705 39.18652344 28.42773438 C38.54400635 28.14994141 37.90148926 27.87214844 37.23950195 27.5859375 C25.95547577 23.02628676 14.33228946 21.70154805 2.24902344 21.80273438 C0.34938843 21.81300659 0.34938843 21.81300659 -1.58862305 21.82348633 C-11.10851792 21.98649614 -19.41213847 22.9825925 -28.37597656 26.24023438 C-29.42011719 26.6140625 -30.46425781 26.98789062 -31.54003906 27.37304688 C-43.32467054 31.97118474 -53.78480001 38.01434986 -63.37597656 46.24023438 C-64.27703125 46.92472656 -64.27703125 46.92472656 -65.19628906 47.62304688 C-73.37035807 53.97220745 -79.43464567 63.25496373 -84.37597656 72.24023438 C-84.70597656 72.24023438 -85.03597656 72.24023438 -85.37597656 72.24023438 C-85.54984426 67.24163359 -85.67642073 62.2448151 -85.76049805 57.24389648 C-85.79556477 55.54534221 -85.84323455 53.84699719 -85.90405273 52.14916992 C-86.39287618 38.14581584 -86.39287618 38.14581584 -84.02832031 33.71484375 C-82.25480072 31.89975729 -80.51644676 30.59472371 -78.37597656 29.24023438 C-77.24867963 28.3217379 -76.12614984 27.39735532 -75.00878906 26.46679688 C-52.75703596 9.66645435 -28.07210349 0.0776545 0 0 Z " fill="#4F718A" transform="translate(688.3759765625,283.759765625)"/>
<path d="M0 0 C8.25 0 16.5 0 25 0 C33.4419879 10.46527426 33.4419879 10.46527426 35.75 15.45703125 C39.07607466 22.29544899 43.00832748 28.63672992 47.0625 35.0625 C48.40313662 37.23618977 49.74040444 39.41196103 51.07421875 41.58984375 C51.72567871 42.65187012 52.37713867 43.71389648 53.04833984 44.80810547 C54.98357405 47.97313575 56.90863673 51.14417028 58.83203125 54.31640625 C60.01301429 56.25260816 61.19400355 58.18880627 62.375 60.125 C62.91648682 61.02613525 63.45797363 61.92727051 64.01586914 62.85571289 C64.76211548 64.0756897 64.76211548 64.0756897 65.5234375 65.3203125 C65.95575684 66.03461426 66.38807617 66.74891602 66.83349609 67.48486328 C67.21844238 67.9848584 67.60338867 68.48485352 68 69 C68.66 69 69.32 69 70 69 C71.70169235 66.55772068 71.70169235 66.55772068 73.45703125 63.39453125 C73.96594406 62.51431557 73.96594406 62.51431557 74.48513794 61.61631775 C75.21765735 60.34810544 75.94692029 59.07800792 76.67330933 57.80627441 C78.58703255 54.45693835 80.52470694 51.1215152 82.4609375 47.78515625 C82.84819504 47.11664642 83.23545258 46.4481366 83.63444519 45.7593689 C86.96504945 40.02418436 90.41782918 34.37117497 93.9375 28.75 C98.39920006 21.62234769 102.73927867 14.43933827 106.93139648 7.14941406 C108.46322918 4.50396746 109.82788282 2.17211718 112 0 C120.25 0 128.5 0 137 0 C137 38.94 137 77.88 137 118 C128.09 118 119.18 118 110 118 C109.67 94.9 109.34 71.8 109 48 C100.71793521 61.37872004 92.51648006 74.76614527 84.55444336 88.33081055 C83.33698221 90.40301957 82.11594052 92.4730852 80.89453125 94.54296875 C80.53003372 95.16672897 80.16553619 95.7904892 79.78999329 96.43315125 C78.34168674 98.88521112 77.02313558 100.97686442 75 103 C72.20703125 103.546875 72.20703125 103.546875 68.8125 103.75 C67.70519531 103.84796875 66.59789062 103.9459375 65.45703125 104.046875 C59.84355998 102.34697636 57.9243209 97.85172359 55 93 C54.4541626 92.12875488 53.9083252 91.25750977 53.34594727 90.35986328 C51.66176287 87.65138696 50.01502033 84.9229203 48.375 82.1875 C47.16089662 80.17663613 45.94603381 78.16623062 44.73046875 76.15625 C44.1173584 75.14175781 43.50424805 74.12726563 42.87255859 73.08203125 C39.29080349 67.18684527 35.64435566 61.33165816 31.99951172 55.4753418 C31.48791504 54.65203369 30.97631836 53.82872559 30.44921875 52.98046875 C29.99893311 52.25754639 29.54864746 51.53462402 29.0847168 50.78979492 C28 49 28 49 27 47 C26.67 70.1 26.34 93.2 26 117 C17.42 117 8.84 117 0 117 C0 78.39 0 39.78 0 0 Z " fill="#FBFCFC" transform="translate(188,726)"/>
<path d="M0 0 C8.25 0 16.5 0 25 0 C33.92110874 10.03624733 33.92110874 10.03624733 37.3125 14.25 C40.62455967 18.32900316 43.97666331 22.36799704 47.375 26.375 C47.83479248 26.91721191 48.29458496 27.45942383 48.76831055 28.01806641 C50.17817875 29.67930266 51.58892079 31.33979232 53 33 C58.94934914 39.99971698 64.86341 47.01861233 70.65234375 54.15234375 C72.41541215 56.29090758 74.19605278 58.40378218 76.00390625 60.50390625 C76.51179687 61.09558594 77.0196875 61.68726563 77.54296875 62.296875 C78.54006557 63.45545537 79.5412451 64.61053716 80.546875 65.76171875 C84 69.77882119 84 69.77882119 84 72 C84.66 72 85.32 72 86 72 C86 48.24 86 24.48 86 0 C94.91 0 103.82 0 113 0 C113 38.61 113 77.22 113 117 C88 117 88 117 82.5 112.6875 C81.28095032 110.82491765 80.1139015 108.92730864 79 107 C77.57014854 105.20609042 76.11072676 103.43541384 74.625 101.6875 C73.88507813 100.77355469 73.14515625 99.85960937 72.3828125 98.91796875 C69.79244248 95.74582711 67.15321062 92.61953249 64.5 89.5 C61.14539595 85.55361117 57.82777828 81.58357507 54.5625 77.5625 C50.61279925 72.7083955 46.55128135 67.95971373 42.46582031 63.22021484 C38.44576956 58.54654991 34.52554602 53.80180004 30.64453125 49.01171875 C29.15704175 47.12373351 29.15704175 47.12373351 28 46 C27.67 69.43 27.34 92.86 27 117 C18.09 117 9.18 117 0 117 C0 78.39 0 39.78 0 0 Z " fill="#FCFDFD" transform="translate(680,726)"/>
<path d="M0 0 C9.9 0 19.8 0 30 0 C38.72447321 18.98036991 47.37143287 37.99043428 55.82470703 57.09326172 C59.49888846 65.39234638 63.19982725 73.67850741 66.9375 81.94921875 C67.35025177 82.86315903 67.76300354 83.7770993 68.18826294 84.71873474 C70.20102004 89.17447299 72.21704164 93.62869231 74.23779297 98.08081055 C74.96853735 99.69705184 75.69917434 101.31334169 76.4296875 102.9296875 C76.92855469 104.02412422 76.92855469 104.02412422 77.4375 105.14067078 C77.74671387 105.82627579 78.05592773 106.5118808 78.37451172 107.21826172 C78.64157928 107.80695038 78.90864685 108.39563904 79.18380737 109.00216675 C80.25273378 111.61862841 81.10621729 114.31865188 82 117 C72.43 117 62.86 117 53 117 C51.35 113.24625 49.7 109.4925 48 105.625 C47.47792969 104.44244629 46.95585938 103.25989258 46.41796875 102.04150391 C45.80888672 100.64810791 45.80888672 100.64810791 45.1875 99.2265625 C44.76855469 98.27346191 44.34960938 97.32036133 43.91796875 96.33837891 C43 94 43 94 43 92 C24.52 92.33 6.04 92.66 -13 93 C-16.3 100.92 -19.6 108.84 -23 117 C-32.24 117 -41.48 117 -51 117 C-50.09769433 112.48847164 -48.73521743 108.7940828 -46.859375 104.65625 C-46.38210968 103.58721436 -46.38210968 103.58721436 -45.89520264 102.49658203 C-44.85162444 100.16219437 -43.80084478 97.83112441 -42.75 95.5 C-42.01711277 93.8641407 -41.28469615 92.22807048 -40.55273438 90.59179688 C-38.71333076 86.48286526 -36.86826082 82.37650846 -35.02124023 78.27099609 C-33.54780367 74.9944226 -32.07850125 71.71600852 -30.609375 68.4375 C-29.05860129 64.97693256 -27.50743116 61.51654994 -25.95410156 58.05712891 C-20.75897393 46.48295 -15.61038475 34.8881735 -10.46679688 23.29101562 C-10.1405835 22.55597809 -9.81437012 21.82094055 -9.47827148 21.06362915 C-8.87644261 19.70751662 -8.27499853 18.3512332 -7.67407227 16.99472046 C-5.15199904 11.31266896 -2.57284797 5.66026554 0 0 Z " fill="#FCFCFC" transform="translate(869,726)"/>
<path d="M0 0 C9.57 0 19.14 0 29 0 C34.10867615 10.05364886 38.9487426 20.14745938 43.46936035 30.47659302 C45.18180877 34.38725215 46.9086976 38.29151439 48.63671875 42.1953125 C48.99351715 43.00148514 49.35031555 43.80765778 49.71792603 44.63825989 C53.64353857 53.48550223 57.69250706 62.27516166 61.75 71.0625 C66.91855255 82.26348124 72.04783344 93.47916438 77.0625 104.75 C77.82288574 106.45555054 77.82288574 106.45555054 78.59863281 108.19555664 C79.27877441 109.73070923 79.27877441 109.73070923 79.97265625 111.296875 C80.36718994 112.18729492 80.76172363 113.07771484 81.16821289 113.99511719 C82 116 82 116 82 117 C72.43 117 62.86 117 53 117 C51.35 113.24625 49.7 109.4925 48 105.625 C47.47792969 104.44244629 46.95585938 103.25989258 46.41796875 102.04150391 C45.80888672 100.64810791 45.80888672 100.64810791 45.1875 99.2265625 C44.76855469 98.27346191 44.34960938 97.32036133 43.91796875 96.33837891 C43 94 43 94 43 92 C24.52 92.33 6.04 92.66 -13 93 C-16.3 100.59 -19.6 108.18 -23 116 C-24 117 -24 117 -26.68383789 117.11352539 C-27.85164795 117.10828857 -29.01945801 117.10305176 -30.22265625 117.09765625 C-32.11274414 117.09282227 -32.11274414 117.09282227 -34.04101562 117.08789062 C-35.38151109 117.07953403 -36.72200588 117.07106907 -38.0625 117.0625 C-39.40689942 117.0574866 -40.7513006 117.05292342 -42.09570312 117.04882812 C-45.39717941 117.03699488 -48.69856803 117.02050971 -52 117 C-49.71787883 109.56168697 -46.65072528 102.70716091 -43.3125 95.6875 C-42.13995038 93.19875049 -40.97319358 90.70732227 -39.80859375 88.21484375 C-39.50270325 87.56033234 -39.19681274 86.90582092 -38.88165283 86.23147583 C-35.10461225 78.11939225 -31.49298169 69.93391416 -27.875 61.75 C-22.49753316 49.59461131 -17.04833807 37.47772841 -11.484375 25.40625 C-7.59545703 16.96490199 -3.80356172 8.48007204 0 0 Z " fill="#FCFCFC" transform="translate(574,726)"/>
<path d="M0 0 C9.88567076 -1.76824774 20.30638183 -3.23932466 30 0 C37.42672247 6.21411926 41.22286915 15.63523894 45.19921875 24.26611328 C47.81860639 29.85475057 51.20379825 34.95935809 54.5625 40.125 C55.63318925 41.81074954 56.69771296 43.50044298 57.75390625 45.1953125 C58.19033447 45.88641113 58.6267627 46.57750977 59.07641602 47.28955078 C60 49 60 49 60 51 C60.66 51 61.32 51 62 51 C62.2467749 50.31929443 62.4935498 49.63858887 62.74780273 48.93725586 C64.23489617 45.44900841 66.09274858 42.25066017 68.03515625 39.00390625 C68.63148109 37.99891335 68.63148109 37.99891335 69.23985291 36.97361755 C70.08290143 35.55470964 70.92771323 34.1368481 71.77416992 32.7199707 C73.03825582 30.60309993 74.2959494 28.48253957 75.55273438 26.36132812 C77.19961226 23.58264644 78.87418314 20.82329535 80.56518555 18.07128906 C82.2039393 15.38855838 83.69738639 12.67866679 85.11645508 9.87402344 C89.98057591 0.6615891 89.98057591 0.6615891 95.32885742 -1.09057617 C99.17218759 -1.3798536 102.72640727 -1.23211963 106.5625 -0.875 C108.50479492 -0.78025391 108.50479492 -0.78025391 110.48632812 -0.68359375 C113.66705027 -0.519276 116.82870665 -0.29024207 120 0 C111.40971542 15.31612543 102.20609029 30.26421649 92.93920898 45.1784668 C91.85210358 46.93875199 90.77610623 48.70594442 89.71118164 50.47973633 C87.27477936 54.51083364 84.84658315 58.29202632 81.77734375 61.87109375 C69.46718804 77.11307159 72.62664698 98.47127108 73 117 C64.42 117 55.84 117 47 117 C47.13535156 112.96072266 47.13535156 112.96072266 47.2734375 108.83984375 C47.71730679 87.79247415 47.40728514 72.63222457 33.95947266 55.58496094 C30.58375924 51.1316774 27.83833279 46.30593715 25 41.5 C23.8492341 39.60241717 22.69558129 37.70658211 21.5390625 35.8125 C20.96317383 34.86632812 20.38728516 33.92015625 19.79394531 32.9453125 C17.91374012 29.8583779 16.03128197 26.77282542 14.1484375 23.6875 C13.51679688 22.65173828 12.88515625 21.61597656 12.234375 20.54882812 C11.02943735 18.57308477 9.82375484 16.59779542 8.6171875 14.62304688 C5.6697258 9.78823646 2.77868481 4.93385985 0 0 Z " fill="#FCFDFD" transform="translate(406,726)"/>
<path d="M0 0 C16.96765607 13.83684985 29.28175267 31.95501412 32 54 C33.95502754 78.35484782 27.79011012 99.8341395 12.6171875 119.01171875 C-1.47066265 135.2512502 -22.86236747 147.53619465 -44.59179688 149.19824219 C-69.28868851 150.42698662 -91.26408589 144.38261399 -110.5 128.4375 C-120.76907332 118.86775426 -127.80181736 107.95822034 -133 95 C-133.33644531 94.16726563 -133.67289063 93.33453125 -134.01953125 92.4765625 C-140.97765246 73.48740413 -139.07166192 52.88201665 -130.82543945 34.71289062 C-119.76286753 11.40155025 -101.11076301 -4.18501717 -77 -13 C-52.15785288 -21.77755865 -20.79782164 -15.74216485 0 0 Z M-111.6484375 20.95703125 C-124.76090354 37.92482369 -130.07820515 57.68710263 -128 79 C-125.06341165 94.53347801 -117.07809641 107.90253629 -106 119 C-105.38640625 119.62519531 -104.7728125 120.25039063 -104.140625 120.89453125 C-90.17967332 134.10970559 -70.08033538 140.68899188 -51.0390625 140.25 C-30.62470056 138.57066945 -10.76331199 130.76319351 3.34375 115.45703125 C17.87174669 97.63918024 24.81573338 78.97761836 23 56 C20.39601479 36.10220442 9.63149443 19.29456306 -5.9375 7 C-39.72558488 -16.55986773 -84.8275757 -9.90824621 -111.6484375 20.95703125 Z " fill="#507089" transform="translate(742,333)"/>
<path d="M0 0 C5.20923405 4.35765959 10.08111415 8.93414814 14.875 13.7421875 C15.60315918 14.46938995 16.33131836 15.19659241 17.08154297 15.9458313 C18.6122313 17.47584288 20.14167257 19.00710299 21.66992188 20.53955078 C23.98977455 22.86475098 26.31490539 25.18457598 28.640625 27.50390625 C30.1357373 28.99967957 31.63053926 30.49576319 33.125 31.9921875 C33.81062012 32.67578339 34.49624023 33.35937927 35.20263672 34.06369019 C38.41243357 37.28887338 41.52030846 40.55260033 44.49121094 44 C48.13210785 48.21576524 52.03725756 52.11248314 56.015625 56.0078125 C57.52893041 57.5036184 59.04194274 58.99972086 60.5546875 60.49609375 C62.91050634 62.82087608 65.26858396 65.14322204 67.63183594 67.46044922 C69.933225 69.71946682 72.22502346 71.98786428 74.515625 74.2578125 C75.57502289 75.28927902 75.57502289 75.28927902 76.65582275 76.34158325 C81.50520995 81.16550831 85.40599173 85.7068696 85.5 92.875 C85.28608221 99.63887694 82.22119209 103.88715874 77.4375 108.4375 C72.51227205 111.59469741 66.69904124 111.88577474 61 111 C55.56663458 108.44614685 50.90334054 104.5329116 47 100 C47 99.34 47 98.68 47 98 C45.515 97.505 45.515 97.505 44 97 C42.63198853 95.60951233 42.63198853 95.60951233 41.12353516 93.75024414 C36.34538155 88.12478126 31.09695603 83.00137037 25.85654831 77.81194878 C23.98672361 75.95972546 22.12064493 74.10380023 20.25552368 72.24684143 C14.95752974 66.97312256 9.6538211 61.70517856 4.34570312 56.44165039 C1.08490642 53.20773247 -2.17092257 49.96888037 -5.42380905 46.72700691 C-6.65699982 45.49999137 -7.89208053 44.27487204 -9.12913895 43.05175591 C-10.86109204 41.3391643 -12.58666169 39.62036507 -14.31103516 37.90014648 C-14.81505356 37.40488968 -15.31907196 36.90963287 -15.83836365 36.39936829 C-19.35758491 32.87051225 -22.18322506 29.11296282 -25 25 C-24.16597656 24.32195312 -23.33195313 23.64390625 -22.47265625 22.9453125 C-14.06894866 16.02733635 -6.46918951 8.81979563 0 0 Z " fill="#4E718B" transform="translate(798,479)"/>
<path d="M0 0 C9.24 0 18.48 0 28 0 C28 38.94 28 77.88 28 118 C18.76 118 9.52 118 0 118 C0 79.06 0 40.12 0 0 Z " fill="#F9F9FA" transform="translate(359,726)"/>
<path d="M0 0 C1.40283203 1.44848633 1.40283203 1.44848633 2.5078125 3.33203125 C2.93215576 4.03900146 3.35649902 4.74597168 3.79370117 5.47436523 C4.23302979 6.24594971 4.6723584 7.01753418 5.125 7.8125 C5.59075439 8.60406494 6.05650879 9.39562988 6.53637695 10.21118164 C8.04562533 12.79576003 9.52534267 15.39554577 11 18 C11.52094238 18.91168945 12.04188477 19.82337891 12.57861328 20.76269531 C14.12707905 23.48099614 15.66123859 26.20667689 17.1875 28.9375 C17.66912598 29.79512939 18.15075195 30.65275879 18.64697266 31.53637695 C19.08702637 32.337771 19.52708008 33.13916504 19.98046875 33.96484375 C20.37129639 34.6724585 20.76212402 35.38007324 21.16479492 36.10913086 C22 38 22 38 22 41 C21.22100342 41.17015625 20.44200684 41.3403125 19.6394043 41.515625 C-3.93468788 46.73772304 -25.06854744 53.45993746 -44.859375 67.76953125 C-48 70 -48 70 -49 70 C-49 48.22 -49 26.44 -49 4 C-38.605 3.505 -38.605 3.505 -28 3 C-23.76070399 2.3813697 -19.67384683 1.74330386 -15.5 0.875 C-13.59543749 0.48897458 -11.68921225 0.11104251 -9.78125 -0.2578125 C-8.97751953 -0.4242627 -8.17378906 -0.59071289 -7.34570312 -0.76220703 C-4.60360279 -1.04018431 -2.62722369 -0.84083127 0 0 Z " fill="#4E708B" transform="translate(652,225)"/>
<path d="M0 0 C2.04316716 0.19306352 4.08521326 0.3990009 6.125 0.625 C7.61049886 4.51844821 9.08728112 8.41514634 10.5625 12.3125 C10.98337891 13.41529297 11.40425781 14.51808594 11.83789062 15.65429688 C12.24072266 16.72099609 12.64355469 17.78769531 13.05859375 18.88671875 C13.43040771 19.86600342 13.80222168 20.84528809 14.18530273 21.85424805 C15.07868845 24.48844771 15.84965141 26.85497575 16.125 29.625 C14.33427742 32.06289601 12.62584396 34.00923659 10.5 36.125 C9.88406982 36.75937988 9.26813965 37.39375977 8.63354492 38.04736328 C7.25020243 39.46490605 5.85897868 40.87478555 4.46142578 42.27832031 C1.92642074 44.82445077 -0.58548356 47.39228569 -3.09765625 49.9609375 C-4.91783384 51.8087083 -6.7394416 53.65507142 -8.5625 55.5 C-9.41602051 56.36689453 -10.26954102 57.23378906 -11.14892578 58.12695312 C-16.31794445 63.30092012 -21.66841532 68.06106234 -27.3918457 72.61547852 C-29.79921844 74.56367289 -32.09319829 76.59459094 -34.375 78.6875 C-44.29095844 87.46670835 -53.1641917 92.32505292 -65.875 95.625 C-67.65239903 96.1078695 -69.42974044 96.59095111 -71.20703125 97.07421875 C-73.01231116 97.55216778 -74.81829487 98.02746703 -76.625 98.5 C-77.48279053 98.72776123 -78.34058105 98.95552246 -79.22436523 99.19018555 C-80.43588257 99.49436401 -80.43588257 99.49436401 -81.671875 99.8046875 C-82.38698242 99.98757324 -83.10208984 100.17045898 -83.83886719 100.35888672 C-86.11906837 100.65689862 -87.69817086 100.3157364 -89.875 99.625 C-87.5848304 97.47756442 -85.29268373 95.33225104 -83 93.1875 C-82.31035156 92.54151855 -81.62070312 91.89553711 -80.91015625 91.22998047 C-77.2823222 87.84032898 -73.62211964 84.50808877 -69.875 81.25 C-49.71071865 63.19593414 -32.54443034 41.2041713 -17.875 18.5625 C-17.41843018 17.86350586 -16.96186035 17.16451172 -16.49145508 16.44433594 C-14.56775575 13.45549508 -12.84547718 10.56269054 -11.3203125 7.34375 C-8.47016501 1.33988902 -6.82976631 0.05151763 0 0 Z " fill="#4F718B" transform="translate(700.875,569.375)"/>
<path d="M0 0 C2 0.6875 2 0.6875 4 2.6875 C2.16352383 21.23590936 -21.34666636 44.79904822 -33.734375 58.2109375 C-34.96746201 59.55882916 -36.19326963 60.91421356 -37.37841797 62.30444336 C-42.60760362 68.42752739 -48.24396018 74.11759149 -53.93457031 79.80737305 C-55.63376366 81.50877505 -57.32476265 83.21805752 -59.015625 84.92773438 C-60.10628137 86.0213217 -61.19741059 87.1144377 -62.2890625 88.20703125 C-62.78814117 88.71329544 -63.28721985 89.21955963 -63.80142212 89.74116516 C-66.77349955 92.69409479 -69.31434288 94.47610573 -73 96.6875 C-73 73.9175 -73 51.1475 -73 27.6875 C-64.09 27.3575 -55.18 27.0275 -46 26.6875 C-40.79831559 24.6526893 -38.12479362 23.54743621 -34 20.375 C-33.08903564 19.75214111 -32.17807129 19.12928223 -31.23950195 18.48754883 C-29.38219979 17.21684796 -27.53958475 15.92437471 -25.71337891 14.609375 C-21.32741463 11.50281473 -16.7522339 8.70877913 -12.1875 5.875 C-9.99163566 4.48006084 -7.79836645 3.08116186 -5.60620117 1.68041992 C-2.30520305 -0.36018798 -2.30520305 -0.36018798 0 0 Z " fill="#4F718B" transform="translate(676,561.3125)"/>
<path d="M0 0 C3.63 2.31 7.26 4.62 11 7 C28.75455781 17.68972335 46.54566879 24.693978 67 28 C67.53394179 29.4117783 68.05165104 30.82970244 68.5625 32.25 C68.85253906 33.03890625 69.14257812 33.8278125 69.44140625 34.640625 C70.07430719 37.31385693 69.96478913 38.45121037 69 41 C67.3996582 42.42529297 67.3996582 42.42529297 65.30078125 43.7421875 C64.51372803 44.24451904 63.7266748 44.74685059 62.91577148 45.2644043 C62.05669189 45.79590088 61.1976123 46.32739746 60.3125 46.875 C58.99197632 47.71188354 58.99197632 47.71188354 57.64477539 48.56567383 C55.75815324 49.76013101 53.86829837 50.94949433 51.97558594 52.13427734 C47.92752598 54.67245212 43.90137748 57.24446779 39.8737793 59.81494141 C36.26765894 62.11467893 32.65572076 64.40517556 29.04272461 66.6940918 C27.34928414 67.77670361 25.67235671 68.88509553 24 70 C16.08 70 8.16 70 0 70 C0 46.9 0 23.8 0 0 Z " fill="#4E718B" transform="translate(603,504)"/>
<path d="M0 0 C4.22712113 3.63591538 6.56323835 8.10772706 9.1875 12.9375 C9.66727295 13.81849365 10.1470459 14.6994873 10.64135742 15.60717773 C26.92466214 46.05924719 39.07143393 83.17839733 38 118 C32.72 118 27.44 118 22 118 C21.6596875 115.4321875 21.6596875 115.4321875 21.3125 112.8125 C17.05935258 85.50907807 8.51220286 60.07149357 -10 39 C-10.83447178 37.93839389 -11.66793828 36.87599611 -12.5 35.8125 C-15.18351106 32.79355005 -18.05403694 30.21885979 -21.1328125 27.61328125 C-21.74898437 27.08089844 -22.36515625 26.54851562 -23 26 C-23.55429687 25.58105469 -24.10859375 25.16210938 -24.6796875 24.73046875 C-26.71487793 22.06304461 -26.69159122 19.26913303 -27 16 C-25.33324219 15.02160156 -25.33324219 15.02160156 -23.6328125 14.0234375 C-15.73407852 9.38380799 -7.83993595 4.73863451 0 0 Z " fill="#4F708A" transform="translate(804,274)"/>
<path d="M0 0 C8.55939315 3.20536492 16.10599116 17.46279398 21.38671875 24.66088867 C22.83054501 26.62070071 24.29022616 28.56745127 25.75585938 30.51098633 C28.52860814 34.20296686 31.23376528 37.93817854 33.89648438 41.71020508 C34.38020508 42.39179688 34.86392578 43.07338867 35.36230469 43.77563477 C36.82078809 45.85987013 38.23832342 47.96672401 39.64648438 50.08520508 C40.08943848 50.71491211 40.53239258 51.34461914 40.98876953 51.9934082 C43.93720514 56.55888206 44.17879883 59.66724454 43.26464844 65.00952148 C43.08240723 65.85135986 43.08240723 65.85135986 42.89648438 66.71020508 C37.43553429 66.03018842 32.35511042 64.78603044 27.07910156 63.25244141 C22.47354936 62.03625885 18.26325354 61.6066629 13.49414062 61.58911133 C-3.40914879 61.29665008 -3.40914879 61.29665008 -8.24902344 56.65063477 C-12.06388146 51.16743463 -14.38850626 45.05658084 -16.77636719 38.85327148 C-18.93826923 33.73327023 -21.88128315 29.14171001 -24.85351562 24.46020508 C-25.87570661 22.83410578 -26.89192112 21.20422457 -27.90039062 19.56958008 C-28.32674805 18.89378906 -28.75310547 18.21799805 -29.19238281 17.52172852 C-30.10351562 15.71020508 -30.10351562 15.71020508 -30.10351562 12.71020508 C-29.25756836 12.3326709 -29.25756836 12.3326709 -28.39453125 11.94750977 C-25.79670905 10.78689387 -23.20010937 9.6235666 -20.60351562 8.46020508 C-19.71664062 8.06446289 -18.82976563 7.6687207 -17.91601562 7.26098633 C-17.03945313 6.86782227 -16.16289063 6.4746582 -15.25976562 6.06958008 C-13.95458984 5.48466797 -13.95458984 5.48466797 -12.62304688 4.88793945 C-10.26451801 3.78546433 -7.98834224 2.58563111 -5.69726562 1.35083008 C-2.10351562 -0.28979492 -2.10351562 -0.28979492 0 0 Z " fill="#4F718B" transform="translate(696.103515625,206.289794921875)"/>
<path d="M0 0 C0.93646362 -0.00860046 1.87292725 -0.01720093 2.83776855 -0.02606201 C3.86843445 -0.03032196 4.89910034 -0.03458191 5.96099854 -0.03897095 C7.04405273 -0.04714844 8.12710693 -0.05532593 9.24298096 -0.06375122 C12.83941082 -0.0886333 16.43580114 -0.10512848 20.0322876 -0.11953735 C21.87177349 -0.12752287 21.87177349 -0.12752287 23.74842072 -0.13566971 C29.56938988 -0.1596537 35.39034269 -0.17889349 41.21134734 -0.19169176 C47.25893371 -0.20525237 53.30615049 -0.23156193 59.35357666 -0.27822876 C65.83981994 -0.32747387 72.32571915 -0.35230896 78.81214142 -0.35942459 C81.28570558 -0.36614867 83.75926173 -0.38140049 86.23271942 -0.4053154 C89.69463778 -0.43687743 93.15522451 -0.4370164 96.61724854 -0.42959595 C97.6398175 -0.44600128 98.66238647 -0.46240662 99.71594238 -0.47930908 C104.28317332 -0.43922181 107.53310454 -0.36624822 111.18347168 2.5614624 C114.354751 6.03853985 114.354751 6.03853985 114.2354126 9.15390015 C113.9833752 12.57256126 113.47244679 13.24723943 111.1729126 16.09140015 C107.83136137 18.71690469 106.32076314 19.27895039 102.17175293 19.30107117 C101.25211761 19.30822647 100.3324823 19.31538177 99.38497925 19.32275391 C98.37301483 19.32544281 97.36105042 19.32813171 96.31842041 19.3309021 C94.72309982 19.3407589 94.72309982 19.3407589 93.09555054 19.35081482 C89.56404557 19.37057993 86.03258319 19.38221771 82.5010376 19.3921814 C81.29677879 19.39625692 80.09251999 19.40033245 78.85176849 19.40453148 C72.47769847 19.42540611 66.10365006 19.43970171 59.72955322 19.44906616 C53.14079439 19.46013237 46.55237313 19.49453119 39.96373367 19.53423786 C34.90225592 19.56036619 29.84085903 19.56875467 24.77931976 19.57234764 C22.35042797 19.5772235 19.92154001 19.58886574 17.49271393 19.60738564 C14.09319725 19.63169528 10.69455963 19.63082651 7.29498291 19.62387085 C6.29111542 19.63668091 5.28724792 19.64949097 4.25296021 19.66268921 C-1.61679209 19.61890594 -4.98253092 19.07162255 -9.4520874 15.15390015 C-11.00233204 12.05341086 -10.74200756 9.57495797 -10.4520874 6.15390015 C-7.39539593 1.46697322 -5.47928863 0.03740367 0 0 Z " fill="#2E3540" transform="translate(447.45208740234375,220.84609985351563)"/>
<path d="M0 0 C10.28343738 2.71709171 19.17139599 6.68588877 27.5 13.3125 C28.25925781 13.87324219 29.01851562 14.43398438 29.80078125 15.01171875 C39.99691797 23.12988633 47.44216701 36.49905994 49.5 49.3125 C50.40335334 59.88128906 51.66962414 74.88629345 44.66796875 83.58984375 C41.58558052 86.03909278 39.51175459 85.94674528 35.6953125 85.7578125 C33.5 85.3125 33.5 85.3125 30.4375 83.25 C27.99145238 79.54147619 27.9713498 77.69274453 28.5 73.3125 C28.995 71.7346875 28.995 71.7346875 29.5 70.125 C32.38451157 59.12779962 30.33164046 48.13705778 24.8046875 38.29296875 C17.31041735 27.2032694 7.34038046 21.62523322 -5.5 18.3125 C-7.68211458 18.08598292 -9.87105247 17.91492928 -12.0625 17.8125 C-16.01069571 17.60691972 -17.30500225 17.43624857 -20.75 15.25 C-23.03259558 11.41850028 -23.5247011 8.65653203 -22.5 4.3125 C-18.08253129 -3.5407777 -7.70411931 -1.45522254 0 0 Z " fill="#4F718A" transform="translate(703.5,337.6875)"/>
<path d="M0 0 C3.97387701 1.38051705 6.91177786 3.71356776 10.21484375 6.27734375 C11.27046509 7.08486084 11.27046509 7.08486084 12.34741211 7.90869141 C22.27327099 15.57314578 31.63785554 23.82679253 40.83984375 32.33984375 C41.7690564 33.19618408 41.7690564 33.19618408 42.71704102 34.06982422 C46.38055251 37.49806433 49.6446036 41.04447706 52.77734375 44.96484375 C50.58987286 50.74281101 47.54366203 55.93639706 44.46484375 61.27734375 C43.89572266 62.30408203 43.32660156 63.33082031 42.74023438 64.38867188 C42.17884766 65.35869141 41.61746094 66.32871094 41.0390625 67.328125 C40.53334717 68.21798096 40.02763184 69.10783691 39.5065918 70.0246582 C37.77734375 71.96484375 37.77734375 71.96484375 35.30297852 72.55639648 C31.74506484 71.72306397 31.03698145 70.19468202 29.10546875 67.13671875 C28.1158313 65.604104 28.1158313 65.604104 27.10620117 64.04052734 C26.42017822 62.94305176 25.73415527 61.84557617 25.02734375 60.71484375 C23.59349821 58.49197044 22.15732521 56.27059659 20.71875 54.05078125 C20.03441895 52.98698242 19.35008789 51.92318359 18.64501953 50.82714844 C15.27876548 45.66819909 11.58573243 40.80554292 7.77734375 35.96484375 C6.89925247 34.83240879 6.02167876 33.69957238 5.14453125 32.56640625 C-0.8168047 24.89497078 -6.9550935 17.38803087 -13.22265625 9.96484375 C-3.24028443 -0.0512523 -3.24028443 -0.0512523 0 0 Z " fill="#4F718B" transform="translate(721.22265625,188.03515625)"/>
<path d="M0 0 C3.6477851 0.42209891 7.29268738 0.86551566 10.9375 1.3125 C12.46987305 1.48942383 12.46987305 1.48942383 14.03320312 1.66992188 C22.01522713 2.66448717 30.04743586 3.77885397 36.375 9.125 C37.12007812 9.74246094 37.86515625 10.35992187 38.6328125 10.99609375 C39.80457031 11.98802734 39.80457031 11.98802734 41 13 C42.26457031 14.00740234 42.26457031 14.00740234 43.5546875 15.03515625 C49.91425021 20.11358966 55.90517663 25.5151132 61.84765625 31.06640625 C64.69772451 33.7288443 67.59086376 36.33959379 70.5 38.9375 C73.77200361 41.86844786 76.9454249 44.84360573 80 48 C79 51 79 51 77.45288086 52.02734375 C76.79682861 52.32769531 76.14077637 52.62804687 75.46484375 52.9375 C74.73716797 53.27523437 74.00949219 53.61296875 73.25976562 53.9609375 C72.49341797 54.30382812 71.72707031 54.64671875 70.9375 55 C70.19822266 55.34289062 69.45894531 55.68578125 68.69726562 56.0390625 C55.69468631 62 55.69468631 62 51 62 C49.3253703 59.92938386 47.8480139 57.89502952 46.375 55.6875 C45.47686152 54.38731267 44.57577763 53.08915541 43.671875 51.79296875 C43.22134766 51.14634277 42.77082031 50.4997168 42.30664062 49.83349609 C39.11765666 45.35866994 35.54920452 41.18979265 32 37 C31.32348389 36.1961084 31.32348389 36.1961084 30.63330078 35.37597656 C21.32976341 24.33019193 11.81108715 13.43857256 1.328125 3.48828125 C0 2 0 2 0 0 Z " fill="#4F718B" transform="translate(605,145)"/>
<path d="M0 0 C5.04345768 2.23576682 8.44365888 6.03672918 12.3125 9.875 C13.06595703 10.59558594 13.81941406 11.31617188 14.59570312 12.05859375 C15.30275391 12.75855469 16.00980469 13.45851563 16.73828125 14.1796875 C17.38837158 14.81632324 18.03846191 15.45295898 18.70825195 16.10888672 C20 18 20 18 19.8269043 20.06079102 C18.53969579 23.07947929 16.52969584 25.51620989 14.5 28.0625 C14.10296875 28.57232422 13.7059375 29.08214844 13.296875 29.60742188 C11.87909587 31.41684061 10.43922646 33.2075918 9 35 C8.36175293 35.81178711 7.72350586 36.62357422 7.06591797 37.45996094 C1.6438969 44.25367149 -4.16613952 50.47756957 -10.32861328 56.58935547 C-11.87379378 58.12380216 -13.40796009 59.66868002 -14.94140625 61.21484375 C-21.30973244 67.59079211 -27.89837196 73.43603643 -35 79 C-37.76460846 77.61769577 -37.99120861 76.08867771 -39.125 73.25 C-39.47820313 72.38890625 -39.83140625 71.5278125 -40.1953125 70.640625 C-41.05675814 67.81374515 -41.41377899 65.92899738 -41 63 C-39.48828125 60.7734375 -39.48828125 60.7734375 -37.3125 58.375 C-22.37499855 40.88548028 -10.55665988 20.36989301 0 0 Z " fill="#4F728B" transform="translate(775,534)"/>
<path d="M0 0 C5.28 0 10.56 0 16 0 C16.49772193 26.62812341 12.00072451 51.63600101 4 77 C0.63664406 75.54254576 -1.54534005 73.68882146 -4.109375 71.0859375 C-5.24052734 69.94511719 -5.24052734 69.94511719 -6.39453125 68.78125 C-7.17183594 67.9871875 -7.94914063 67.193125 -8.75 66.375 C-9.54277344 65.57320313 -10.33554687 64.77140625 -11.15234375 63.9453125 C-13.10614493 61.96797154 -15.05512103 59.98611091 -17 58 C-15.67951376 53.82053646 -14.08364845 49.91533413 -12.25 45.9375 C-5.8036112 31.3135438 -2.46043249 15.71942982 0 0 Z " fill="#50718B" transform="translate(826,407)"/>
<path d="M0 0 C0.99 0.33 1.98 0.66 3 1 C2.09197004 6.4120481 -0.14220285 10.6233562 -2.6875 15.4375 C-3.17154297 16.35474854 -3.65558594 17.27199707 -4.15429688 18.21704102 C-12.68511419 34.10177876 -22.42984784 49.16304252 -34 63 C-36.77350931 60.22649069 -37.76691105 56.91565944 -39.125 53.3125 C-39.40214844 52.61705078 -39.67929687 51.92160156 -39.96484375 51.20507812 C-41.71352743 46.59217118 -42.08066726 42.9783226 -42 38 C-42.82519108 34.76002676 -42.82519108 34.76002676 -44 31.6875 C-46 26.15277778 -46 26.15277778 -46 24 C-45.31188232 23.69408936 -44.62376465 23.38817871 -43.91479492 23.07299805 C-20.52228559 13.90738879 -20.52228559 13.90738879 0 0 Z " fill="#50728B" transform="translate(762,521)"/>
<path d="M0 0 C4.22106099 3.51755082 7.05843633 6.03872203 10.3125 10.1875 C13.24925135 13.86580563 16.24459833 17.41696338 19.4375 20.875 C23.84255059 25.70509933 27.80249474 30.80795125 31.73828125 36.01953125 C33.21512677 37.96570246 34.7323472 39.88206042 36.29296875 41.76171875 C38 44 38 44 38 46 C34.6714761 46.69221515 31.33671233 47.34850472 28 48 C27.08476563 48.19078125 26.16953125 48.3815625 25.2265625 48.578125 C16.43688187 50.26381718 9.39219933 50 0 50 C0 33.5 0 17 0 0 Z " fill="#4F718B" transform="translate(603,165)"/>
<path d="M0 0 C3.11473371 2.60076259 4.24200141 5.52847642 5.7421875 9.25 C5.99243683 9.86335205 6.24268616 10.4767041 6.5005188 11.10864258 C7.29918752 13.06960711 8.08754782 15.03450776 8.875 17 C9.91071607 19.56386395 10.95090678 22.12589183 11.9921875 24.6875 C12.36993317 25.62130493 12.36993317 25.62130493 12.75531006 26.57397461 C14.73174149 31.42906237 16.87655706 36.18972543 19.12158203 40.92578125 C20 43 20 43 20 45 C7.46 45 -5.08 45 -18 45 C-17.30772473 41.53862364 -16.7290503 39.0195501 -15.43359375 35.86816406 C-15.11656494 35.09096008 -14.79953613 34.3137561 -14.47290039 33.51300049 C-13.9603772 32.27679962 -13.9603772 32.27679962 -13.4375 31.015625 C-13.0861499 30.15942566 -12.7347998 29.30322632 -12.37280273 28.42108154 C-11.63186267 26.61821788 -10.88873302 24.81625272 -10.14355469 23.01513672 C-8.99915596 20.24795909 -7.8623393 17.47775729 -6.7265625 14.70703125 C-6.00565241 12.95554632 -5.28431323 11.20423793 -4.5625 9.453125 C-4.04997681 8.20477875 -4.04997681 8.20477875 -3.52709961 6.93121338 C-1.11583321 1.11583321 -1.11583321 1.11583321 0 0 Z " fill="#313741" transform="translate(588,752)"/>
<path d="M0 0 C0.66 0 1.32 0 2 0 C3.76003249 4.19507195 5.51986988 8.39022568 7.27954102 12.58544922 C7.87584401 14.00702016 8.47219661 15.4285703 9.06860352 16.85009766 C9.49967407 17.87756104 9.49967407 17.87756104 9.93945312 18.92578125 C10.22571564 19.60805786 10.51197815 20.29033447 10.80691528 20.99328613 C11.37990721 22.35985614 11.95239854 23.72663616 12.52438354 25.09362793 C13.85506546 28.27379658 15.19182762 31.4508587 16.54150391 34.62304688 C16.99831543 35.70134766 17.45512695 36.77964844 17.92578125 37.890625 C18.32837158 38.83454102 18.73096191 39.77845703 19.14575195 40.75097656 C20 43 20 43 20 45 C7.46 45 -5.08 45 -18 45 C-15.98168095 38.94504286 -13.89745474 33.1046586 -11.42578125 27.24609375 C-11.09708542 26.45977066 -10.76838959 25.67344757 -10.42973328 24.86329651 C-9.39368719 22.38674815 -8.35318065 19.91210389 -7.3125 17.4375 C-6.60321793 15.74426529 -5.89423091 14.05090697 -5.18554688 12.35742188 C-3.46043384 8.23684632 -1.73132184 4.11797046 0 0 Z " fill="#303640" transform="translate(883,752)"/>
<path d="M0 0 C0.66 0 1.32 0 2 0 C2.51046875 1.17755859 2.51046875 1.17755859 3.03125 2.37890625 C8.05320028 13.26425062 13.78827324 18.82155554 25 23 C25 23.66 25 24.32 25 25 C24.21496094 25.3403125 23.42992187 25.680625 22.62109375 26.03125 C11.73574938 31.05320028 6.17844446 36.78827324 2 48 C1.34 48 0.68 48 0 48 C-0.3403125 47.21496094 -0.680625 46.42992187 -1.03125 45.62109375 C-6.05320028 34.73574938 -11.78827324 29.17844446 -23 25 C-23 24.34 -23 23.68 -23 23 C-22.21496094 22.6596875 -21.42992187 22.319375 -20.62109375 21.96875 C-9.73574938 16.94679972 -4.17844446 11.21172676 0 0 Z " fill="#92959B" transform="translate(1078,864)"/>
<path d="M0 0 C3.12578143 1.6720747 5.39281175 3.7856235 7 7 C7.23828125 9.20703125 7.23828125 9.20703125 7.3125 11.8125 C7.34988281 12.66457031 7.38726562 13.51664062 7.42578125 14.39453125 C7 17 7 17 5.01147461 19.27685547 C2.62059037 22.51364668 2.4690227 24.19709799 2.390625 28.17578125 C2.35839844 29.33271484 2.32617188 30.48964844 2.29296875 31.68164062 C2.27169922 33.47891602 2.27169922 33.47891602 2.25 35.3125 C2.20552734 37.1387793 2.20552734 37.1387793 2.16015625 39.00195312 C2.08959169 42.00094709 2.04251627 45.00047728 2 48 C-2.29 48 -6.58 48 -11 48 C-11 39.42 -11 30.84 -11 22 C-12.32 21.34 -13.64 20.68 -15 20 C-17.34307944 16.01676495 -17.89101611 11.51683415 -17 7 C-12.90386671 -0.06544925 -7.68259889 -1.08238759 0 0 Z " fill="#B9C8D0" transform="translate(488,484)"/>
<path d="M0 0 C5.17226615 4.6873662 8.98925493 10.31728181 13 16 C9.3322833 19.04502599 5.54596265 21.66822653 1.5 24.1875 C-0.15515625 25.22970703 -0.15515625 25.22970703 -1.84375 26.29296875 C-4.69797565 27.83665267 -6.81127236 28.60140904 -10 29 C-11.67170457 24.7715708 -12.33493905 22.35202102 -11 18 C-9.47066837 14.99877469 -7.74742738 12.12840121 -6 9.25 C-5.5359375 8.47011719 -5.071875 7.69023437 -4.59375 6.88671875 C-1.17911255 1.17911255 -1.17911255 1.17911255 0 0 Z " fill="#53738B" transform="translate(784,245)"/>
<path d="M0 0 C5.77633414 1.7136458 11.08051095 4.28241319 16.5 6.875 C17.42425781 7.30941406 18.34851563 7.74382812 19.30078125 8.19140625 C24.13694036 10.49532754 28.64378944 12.8780491 33 16 C30.66666667 18.33333333 28.33333333 20.66666667 26 23 C22.59191774 22.68135816 21.01970031 21.33200568 18.75 18.875 C16.26434386 16.27249677 13.73352093 13.84150436 11 11.5 C7.16041201 8.18535568 3.40473737 4.76649071 0 1 C0 0.67 0 0.34 0 0 Z " fill="#506F87" transform="translate(674,163)"/>
<path d="M0 0 C2.29576678 2.29576678 3.0638375 3.90346249 4 7 C3.75341462 10.01592893 3.53510258 11.50390262 1.28515625 13.58984375 C0.55167969 14.03457031 -0.18179688 14.47929688 -0.9375 14.9375 C-1.75089844 15.44023438 -2.56429687 15.94296875 -3.40234375 16.4609375 C-4.25957031 16.96882812 -5.11679687 17.47671875 -6 18 C-6.82628906 18.50789062 -7.65257812 19.01578125 -8.50390625 19.5390625 C-10.98687068 21.0544868 -13.48853678 22.53236368 -16 24 C-17.2684375 24.75410156 -17.2684375 24.75410156 -18.5625 25.5234375 C-19.366875 25.99007812 -20.17125 26.45671875 -21 26.9375 C-22.0828125 27.56978516 -22.0828125 27.56978516 -23.1875 28.21484375 C-24.0846875 28.60349609 -24.0846875 28.60349609 -25 29 C-25.66 28.67 -26.32 28.34 -27 28 C-25.98631348 26.9941687 -25.98631348 26.9941687 -24.95214844 25.96801758 C-22.42987339 23.46393228 -19.91098268 20.95646552 -17.39306641 18.44799805 C-16.30576154 17.36570157 -15.21755824 16.28430687 -14.12841797 15.20385742 C-12.55715925 13.64481801 -10.9892303 12.0824937 -9.421875 10.51953125 C-8.69819733 9.8035955 -8.69819733 9.8035955 -7.9598999 9.07319641 C-5.08549719 6.19926549 -2.48108488 3.2187737 0 0 Z " fill="#537086" transform="translate(722,612)"/>
<path d="M0 0 C4.10238116 1.34259747 5.44380003 2.30374172 7.4375 6.125 C7.4375 9.90410616 7.27039714 12.13193033 4.8125 15.0625 C1.46067947 16.56199866 -0.93230218 16.57877473 -4.5625 16.125 C-7 14.5625 -7 14.5625 -8.5625 12.125 C-9.28718526 7.69636786 -9.05704049 5.84433162 -6.5 2.125 C-3.5625 0.125 -3.5625 0.125 0 0 Z " fill="#ACB1B6" transform="translate(971.5625,826.875)"/>
<path d="M0 0 C0.33 0 0.66 0 1 0 C1 19.8 1 39.6 1 60 C0.67 60 0.34 60 0 60 C-0.00808685 59.35520187 -0.01617371 58.71040375 -0.02450562 58.04606628 C-0.11043571 51.3465065 -0.20993414 44.64724656 -0.31738281 37.94799805 C-0.35571119 35.44642159 -0.39055718 32.94478928 -0.421875 30.44311523 C-0.46744146 26.85119643 -0.52545024 23.25966338 -0.5859375 19.66796875 C-0.59748871 18.54601608 -0.60903992 17.42406342 -0.62094116 16.26811218 C-0.64081085 15.22725967 -0.66068054 14.18640717 -0.68115234 13.11401367 C-0.69447601 12.19690109 -0.70779968 11.27978851 -0.7215271 10.33488464 C-0.85377574 7.72938861 -0.85377574 7.72938861 -3 5 C-2.03114628 3.31503702 -1.03013277 1.64821244 0 0 Z " fill="#363C43" transform="translate(297,772)"/>
<path d="M0 0 C0.33 0 0.66 0 1 0 C1.33 2.97 1.66 5.94 2 9 C2.33 8.34 2.66 7.68 3 7 C3.99 7 4.98 7 6 7 C6.66 8.32 7.32 9.64 8 11 C7.67 11.33 7.34 11.66 7 12 C3.5625 11.75 3.5625 11.75 0 11 C-2.30163882 7.54754176 -2.34490322 6.05261287 -2 2 C-1.34 1.34 -0.68 0.68 0 0 Z " fill="#2F353B" transform="translate(966,830)"/>
<path d="M0 0 C2.64 0 5.28 0 8 0 C7.34 1.65 6.68 3.3 6 5 C4.35 4.67 2.7 4.34 1 4 C0.67 2.68 0.34 1.36 0 0 Z " fill="#587489" transform="translate(686,534)"/>
<path d="M0 0 C0 4.09089094 -1.69866948 5.44918487 -4.33203125 8.4140625 C-6.36890116 10.35075848 -8.29054445 11.28279118 -11 12 C-7.49102731 7.81576108 -3.91939465 3.80411834 0 0 Z " fill="#273848" transform="translate(628,634)"/>
<path d="M0 0 C0.66 0.33 1.32 0.66 2 1 C0.56877218 2.48523642 -0.87020889 3.96300462 -2.3125 5.4375 C-3.11300781 6.26121094 -3.91351563 7.08492188 -4.73828125 7.93359375 C-7 10 -7 10 -10 11 C-8.55218207 7.55571735 -6.72305391 5.63869038 -3.875 3.25 C-3.15054687 2.63640625 -2.42609375 2.0228125 -1.6796875 1.390625 C-0.84824219 0.70226562 -0.84824219 0.70226562 0 0 Z " fill="#B9C6CF" transform="translate(299,497)"/>
<path d="M0 0 C0.66 0.33 1.32 0.66 2 1 C-1.63 4.63 -5.26 8.26 -9 12 C-9.66 11.67 -10.32 11.34 -11 11 C-9.54540569 9.35086118 -8.08620743 7.70578218 -6.625 6.0625 C-5.81289063 5.14597656 -5.00078125 4.22945313 -4.1640625 3.28515625 C-2 1 -2 1 0 0 Z " fill="#29394A" transform="translate(623,331)"/>
<path d="M0 0 C1.4540625 0.0309375 1.4540625 0.0309375 2.9375 0.0625 C3.2675 0.7225 3.5975 1.3825 3.9375 2.0625 C5.96213255 2.71463292 5.96213255 2.71463292 7.9375 3.0625 C7.9375 3.7225 7.9375 4.3825 7.9375 5.0625 C6.4983866 4.77890113 5.06124482 4.48528601 3.625 4.1875 C2.82449219 4.02507813 2.02398437 3.86265625 1.19921875 3.6953125 C-1.0625 3.0625 -1.0625 3.0625 -4.0625 1.0625 C-3.0625 0.0625 -3.0625 0.0625 0 0 Z " fill="#B9C5CD" transform="translate(495.0625,551.9375)"/>
<path d="M0 0 C1.32 0.33 2.64 0.66 4 1 C4.33 3.31 4.66 5.62 5 8 C4.34 7.67 3.68 7.34 3 7 C3 6.34 3 5.68 3 5 C2.01 5 1.02 5 0 5 C0 3.35 0 1.7 0 0 Z " fill="#7D8287" transform="translate(969,832)"/>
<path d="M0 0 C0 3 0 3 -1.3125 4.38671875 C-2.875 5.59114583 -4.4375 6.79557292 -6 8 C-6.66 7.67 -7.32 7.34 -8 7 C-5.36 4.69 -2.72 2.38 0 0 Z " fill="#29394A" transform="translate(641,344)"/>
<path d="M0 0 C3.91211733 1.15585285 6.8745041 2.35534962 10 5 C9.01 5 8.02 5 7 5 C6.67 5.66 6.34 6.32 6 7 C4.02 4.69 2.04 2.38 0 0 Z " fill="#55697B" transform="translate(674,163)"/>
<path d="M0 0 C3.96 0 7.92 0 12 0 C12 0.33 12 0.66 12 1 C11.39671875 1.04898438 10.7934375 1.09796875 10.171875 1.1484375 C8.97304688 1.26058594 8.97304688 1.26058594 7.75 1.375 C6.56664062 1.47941406 6.56664062 1.47941406 5.359375 1.5859375 C2.914123 2.01507113 1.15163097 2.78600638 -1 4 C-0.67 2.68 -0.34 1.36 0 0 Z " fill="#5A778F" transform="translate(694,570)"/>
<path d="M0 0 C1.5625 1.75 1.5625 1.75 3 4 C2.8125 6.1875 2.8125 6.1875 2 8 C1.01 8.495 1.01 8.495 0 9 C-1.125 3.375 -1.125 3.375 0 0 Z " fill="#3C4247" transform="translate(974,832)"/>
<path d="M0 0 C0.99 0.33 1.98 0.66 3 1 C0.03 3.475 0.03 3.475 -3 6 C-3 3 -3 3 -1.5 1.3125 C-0.7575 0.6628125 -0.7575 0.6628125 0 0 Z " fill="#4F6A7F" transform="translate(627,654)"/>
</svg>
